<svg width="304" height="334" viewBox="0 0 304 334" fill="none" xmlns="http://www.w3.org/2000/svg">
<path d="M0.267247 333.079H227.271C236.843 333.079 244.609 325.353 244.609 315.829C244.609 311.068 242.66 306.791 239.537 303.655C236.384 300.547 232.057 298.608 227.271 298.608H153.848C142.241 298.608 137.341 283.867 146.684 276.967L296.368 166.454C304.793 160.238 306.513 148.349 300.18 139.995C296.483 135.119 290.837 132.496 285.077 132.496C281.867 132.496 278.628 133.323 275.648 135.005L166 197.732C160.326 200.954 153.104 199.158 149.722 193.626L146.455 188.409C143.675 183.875 144.163 178.03 147.774 174.095L252.149 58.7066C258.855 51.2934 258.941 40.0311 252.321 32.5324C248.366 28.056 242.893 25.8035 237.419 25.8035C231.888 25.8035 226.328 28.113 222.373 32.7035L119.488 152.312C115.419 157.074 108.34 157.9 103.267 154.251L103.21 154.222C98.6535 150.943 96.9627 144.956 99.1981 139.767L147.288 27.9134C151.902 17.1643 146.342 4.79005 135.194 1.05495C133.074 0.342146 130.924 0 128.775 0C120.693 0 113.07 4.9041 110.004 12.8305L62.63 135.49C60.6811 140.508 55.6086 143.616 50.2495 143.131C44.0306 142.532 39.2733 137.372 39.2734 131.185L39.2734 131.071L39.9333 54.6579C40.0481 43.2815 30.4189 34.1576 18.9555 34.8419C13.7397 35.1555 9.06835 37.4365 5.71528 40.972C2.41953 44.5075 0.35607 49.2691 0.356018 54.5153L0.35394 263.453C0.353936 263.852 0.325273 264.279 0.267952 264.707C-0.33394 271.236 0.267041 276.967 0.267247 333.079Z" fill="#FFAF00"/>
</svg>
