<svg width="99" height="171" viewBox="0 0 99 171" fill="none" xmlns="http://www.w3.org/2000/svg">
<g clip-path="url(#clip0_4098_1109)">
<path d="M0 98.8915H99V142.254L49.5 170.643L0 142.254V98.8915Z" fill="#002171"/>
<mask id="mask0_4098_1109" style="mask-type:luminance" maskUnits="userSpaceOnUse" x="0" y="0" width="99" height="99">
<path d="M99 0H0V98.8915H99V0Z" fill="white"/>
</mask>
<g mask="url(#mask0_4098_1109)">
<path d="M0 0V65.9279V98.8915H99V65.9279V0H0Z" fill="#FF1628"/>
<path d="M23.9593 13.8347V15.2293C23.9593 17.812 23.1321 19.9037 21.4779 21.5043C19.8233 23.1058 17.6774 23.9061 15.0667 23.9061C12.2746 23.9061 9.94806 23.0023 8.11195 21.1948C6.2786 19.3635 5.37109 17.1402 5.37109 14.5316C5.37109 11.8972 6.27588 9.67851 8.08629 7.84722C9.91958 6.01586 12.171 5.10938 14.8595 5.10938C18.2466 5.10938 21.1937 6.76214 22.7429 9.32141L19.6922 11.0777C18.8388 9.60527 16.9771 8.57242 14.8339 8.57242C13.102 8.57242 11.6799 9.14041 10.5677 10.2765C9.45578 11.3872 8.9131 12.8073 8.9131 14.5379C8.9131 16.242 9.48235 17.6631 10.5933 18.7729C11.7337 19.8781 13.2306 20.4193 15.0923 20.4193C17.8589 20.4193 19.7197 19.1282 20.366 16.9846H14.8852V13.8347H23.9593Z" fill="white"/>
<path d="M29.3017 12.8532C29.8912 11.2004 31.3652 10.3735 33.0354 10.3735V14.092C32.1199 13.9509 31.1853 14.1735 30.4319 14.7119C29.6712 15.254 29.3017 16.1321 29.3017 17.3673V23.5398H26.1328V10.629H29.3008L29.3017 12.8532Z" fill="white"/>
<path d="M38.3872 18.457C38.8273 20.0841 40.042 20.8845 42.0329 20.8845C43.2996 20.8845 44.2824 20.4458 44.9287 19.5933L47.617 21.1426C46.3504 22.974 44.4628 23.9062 41.9806 23.9062C39.8346 23.9062 38.1306 23.2606 36.8354 21.9695C35.54 20.6784 34.8965 19.0513 34.8965 17.089C34.8965 15.1524 35.5428 13.5253 36.8098 12.236C38.0764 10.9184 39.7312 10.2728 41.7222 10.2728C43.6094 10.2728 45.1862 10.9184 46.4018 12.236C47.6427 13.5527 48.2624 15.1542 48.2624 17.089C48.2555 17.548 48.2123 18.0057 48.1333 18.4579L38.3872 18.457ZM44.9278 15.8749C44.5399 14.1186 43.2476 13.2661 41.7193 13.2661C39.9355 13.2661 38.7199 14.2221 38.3323 15.8749H44.9278Z" fill="white"/>
<path d="M60.2836 10.6327H63.6161V23.5436H60.2836V22.0217C59.2754 23.2871 57.8791 23.907 56.0673 23.907C54.3348 23.907 52.8586 23.2615 51.6205 21.9439C50.4059 20.6271 49.7871 19 49.7871 17.0909C49.7871 15.1817 50.4077 13.5784 51.6205 12.2617C52.8617 10.944 54.3352 10.2728 56.0673 10.2728C57.8766 10.2728 59.2754 10.8927 60.2836 12.1582V10.6327ZM56.6905 20.7297C57.725 20.7297 58.5784 20.394 59.2498 19.7225C59.9475 19.0247 60.2836 18.1475 60.2836 17.0881C60.2836 16.0286 59.9475 15.1515 59.2498 14.4794C58.5777 13.7825 57.7243 13.4465 56.6905 13.4465C55.6563 13.4465 54.8029 13.7825 54.1312 14.4794C53.4592 15.1505 53.1224 16.0286 53.1224 17.0881C53.1224 18.1475 53.4592 19.0247 54.1312 19.7225C54.8035 20.394 55.6563 20.7297 56.6905 20.7297Z" fill="white"/>
<path d="M74.5586 13.8347H71.6365V19.2059C71.6365 20.6005 72.6444 20.6261 74.558 20.5235V23.5452C69.9817 24.0617 68.3003 22.7449 68.3003 19.2068V13.8347H66.0527V10.6299H68.3012V8.02384L71.6365 7.0166V10.6326H74.558L74.5586 13.8347Z" fill="white"/>
<path d="M14.4976 28.1731C16.2301 28.1731 17.7059 28.7674 18.8921 29.9294C20.0782 31.0913 20.6759 32.5381 20.6759 34.2422C20.6759 35.9463 20.0819 37.393 18.8921 38.555C17.7022 39.717 16.2337 40.3113 14.4976 40.3113H11.3177V46.25H7.75V28.1731H14.4976ZM14.4976 36.9791C16.0229 36.9791 17.1349 35.7887 17.1349 34.2422C17.1349 32.6663 16.0229 31.5043 14.4976 31.5043H11.3177V36.9791H14.4976Z" fill="white"/>
<path d="M23.1074 46.25V28.3397H26.4423V46.25H23.1074Z" fill="white"/>
<path d="M39.8346 33.3375H43.1693V46.2481H39.8346V44.7263C38.8262 45.9918 37.4301 46.6117 35.6181 46.6117C33.8856 46.6117 32.4096 45.9662 31.1712 44.6485C29.9566 43.3318 29.3379 41.7046 29.3379 39.7955C29.3379 37.8863 29.9585 36.2832 31.1712 34.9662C32.4125 33.6488 33.8865 32.9777 35.6181 32.9777C37.4273 32.9777 38.8262 33.5976 39.8346 34.863V33.3375ZM36.2412 43.4343C37.276 43.4343 38.1291 43.0985 38.8008 42.4271C39.4982 41.7293 39.8346 40.8521 39.8346 39.793C39.8346 38.7335 39.4982 37.8563 38.8008 37.1842C38.1288 36.4874 37.2754 36.1513 36.2412 36.1513C35.2073 36.1513 34.3539 36.4874 33.6819 37.1842C33.0099 37.8554 32.6738 38.7335 32.6738 39.793C32.6738 40.8521 33.0099 41.7293 33.6819 42.4271C34.3536 43.0992 35.2067 43.4352 36.2412 43.4352V43.4343Z" fill="white"/>
<path d="M47.9797 44.6494C46.687 43.3327 46.041 41.7312 46.041 39.7964C46.041 37.8616 46.687 36.2582 47.9797 34.9434C49.2986 33.6257 50.9277 32.9805 52.8654 32.9805C55.3733 32.9805 57.5964 34.2716 58.6569 36.3114L55.7881 37.9898C55.2743 36.9279 54.1587 36.2601 52.8397 36.2601C50.8497 36.2601 49.3757 37.7325 49.3757 39.7983C49.3757 40.8055 49.7122 41.658 50.3585 42.3292C51.0001 42.9747 51.8322 43.3108 52.8397 43.3108C54.1844 43.3108 55.2966 42.6653 55.8132 41.6067L58.7089 43.2595C57.5717 45.2997 55.3746 46.6164 52.8664 46.6164C50.9277 46.6117 49.2986 45.9662 47.9797 44.6494Z" fill="white"/>
<path d="M64.0356 41.1625C64.4755 42.7897 65.6904 43.59 67.6811 43.59C68.948 43.59 69.9308 43.1514 70.5768 42.2989L73.2658 43.8482C71.9992 45.6795 70.1113 46.6117 67.6291 46.6117C65.483 46.6117 63.779 45.9662 62.4836 44.6751C61.1884 43.384 60.5449 41.7543 60.5449 39.7936C60.5449 37.8573 61.1916 36.2301 62.4585 34.9409C63.7248 33.6232 65.3793 32.9777 67.3709 32.9777C69.2579 32.9777 70.8347 33.6232 72.0502 34.9409C73.2912 36.2573 73.9109 37.8588 73.9109 39.7936C73.9043 40.2528 73.861 40.7105 73.7815 41.1625H64.0356ZM70.5765 38.5803C70.1886 36.8244 68.896 35.9719 67.3678 35.9719C65.5842 35.9719 64.3683 36.9275 63.9805 38.5803H70.5765Z" fill="white"/>
<path d="M18.6858 51.7817V55.0204H13.8V68.9558H10.2314V55.0204H5.37305V51.7817H18.6858Z" fill="white"/>
<path d="M24.2424 69.3157C22.3293 69.3157 20.7004 68.6698 19.3841 67.3525C18.0678 66.0348 17.416 64.4105 17.416 62.4994C17.416 60.5887 18.0623 58.9869 19.3814 57.6702C20.7004 56.3538 22.3293 55.6816 24.2397 55.6816C26.15 55.6816 27.7817 56.3528 29.098 57.6702C30.4143 58.9879 31.089 60.5887 31.089 62.4994C31.089 64.4105 30.4171 66.0376 29.098 67.3525C27.7789 68.6673 26.1555 69.3157 24.2424 69.3157ZM24.2424 66.0617C25.2508 66.0617 26.0758 65.7253 26.7504 65.0541C27.4251 64.3829 27.7588 63.5308 27.7588 62.4976C27.7588 61.4647 27.4224 60.6122 26.7504 59.9413C26.0785 59.2701 25.2508 58.9338 24.2424 58.9338C23.2341 58.9338 22.4091 59.2701 21.7344 59.9413C21.0882 60.6122 20.7518 61.4647 20.7518 62.4976C20.7518 63.5308 21.0882 64.3829 21.7344 65.0541C22.4064 65.7275 23.2341 66.0632 24.2424 66.0632V66.0617Z" fill="white"/>
<path d="M10.9267 92.7171L5.85938 74.6395H9.60853L13.0726 88.0429L16.8474 74.6395H19.8981L23.6986 88.0429L27.1627 74.6395H30.9118L25.8445 92.7161H21.7846L18.3718 80.7852L14.9847 92.7161L10.9267 92.7171Z" fill="white"/>
<path d="M37.4293 93.079C35.516 93.079 33.8872 92.4331 32.5707 91.1158C31.2545 89.7981 30.6055 88.1722 30.6055 86.2628C30.6055 84.3533 31.2518 82.7499 32.5707 81.4335C33.89 80.1171 35.5188 79.4449 37.4293 79.4449C39.3394 79.4449 40.971 80.1161 42.2875 81.4335C43.6039 82.7512 44.2756 84.3499 44.2756 86.2606C44.2756 88.1722 43.6039 89.799 42.2846 91.1142C40.9657 92.4291 39.3422 93.079 37.4293 93.079ZM37.4293 89.825C38.4374 89.825 39.2626 89.4886 39.9372 88.8174C40.612 88.1463 40.9456 87.2941 40.9456 86.2606C40.9456 85.228 40.6092 84.3755 39.9372 83.7046C39.2651 83.0334 38.4374 82.6971 37.4293 82.6971C36.4208 82.6971 35.5959 83.0334 34.9211 83.7046C34.275 84.3755 33.9386 85.228 33.9386 86.2606C33.9386 87.2941 34.275 88.1462 34.9258 88.8196C35.5931 89.4886 36.4208 89.8266 37.4293 89.8266V89.825Z" fill="white"/>
<path d="M49.9675 82.026C50.5881 80.3732 52.1392 79.5466 53.8974 79.5466V83.2646C52.8889 83.1361 51.9588 83.343 51.1564 83.8848C50.3544 84.4265 49.9647 85.305 49.9647 86.5404V92.713H46.6328V79.802H49.9675V82.026Z" fill="white"/>
<path d="M68.274 92.7171H64.3964L59.6914 86.8568V92.7171H56.3555V74.6395H59.6904V85.4863L64.1373 79.8092H68.1189L62.9224 86.1878L68.274 92.7171Z" fill="white"/>
<path d="M69.4903 90.3896C69.4853 89.811 69.6517 89.2439 69.97 88.76C70.288 88.2761 70.7429 87.8981 71.2764 87.673C71.8103 87.4479 72.3983 87.386 72.9672 87.4958C73.5359 87.6055 74.0594 87.8815 74.4707 88.2886C74.8821 88.6959 75.1631 89.2161 75.2781 89.7832C75.3931 90.3509 75.337 90.9392 75.1167 91.4741C74.8962 92.0093 74.5218 92.4666 74.0403 92.7893C73.5591 93.1109 72.9929 93.2832 72.4134 93.2832C70.7939 93.2832 69.4903 92.034 69.4903 90.3896ZM74.8069 90.3765C74.8069 88.9425 73.8062 87.9441 72.4108 87.9441C71.0154 87.9441 70.0135 88.9566 70.0135 90.3906C70.0135 91.8245 71.0671 92.8108 72.4108 92.8108C73.7545 92.8108 74.8094 91.8105 74.8094 90.3756L74.8069 90.3765ZM71.4096 88.9035H72.4237C73.0957 88.9035 73.5293 89.1779 73.5293 89.7713V89.7854C73.5293 90.219 73.2787 90.4553 72.9369 90.5609L73.7003 91.7842H73.0424L72.3447 90.666H72.0421V91.7842H71.4096V88.9035ZM72.4159 90.2318C72.7454 90.2318 72.9168 90.087 72.9168 89.811V89.7982C72.9168 89.4959 72.7335 89.3908 72.4159 89.3908H72.0493V90.2318H72.4159Z" fill="white"/>
</g>
<path d="M11.7053 121.48C9.92541 121.48 8.45539 120.889 7.29511 119.708C6.13487 118.526 5.55469 117.069 5.55469 115.336C5.55469 113.592 6.13487 112.135 7.29511 110.965C8.45539 109.783 9.92541 109.192 11.7053 109.192C12.7755 109.192 13.7611 109.446 14.6623 109.952C15.5747 110.447 16.2844 111.122 16.7913 111.977L14.7805 113.142C14.4877 112.613 14.0709 112.202 13.5302 111.91C12.9895 111.606 12.3811 111.454 11.7053 111.454C10.5563 111.454 9.62694 111.814 8.91721 112.535C8.21882 113.254 7.86963 114.188 7.86963 115.336C7.86963 116.473 8.21882 117.401 8.91721 118.121C9.62694 118.841 10.5563 119.201 11.7053 119.201C12.3811 119.201 12.9895 119.055 13.5302 118.762C14.0821 118.459 14.4989 118.048 14.7805 117.53L16.7913 118.695C16.2844 119.55 15.5803 120.231 14.6792 120.737C13.778 121.232 12.7867 121.48 11.7053 121.48ZM20.0137 117.918C20.3066 118.976 21.1007 119.505 22.3962 119.505C23.2297 119.505 23.8606 119.224 24.2887 118.661L26.046 119.674C25.2124 120.878 23.9845 121.48 22.3623 121.48C20.9655 121.48 19.8447 121.058 18.9999 120.214C18.1549 119.37 17.7326 118.307 17.7326 117.024C17.7326 115.753 18.1493 114.695 18.9829 113.851C19.8165 112.995 20.8867 112.568 22.1934 112.568C23.4325 112.568 24.452 112.995 25.2518 113.851C26.0628 114.706 26.4684 115.764 26.4684 117.024C26.4684 117.305 26.4402 117.604 26.3839 117.918H20.0137ZM19.9799 116.231H24.2887C24.1647 115.657 23.9057 115.229 23.5114 114.948C23.1284 114.666 22.689 114.526 22.1934 114.526C21.6076 114.526 21.1233 114.678 20.7403 114.981C20.3572 115.274 20.1038 115.691 19.9799 116.231ZM30.1698 114.256C30.3725 113.716 30.7049 113.311 31.1667 113.041C31.6398 112.77 32.1636 112.636 32.7382 112.636V115.066C32.0734 114.987 31.4766 115.122 30.947 115.471C30.4289 115.82 30.1698 116.399 30.1698 117.21V121.244H27.99V112.804H30.1698V114.256ZM39.0767 114.897H37.1672V118.408C37.1672 118.701 37.2405 118.914 37.3868 119.049C37.5334 119.184 37.7474 119.263 38.0291 119.286C38.3107 119.297 38.6597 119.291 39.0767 119.269V121.244C37.5782 121.412 36.5193 121.272 35.8999 120.822C35.2915 120.371 34.9873 119.567 34.9873 118.408V114.897H33.5174V112.804H34.9873V111.1L37.1672 110.441V112.804H39.0767V114.897ZM41.6949 111.792C41.3343 111.792 41.0188 111.662 40.7487 111.404C40.4897 111.133 40.36 110.818 40.36 110.458C40.36 110.098 40.4897 109.783 40.7487 109.513C41.0188 109.243 41.3343 109.108 41.6949 109.108C42.0664 109.108 42.3819 109.243 42.641 109.513C42.9114 109.783 43.0467 110.098 43.0467 110.458C43.0467 110.818 42.9114 111.133 42.641 111.404C42.3819 111.662 42.0664 111.792 41.6949 111.792ZM40.6134 121.244V112.804H42.7933V121.244H40.6134ZM52.2061 112.804V121.244H50.0262V114.897H47.5425V121.244H45.3626V114.897H44.1461V112.804H45.3626V112.72C45.3626 110.368 46.6862 109.192 49.3336 109.192C49.9307 109.192 50.5895 109.271 51.3104 109.429V111.42C50.5557 111.33 49.8969 111.285 49.3336 111.285C48.7251 111.285 48.2746 111.392 47.9817 111.606C47.6888 111.808 47.5425 112.18 47.5425 112.72V112.804H52.2061ZM58.2154 121.48C56.9428 121.48 55.8779 121.053 55.022 120.197C54.177 119.342 53.7547 118.284 53.7547 117.024C53.7547 115.764 54.177 114.706 55.022 113.851C55.8779 112.995 56.9428 112.568 58.2154 112.568C59.0377 112.568 59.7868 112.765 60.4629 113.159C61.1384 113.553 61.6509 114.081 62.0005 114.745L60.1246 115.842C59.956 115.493 59.6966 115.218 59.3476 115.015C59.0092 114.813 58.6267 114.712 58.1984 114.712C57.5449 114.712 57.0045 114.931 56.5762 115.37C56.1483 115.797 55.9343 116.349 55.9343 117.024C55.9343 117.688 56.1483 118.239 56.5762 118.678C57.0045 119.106 57.5449 119.319 58.1984 119.319C58.6377 119.319 59.0265 119.224 59.3645 119.033C59.7138 118.83 59.9726 118.555 60.1418 118.205L62.0341 119.286C61.6622 119.95 61.1384 120.484 60.4629 120.889C59.7868 121.283 59.0377 121.48 58.2154 121.48ZM69.476 112.804H71.6555V121.244H69.476V120.248C68.8228 121.069 67.9045 121.48 66.7215 121.48C65.5956 121.48 64.6265 121.053 63.8154 120.197C63.0159 119.331 62.6155 118.273 62.6155 117.024C62.6155 115.775 63.0159 114.723 63.8154 113.868C64.6265 113.001 65.5956 112.568 66.7215 112.568C67.9045 112.568 68.8228 112.978 69.476 113.8V112.804ZM65.4543 118.746C65.8935 119.184 66.4515 119.404 67.1272 119.404C67.8033 119.404 68.3607 119.184 68.7999 118.746C69.2507 118.295 69.476 117.722 69.476 117.024C69.476 116.326 69.2507 115.758 68.7999 115.319C68.3607 114.869 67.8033 114.644 67.1272 114.644C66.4515 114.644 65.8935 114.869 65.4543 115.319C65.0147 115.758 64.7951 116.326 64.7951 117.024C64.7951 117.722 65.0147 118.295 65.4543 118.746ZM80.0361 109.429H82.216V121.244H80.0361V120.248C79.3941 121.069 78.4818 121.48 77.2992 121.48C76.161 121.48 75.1866 121.053 74.3755 120.197C73.5757 119.331 73.1763 118.273 73.1763 117.024C73.1763 115.775 73.5757 114.723 74.3755 113.868C75.1866 113.001 76.161 112.568 77.2992 112.568C78.4818 112.568 79.3941 112.978 80.0361 113.8V109.429ZM76.0147 118.746C76.4652 119.184 77.0285 119.404 77.7043 119.404C78.3803 119.404 78.9377 119.184 79.3769 118.746C79.8165 118.295 80.0361 117.722 80.0361 117.024C80.0361 116.326 79.8165 115.758 79.3769 115.319C78.9377 114.869 78.3803 114.644 77.7043 114.644C77.0285 114.644 76.4652 114.869 76.0147 115.319C75.5754 115.758 75.3558 116.326 75.3558 117.024C75.3558 117.722 75.5754 118.295 76.0147 118.746ZM90.6307 112.804H92.8102V121.244H90.6307V120.248C89.9774 121.069 89.0589 121.48 87.8762 121.48C86.7496 121.48 85.7812 121.053 84.9701 120.197C84.1696 119.331 83.7702 118.273 83.7702 117.024C83.7702 115.775 84.1696 114.723 84.9701 113.868C85.7812 113.001 86.7496 112.568 87.8762 112.568C89.0589 112.568 89.9774 112.978 90.6307 113.8V112.804ZM86.6086 118.746C87.0482 119.184 87.6058 119.404 88.2819 119.404C88.9574 119.404 89.5153 119.184 89.9546 118.746C90.4054 118.295 90.6307 117.722 90.6307 117.024C90.6307 116.326 90.4054 115.758 89.9546 115.319C89.5153 114.869 88.9574 114.644 88.2819 114.644C87.6058 114.644 87.0482 114.869 86.6086 115.319C86.1694 115.758 85.9498 116.326 85.9498 117.024C85.9498 117.722 86.1694 118.295 86.6086 118.746Z" fill="white"/>
<path d="M29.8897 143.247V141.417L34.1406 137.046C35.0893 136.051 35.5636 135.222 35.5636 134.559C35.5636 134.073 35.4095 133.682 35.1012 133.386C34.8048 133.09 34.4195 132.942 33.9452 132.942C33.0084 132.942 32.3145 133.428 31.864 134.399L29.8008 133.191C30.1921 132.338 30.7553 131.687 31.4905 131.236C32.2258 130.786 33.0319 130.561 33.9094 130.561C35.036 130.561 36.0022 130.917 36.8086 131.627C37.615 132.326 38.0183 133.273 38.0183 134.47C38.0183 135.761 37.3362 137.087 35.9728 138.45L33.536 140.884H38.2137V143.247H29.8897ZM44.2875 143.496C42.7342 143.496 41.513 142.909 40.6236 141.737C39.7461 140.552 39.3074 138.983 39.3074 137.028C39.3074 135.074 39.7461 133.51 40.6236 132.338C41.513 131.153 42.7342 130.561 44.2875 130.561C45.8527 130.561 47.0742 131.153 47.9518 132.338C48.829 133.51 49.2679 135.074 49.2679 137.028C49.2679 138.983 48.829 140.552 47.9518 141.737C47.0742 142.909 45.8527 143.496 44.2875 143.496ZM42.4021 140.067C42.8291 140.754 43.4576 141.097 44.2875 141.097C45.1177 141.097 45.7462 140.747 46.1729 140.049C46.6118 139.35 46.8311 138.343 46.8311 137.028C46.8311 135.702 46.6118 134.689 46.1729 133.99C45.7462 133.292 45.1177 132.942 44.2875 132.942C43.4576 132.942 42.8291 133.292 42.4021 133.99C41.9754 134.689 41.7621 135.702 41.7621 137.028C41.7621 138.355 41.9754 139.368 42.4021 140.067ZM50.0558 143.247V141.417L54.3069 137.046C55.2552 136.051 55.7295 135.222 55.7295 134.559C55.7295 134.073 55.5754 133.682 55.2671 133.386C54.9707 133.09 54.5854 132.942 54.1111 132.942C53.1743 132.942 52.4807 133.428 52.0299 134.399L49.9669 133.191C50.3582 132.338 50.9215 131.687 51.6568 131.236C52.392 130.786 53.1978 130.561 54.0757 130.561C55.2023 130.561 56.1685 130.917 56.9749 131.627C57.7813 132.326 58.1845 133.273 58.1845 134.47C58.1845 135.761 57.5025 137.087 56.139 138.45L53.7022 140.884H58.38V143.247H50.0558ZM68.8661 138.858V141.133H67.5322V143.247H65.06V141.133H59.1726V138.858L63.3165 130.81H65.9488L61.8227 138.858H65.06V135.909H67.5322V138.858H68.8661Z" fill="white"/>
<path d="M42.6718 154.318C43.2308 154.64 43.5102 155.125 43.5102 155.774C43.5102 156.314 43.3188 156.757 42.9363 157.103C42.5534 157.448 42.0829 157.621 41.5239 157.621H38.8184V151.251H41.3328C41.8795 151.251 42.3379 151.421 42.7085 151.761C43.0851 152.094 43.2734 152.522 43.2734 153.044C43.2734 153.572 43.0729 153.996 42.6718 154.318ZM41.3328 152.425H40.0756V153.826H41.3328C41.5271 153.826 41.6881 153.76 41.8156 153.626C41.9491 153.493 42.0161 153.326 42.0161 153.126C42.0161 152.926 41.9522 152.759 41.8247 152.625C41.6972 152.492 41.5333 152.425 41.3328 152.425ZM41.5239 156.448C41.7367 156.448 41.9127 156.378 42.0525 156.238C42.1922 156.093 42.2621 155.91 42.2621 155.692C42.2621 155.48 42.1922 155.304 42.0525 155.164C41.9127 155.019 41.7367 154.946 41.5239 154.946H40.0756V156.448H41.5239ZM45.4548 153.854C45.5641 153.563 45.7433 153.344 45.9924 153.199C46.2474 153.053 46.5297 152.98 46.8396 152.98V154.29C46.4811 154.248 46.1594 154.321 45.874 154.509C45.5945 154.697 45.4548 155.01 45.4548 155.446V157.621H44.2797V153.071H45.4548V153.854ZM50.8196 153.071H51.9948V157.621H50.8196V157.084C50.4675 157.527 49.9725 157.749 49.3346 157.749C48.7274 157.749 48.2052 157.518 47.7678 157.057C47.3367 156.59 47.1209 156.02 47.1209 155.346C47.1209 154.672 47.3367 154.105 47.7678 153.645C48.2052 153.177 48.7274 152.943 49.3346 152.943C49.9725 152.943 50.4675 153.165 50.8196 153.608V153.071ZM48.6516 156.274C48.8885 156.511 49.1889 156.629 49.5533 156.629C49.918 156.629 50.2184 156.511 50.4552 156.274C50.6984 156.032 50.8196 155.722 50.8196 155.346C50.8196 154.97 50.6984 154.664 50.4552 154.427C50.2184 154.184 49.918 154.063 49.5533 154.063C49.1889 154.063 48.8885 154.184 48.6516 154.427C48.4145 154.664 48.296 154.97 48.296 155.346C48.296 155.722 48.4145 156.032 48.6516 156.274ZM54.1089 154.364C54.1089 154.485 54.1878 154.585 54.3463 154.664C54.5102 154.737 54.7075 154.803 54.9381 154.864C55.169 154.918 55.3996 154.991 55.6305 155.082C55.8611 155.167 56.0553 155.313 56.2139 155.519C56.3777 155.725 56.4598 155.984 56.4598 156.292C56.4598 156.76 56.2834 157.121 55.9313 157.376C55.5851 157.625 55.1505 157.749 54.6283 157.749C53.6928 157.749 53.0556 157.388 52.7153 156.666L53.7357 156.093C53.8692 156.487 54.1668 156.684 54.6283 156.684C55.0475 156.684 55.2567 156.554 55.2567 156.292C55.2567 156.171 55.1747 156.074 55.0108 156.001C54.8529 155.923 54.6587 155.853 54.4281 155.792C54.1972 155.732 53.9663 155.656 53.7357 155.565C53.5045 155.473 53.3071 155.331 53.1433 155.137C52.9854 154.937 52.9064 154.688 52.9064 154.391C52.9064 153.942 53.0706 153.59 53.3983 153.335C53.7326 153.074 54.1455 152.943 54.6374 152.943C55.0083 152.943 55.3448 153.028 55.6487 153.199C55.9523 153.362 56.1922 153.599 56.3683 153.908L55.3661 154.454C55.2207 154.145 54.9779 153.99 54.6374 153.99C54.4861 153.99 54.3579 154.024 54.2548 154.091C54.158 154.157 54.1089 154.248 54.1089 154.364ZM57.7982 152.525C57.6039 152.525 57.4338 152.455 57.2884 152.316C57.1487 152.17 57.0785 152.001 57.0785 151.806C57.0785 151.612 57.1487 151.442 57.2884 151.297C57.4338 151.151 57.6039 151.078 57.7982 151.078C57.999 151.078 58.1691 151.151 58.3088 151.297C58.4542 151.442 58.5275 151.612 58.5275 151.806C58.5275 152.001 58.4542 152.17 58.3088 152.316C58.1691 152.455 57.999 152.525 57.7982 152.525ZM57.2151 157.621V153.071H58.3906V157.621H57.2151ZM59.4664 157.621V150.978H60.6413V157.621H59.4664Z" fill="white"/>
<path d="M93.0475 150.677V150.625H92.9952H90.2551H90.2031V150.677V151.266V151.317H90.2551H91.2035V153.797V153.848H91.2555H91.9898H92.0418V153.797V151.317H92.9952H93.0475V151.266V150.677ZM97.594 150.677V150.625H97.5426H96.7866H96.7603L96.7443 150.646L95.7224 152.063L94.6954 150.646L94.6797 150.625H94.6531H93.8978H93.8454V150.677V153.797V153.848H93.8978H94.6318H94.6838V153.797V151.938L95.6378 153.252L95.6535 153.274H95.6801H95.7653H95.7919L95.8076 153.252L96.7613 151.934V153.797V153.848H96.8136H97.5426H97.594V153.797V150.677Z" fill="#002171" stroke="#002171" stroke-width="0.201893"/>
</g>
<defs>
<clipPath id="clip0_4098_1109">
<rect width="99" height="171" fill="white"/>
</clipPath>
</defs>
</svg>
