<svg width="402" height="220" fill="none" xmlns="http://www.w3.org/2000/svg"><mask id="a" style="mask-type:alpha" maskUnits="userSpaceOnUse" x="0" y="0" width="402" height="220"><path d="M0 0h402v219.146H0V0z" fill="#C6C2C2"/></mask><g mask="url(#a)" fill="#29B5BE"><path d="M8.269 34.368c-2.461-2.56-5.438-4.08-8.986-4.52a15.572 15.572 0 0 0-1.797-.113c-4.316-.034-8.633-.053-12.949-.08-1.224-.008-2.45-.025-3.674-.037-.151-.002-.303 0-.492 0-.015-.21-.038-.373-.038-.536.011-4.404.018-8.807.04-13.21.014-2.915.054-5.83.074-8.745.02-2.935.017-5.87.045-8.806.012-1.35.073-2.7.114-4.124.417 0 .837-.01 1.257.003.368.01.734.063 1.101.065 3.851.017 7.702.024 11.554.042 4.413.02 8.826.05 13.24.073 2.509.014 5.017.027 7.526.038.618.003 1.236 0 1.935 0v-.51c.013-5.175.011-10.35.048-15.526.01-1.462.149-2.92.575-4.339.72-2.396 1.971-4.498 3.814-6.238 2.472-2.334 5.426-3.728 8.89-4.03 4.754-.413 8.8 1.077 12.103 4.376 2.228 2.226 3.513 4.927 3.908 8.011.211 1.649.106 3.303.093 4.956-.002.207-.014.414-.014.62 0 2.485.009 4.97-.004 7.454-.008 1.617-.05 3.232-.073 4.848-.002.183.015.367.025.573.167.012.299.03.43.03 3.869.027 7.738.057 11.606.075 4.202.02 8.403.021 12.604.042 3.11.015 6.22.049 9.33.071.853.006 1.707.001 2.584.001.032.166.07.27.07.374-.01 2.935-.018 5.871-.037 8.806-.02 3.141-.05 6.282-.076 9.422l-.039 5.25-.078 10.946v.632c.236.014.406.03.576.032 3.307.014 6.613.02 9.92.041 2.35.015 4.704 0 7.053.084 3.803.134 7.093 1.492 9.827 4.069 2.225 2.096 3.621 4.635 4.186 7.58.599 3.127.133 6.123-1.353 8.964-1.451 2.774-3.628 4.863-6.476 6.278-1.742.865-3.599 1.405-5.571 1.48a92.59 92.59 0 0 1-3.785.073c-2.487-.008-4.975-.048-7.462-.068-2.14-.018-4.278-.027-6.418-.04h-.671c-.023.153-.043.276-.058.4-.006.056-.001.113-.001.17-.013 5.137-.02 10.275-.042 15.412-.013 3.084-.053 6.168-.074 9.252-.019 2.804-.022 5.608-.044 8.411-.005.58-.06 1.159-.093 1.742-.065.027-.115.067-.166.067-1.436-.02-2.872-.057-4.309-.063-4.474-.02-8.947-.022-13.421-.043-3.013-.014-6.025-.052-9.038-.072-2.703-.018-5.407-.027-8.11-.039-.482-.002-.963 0-1.48 0-.009.102-.03.249-.032.395l-.079 11.172c-.013 1.825.016 3.652-.05 5.475a13.36 13.36 0 0 1-1.666 6.041c-1.642 2.974-4.061 5.15-7.26 6.493-1.377.578-2.819.93-4.321 1.076-2.884.28-5.625-.2-8.17-1.509-4.258-2.189-6.855-5.604-7.75-10.202-.246-1.261-.247-2.534-.21-3.815.045-1.598.01-3.199.01-4.799.001-.998-.007-1.995.002-2.993.021-2.293.05-4.587.076-6.88.003-.203 0-.406 0-.638-.2-.017-.35-.04-.499-.04-4.627-.027-9.254-.055-13.882-.076-3.754-.017-7.508-.02-11.261-.04-3.13-.017-6.26-.046-9.389-.076-.501-.004-1.003-.039-1.537-.06-.017-.148-.044-.273-.044-.398-.003-2.277-.012-4.555 0-6.832.016-2.915.055-5.83.074-8.744.02-2.936.023-5.871.042-8.807.02-2.971.048-5.942.078-8.913.006-.523.04-1.044.063-1.605.22-.01.408-.026.597-.026 2.16-.001 4.319-.006 6.478 0 2.879.008 5.757.023 8.635.04.328.003.656.068.984.069 3.079.005 5.958-.682 8.558-2.327 2.022-1.28 3.634-2.932 4.817-4.968 1.49-2.562 2.104-5.326 1.838-8.243-.29-3.182-1.542-5.988-3.801-8.394zM218.863 1.777c-.726-3.42-2.453-6.207-5.25-8.36a15.12 15.12 0 0 0-1.477-.994c-3.673-2.187-7.354-4.362-11.03-6.543-1.044-.619-2.082-1.246-3.123-1.869-.128-.077-.259-.152-.42-.246.1-.188.168-.338.256-.477 2.38-3.76 4.757-7.524 7.147-11.28 1.581-2.485 3.185-4.957 4.771-7.44 1.597-2.501 3.175-5.013 4.779-7.51.738-1.149 1.517-2.273 2.319-3.47.356.208.721.41 1.073.63.309.193.594.422.907.607 3.284 1.94 6.574 3.872 9.857 5.813 3.764 2.224 7.523 4.455 11.284 6.683a8999.55 8999.55 0 0 0 6.416 3.796c.527.311 1.057.618 1.655.968l.275-.437c2.797-4.42 5.582-8.847 8.4-13.255.796-1.246 1.699-2.424 2.828-3.424 1.906-1.69 4.107-2.861 6.621-3.428 3.37-.76 6.647-.475 9.771.999 4.288 2.023 6.947 5.32 7.995 9.794.707 3.017.352 5.97-.971 8.805-.707 1.516-1.688 2.879-2.589 4.286-.113.176-.234.347-.346.523-1.338 2.125-2.668 4.255-4.016 6.373-.878 1.378-1.783 2.74-2.673 4.11-.101.156-.184.321-.287.503.136.094.239.174.352.24 3.294 1.958 6.586 3.918 9.885 5.867 3.583 2.118 7.175 4.22 10.756 6.338 2.652 1.568 5.293 3.153 7.941 4.727.726.432 1.459.854 2.209 1.293-.062.157-.085.265-.141.354-1.589 2.506-3.177 5.013-4.773 7.514-1.708 2.676-3.426 5.347-5.138 8.02l-2.86 4.47-5.96 9.323-.341.542c.195.129.331.228.476.314 2.82 1.666 5.644 3.325 8.461 4.995 2.003 1.189 4.023 2.353 5.987 3.599 3.18 2.016 5.263 4.823 6.213 8.394.774 2.905.601 5.775-.502 8.577-1.17 2.973-3.182 5.303-5.982 6.989-2.735 1.647-5.721 2.345-8.919 2.131-1.956-.13-3.834-.597-5.561-1.52a90.128 90.128 0 0 1-3.277-1.83c-2.123-1.25-4.228-2.528-6.344-3.789-1.82-1.084-3.645-2.162-5.467-3.242-.182-.108-.364-.213-.575-.336-.101.12-.185.214-.264.313-.036.044-.062.096-.093.144-2.777 4.388-5.549 8.779-8.333 13.162-1.672 2.631-3.367 5.248-5.045 7.876-1.526 2.388-3.038 4.785-4.567 7.172-.315.493-.675.96-1.017 1.442-.07-.009-.135 0-.177-.025-1.218-.735-2.427-1.485-3.652-2.209-3.815-2.253-7.64-4.492-11.454-6.747-2.569-1.519-5.126-3.057-7.691-4.58-2.302-1.367-4.61-2.727-6.915-4.089-.411-.242-.823-.482-1.266-.74-.062.083-.159.197-.239.322-2.029 3.172-4.056 6.344-6.083 9.516-.994 1.554-1.952 3.13-2.99 4.657a14.054 14.054 0 0 1-4.678 4.334c-3.005 1.722-6.246 2.374-9.705 1.923a14.752 14.752 0 0 1-4.274-1.24c-2.617-1.202-4.703-2.984-6.175-5.376-2.462-4.001-2.846-8.22-1.135-12.6.468-1.202 1.154-2.291 1.874-3.368.9-1.345 1.732-2.731 2.594-4.1.537-.853 1.067-1.71 1.612-2.558 1.253-1.951 2.513-3.898 3.77-5.847.111-.172.218-.347.344-.546-.163-.114-.278-.208-.406-.284-3.943-2.336-7.885-4.674-11.831-7.005-3.201-1.892-6.41-3.772-9.609-5.666-2.668-1.58-5.328-3.17-7.989-4.759-.426-.255-.836-.535-1.282-.82.065-.135.109-.255.176-.362 1.224-1.95 2.443-3.902 3.679-5.844 1.583-2.485 3.186-4.959 4.772-7.442 1.597-2.5 3.18-5.01 4.777-7.51 1.616-2.532 3.24-5.06 4.866-7.585.286-.444.597-.873.918-1.34.192.1.362.18.524.275 1.847 1.078 3.697 2.155 5.54 3.24 2.457 1.446 4.911 2.897 7.363 4.352.28.165.525.385.805.55 2.63 1.544 5.462 2.396 8.572 2.289 2.417-.084 4.686-.69 6.794-1.84 2.653-1.447 4.666-3.504 6.01-6.132 1.465-2.867 1.905-5.892 1.268-9.08zM366.497 90.56c-2.757-2.875-6.091-4.583-10.065-5.079a17.386 17.386 0 0 0-2.013-.126c-4.835-.037-9.669-.06-14.504-.09-1.372-.008-2.744-.028-4.115-.042h-.551c-.018-.236-.043-.419-.043-.602.012-4.948.02-9.896.045-14.843.015-3.275.061-6.55.082-9.825.022-3.298.02-6.597.051-9.895.014-1.517.082-3.034.128-4.634.467 0 .938-.01 1.408.003.411.012.822.071 1.233.073 4.314.02 8.627.028 12.941.048 4.944.023 9.887.055 14.83.082 2.811.016 5.621.03 8.431.043.692.003 1.385 0 2.167 0V45.1c.015-5.816.013-11.63.054-17.446.012-1.643.166-3.281.644-4.875.807-2.693 2.208-5.054 4.272-7.01 2.769-2.622 6.078-4.188 9.958-4.527 5.324-.464 9.857 1.21 13.557 4.917 2.495 2.5 3.934 5.536 4.377 9 .236 1.853.119 3.713.103 5.57-.001.232-.015.465-.015.697-.001 2.792.01 5.583-.004 8.375-.009 1.816-.056 3.631-.082 5.447-.003.206.017.412.027.644.188.014.335.033.483.034 4.333.03 8.666.063 13 .083 4.706.022 9.412.024 14.118.047 3.483.017 6.967.056 10.45.08.956.008 1.912.002 2.894.002.036.186.079.303.079.42-.011 3.298-.02 6.597-.041 9.895-.023 3.529-.058 7.058-.086 10.586-.016 1.966-.03 3.932-.044 5.898l-.087 12.3v.71c.264.016.455.035.646.036 3.703.016 7.407.023 11.11.046 2.634.017 5.269 0 7.9.094 4.26.151 7.946 1.677 11.008 4.573 2.492 2.355 4.056 5.208 4.688 8.517.672 3.514.15 6.88-1.515 10.071-1.625 3.117-4.063 5.465-7.254 7.054-1.951.973-4.03 1.58-6.24 1.663-1.412.054-2.826.087-4.239.083-2.787-.009-5.573-.054-8.359-.077-2.396-.02-4.792-.03-7.188-.044-.238-.001-.476 0-.752 0-.025.172-.048.31-.065.449-.007.063-.001.127-.001.19-.015 5.773-.022 11.546-.047 17.318-.014 3.466-.06 6.931-.083 10.396-.021 3.15-.025 6.301-.049 9.451-.005.651-.068 1.301-.104 1.957-.073.03-.13.075-.186.075-1.609-.022-3.218-.064-4.827-.071-5.011-.022-10.022-.025-15.033-.048-3.374-.016-6.749-.058-10.123-.081-3.028-.02-6.056-.03-9.084-.043-.54-.003-1.079-.001-1.659-.001-.009.115-.033.28-.034.445-.031 4.184-.06 8.368-.089 12.552-.014 2.051.018 4.103-.056 6.152a15.054 15.054 0 0 1-1.866 6.788c-1.839 3.341-4.549 5.786-8.133 7.296a16.533 16.533 0 0 1-4.839 1.209c-3.23.314-6.301-.225-9.152-1.696-4.769-2.46-7.678-6.296-8.681-11.463-.275-1.417-.276-2.848-.235-4.286.051-1.797.012-3.595.012-5.393.001-1.121-.008-2.242.002-3.363.024-2.577.057-5.154.085-7.731.003-.228.001-.456.001-.717-.225-.019-.392-.044-.56-.045-5.183-.03-10.366-.061-15.549-.084-4.205-.02-8.41-.024-12.614-.046-3.506-.019-7.011-.052-10.516-.085-.562-.005-1.124-.044-1.723-.068-.019-.165-.049-.306-.049-.446-.003-2.559-.013-5.119.001-7.677.017-3.276.061-6.551.082-9.826.022-3.298.026-6.596.047-9.895.022-3.338.054-6.677.088-10.015.006-.587.045-1.173.071-1.803.245-.011.456-.029.668-.029 2.419-.002 4.838-.006 7.256 0 3.225.009 6.449.025 9.673.046.367.002.734.075 1.102.076 3.448.006 6.673-.766 9.586-2.615 2.264-1.437 4.07-3.294 5.395-5.581 1.668-2.879 2.356-5.985 2.058-9.263-.324-3.575-1.727-6.727-4.257-9.431zM240.745 190.422c-2.455-2.56-5.424-4.079-8.964-4.521a15.55 15.55 0 0 0-1.793-.112c-4.305-.033-8.611-.053-12.916-.08-1.222-.008-2.444-.025-3.666-.037-.151-.002-.302 0-.49 0-.016-.211-.038-.373-.038-.536.011-4.404.018-8.807.04-13.211.014-2.914.054-5.829.073-8.744.02-2.935.018-5.87.045-8.806.013-1.35.073-2.7.114-4.124.416 0 .836-.009 1.255.003.366.01.731.063 1.097.065 3.842.017 7.684.024 11.526.042 4.402.021 8.805.049 13.207.073l7.508.039c.617.003 1.233 0 1.93 0v-.511c.013-5.175.012-10.35.049-15.526.01-1.462.148-2.92.573-4.339.718-2.396 1.966-4.498 3.805-6.238 2.466-2.334 5.412-3.728 8.868-4.029 4.742-.414 8.779 1.077 12.073 4.376 2.223 2.225 3.504 4.926 3.898 8.01.211 1.649.106 3.304.093 4.957-.002.206-.014.413-.014.62-.001 2.485.009 4.969-.004 7.454-.008 1.616-.049 3.232-.072 4.848-.003.183.015.366.024.572.167.013.298.03.43.031 3.859.026 7.718.056 11.577.074 4.191.019 8.382.021 12.573.042 3.103.015 6.205.049 9.307.071.851.007 1.703.001 2.578.001.032.166.07.27.07.374-.01 2.936-.018 5.871-.037 8.807-.02 3.14-.051 6.281-.076 9.421l-.039 5.249-.077 10.947c-.002.201-.001.402-.001.633.236.013.405.03.575.031 3.298.014 6.597.021 9.895.041 2.346.015 4.693.001 7.036.084 3.794.134 7.076 1.492 9.804 4.069 2.218 2.096 3.611 4.635 4.175 7.581.598 3.126.132 6.123-1.35 8.963-1.447 2.774-3.619 4.863-6.46 6.278-1.738.865-3.59 1.405-5.557 1.48a93.252 93.252 0 0 1-3.776.073c-2.481-.008-4.963-.048-7.444-.068-2.134-.018-4.268-.027-6.402-.039-.212-.002-.424-.001-.669-.001-.023.153-.043.276-.058.4-.007.056-.001.113-.001.169-.013 5.138-.02 10.276-.042 15.413-.013 3.084-.053 6.168-.074 9.252-.018 2.804-.022 5.608-.044 8.412-.004.579-.06 1.158-.093 1.741-.064.027-.115.067-.165.067-1.433-.02-2.866-.057-4.299-.063-4.462-.02-8.925-.022-13.388-.043-3.005-.014-6.01-.052-9.016-.072-2.696-.018-5.393-.027-8.09-.039-.48-.002-.96 0-1.477 0-.008.102-.029.249-.031.395l-.079 11.172c-.012 1.825.016 3.652-.049 5.475a13.386 13.386 0 0 1-1.662 6.041c-1.638 2.974-4.052 5.15-7.243 6.493-1.374.579-2.812.93-4.31 1.076-2.877.281-5.612-.2-8.15-1.509-4.248-2.189-6.839-5.603-7.732-10.202-.245-1.26-.245-2.534-.209-3.814.045-1.599.011-3.2.011-4.8 0-.997-.007-1.995.002-2.993.021-2.293.05-4.587.075-6.88.003-.203.001-.406.001-.638-.2-.017-.349-.039-.498-.04-4.616-.027-9.232-.054-13.848-.076-3.745-.017-7.49-.021-11.235-.041a2089.57 2089.57 0 0 1-9.365-.075c-.5-.004-1-.039-1.534-.061-.017-.146-.043-.271-.043-.397-.003-2.277-.012-4.555 0-6.832.016-2.915.054-5.829.074-8.744.019-2.936.022-5.871.041-8.807.02-2.971.048-5.942.079-8.913.005-.522.04-1.044.062-1.604.219-.01.407-.026.596-.027 2.154-.001 4.308-.005 6.462.001 2.871.008 5.743.022 8.614.04.327.002.654.067.981.068 3.071.005 5.944-.681 8.538-2.327 2.016-1.279 3.625-2.932 4.805-4.967 1.485-2.563 2.098-5.327 1.833-8.244-.289-3.182-1.538-5.987-3.792-8.394zM69.612 162.658c-1.534-3.162-3.89-5.484-7.13-6.947a15.056 15.056 0 0 0-1.677-.635c-4.101-1.3-8.207-2.587-12.31-3.881-1.165-.367-2.326-.743-3.49-1.115-.143-.046-.288-.089-.468-.145.052-.205.082-.366.134-.521 1.403-4.193 2.803-8.386 4.217-12.575.936-2.773 1.896-5.538 2.837-8.31.947-2.791 1.874-5.588 2.829-8.377.439-1.283.924-2.551 1.413-3.896.397.123.801.238 1.197.372.347.118.68.276 1.028.386 3.664 1.148 7.33 2.286 10.994 3.435 4.198 1.316 8.393 2.64 12.59 3.96l7.158 2.247c.588.185 1.178.364 1.844.569l.161-.486c1.65-4.928 3.286-9.859 4.958-14.779.473-1.39 1.066-2.739 1.92-3.965 1.445-2.072 3.301-3.707 5.608-4.823 3.094-1.498 6.349-1.958 9.744-1.227 4.659 1.002 8.043 3.611 10.146 7.725 1.418 2.774 1.788 5.726 1.189 8.78-.321 1.633-.944 3.179-1.48 4.75-.067.196-.144.39-.209.587-.787 2.367-1.564 4.737-2.362 7.1-.52 1.538-1.07 3.065-1.604 4.598-.06.174-.101.354-.158.553.156.061.276.116.401.155 3.677 1.162 7.354 2.327 11.034 3.481 3.996 1.253 7.998 2.489 11.994 3.743 2.958.928 5.91 1.875 8.866 2.81.811.256 1.625.502 2.461.76-.022.167-.018.277-.052.376-.937 2.795-1.874 5.589-2.821 8.38-1.012 2.987-2.035 5.97-3.053 8.955-.567 1.663-1.133 3.326-1.698 4.99l-3.537 10.406c-.065.192-.128.384-.2.603.22.082.377.148.539.199 3.145.985 6.293 1.963 9.436 2.954 2.236.705 4.482 1.382 6.693 2.152 3.581 1.245 6.286 3.506 8.076 6.764 1.455 2.651 1.982 5.481 1.589 8.453-.419 3.155-1.811 5.873-4.125 8.142-2.26 2.217-4.995 3.568-8.156 4.079-1.933.313-3.873.282-5.775-.227a90.612 90.612 0 0 1-3.63-1.042c-2.367-.738-4.724-1.507-7.087-2.257-2.032-.646-4.067-1.283-6.101-1.923-.203-.064-.405-.125-.64-.198-.07.139-.128.25-.182.364-.023.051-.036.107-.054.161-1.638 4.891-3.27 9.784-4.916 14.673-.988 2.935-2.002 5.861-2.998 8.793-.905 2.666-1.795 5.336-2.703 8.001-.188.551-.424 1.086-.64 1.632-.07.007-.131.031-.178.015-1.363-.44-2.719-.898-4.086-1.326-4.256-1.333-8.517-2.65-12.773-3.984-2.865-.899-5.723-1.819-8.587-2.724-2.57-.811-5.143-1.614-7.714-2.42-.458-.143-.918-.283-1.41-.435-.04.095-.108.228-.155.368-1.205 3.54-2.407 7.08-3.61 10.621-.59 1.735-1.14 3.483-1.78 5.201A13.709 13.709 0 0 1 77.621 252c-2.505 2.35-5.499 3.713-8.971 4.053-1.496.146-2.98.058-4.457-.244-2.836-.581-5.296-1.844-7.306-3.839-3.364-3.337-4.758-7.353-4.157-11.997.165-1.273.568-2.487 1.008-3.696.549-1.51 1.023-3.046 1.529-4.57.315-.95.624-1.903.948-2.851.746-2.179 1.5-4.355 2.25-6.533.065-.193.128-.387.201-.608-.186-.075-.32-.14-.463-.185-4.4-1.385-8.8-2.771-13.201-4.15-3.571-1.12-7.146-2.226-10.716-3.348-2.976-.936-5.948-1.883-8.92-2.83-.477-.152-.944-.332-1.446-.51.03-.145.044-.272.084-.391.718-2.171 1.43-4.344 2.162-6.51.937-2.772 1.896-5.538 2.837-8.31.947-2.791 1.878-5.587 2.826-8.378.958-2.825 1.925-5.648 2.895-8.469.17-.496.368-.983.567-1.51.212.054.397.095.577.15 2.057.633 4.116 1.263 6.171 1.904 2.74.853 5.478 1.712 8.214 2.575.312.098.604.257.916.354 2.931.91 5.892 1.101 8.89.297 2.33-.624 4.389-1.725 6.16-3.317 2.23-2.004 3.689-4.457 4.359-7.315.73-3.117.425-6.157-.966-9.114z"/></g></svg>