<svg width="402" height="874" fill="none" xmlns="http://www.w3.org/2000/svg"><mask id="a" style="mask-type:alpha" maskUnits="userSpaceOnUse" x="0" y="0" width="402" height="874"><path d="M0 0h402v874H0V0z" fill="#C6C2C2"/></mask><g mask="url(#a)" fill="#FF9012"><path d="M278.641 741.006c-3.613-3.768-7.982-6.004-13.19-6.654a22.577 22.577 0 0 0-2.638-.165c-6.336-.049-12.671-.079-19.006-.118-1.798-.011-3.596-.037-5.393-.055-.223-.002-.445 0-.722 0-.023-.31-.057-.549-.056-.789.016-6.481.027-12.963.058-19.445.021-4.29.08-8.58.109-12.87.028-4.321.025-8.642.066-12.962.018-1.988.107-3.975.167-6.071.612 0 1.23-.013 1.846.004.539.015 1.077.093 1.616.096 5.652.026 11.305.036 16.958.062 6.478.03 12.956.072 19.434.108 3.683.02 7.365.039 11.048.056.907.004 1.814.001 2.84.001 0-.219-.001-.486 0-.752.019-7.618.017-15.236.071-22.853.015-2.153.217-4.299.843-6.387 1.057-3.528 2.893-6.621 5.599-9.182 3.628-3.436 7.964-5.487 13.048-5.931 6.978-.608 12.918 1.585 17.766 6.441 3.27 3.275 5.156 7.252 5.736 11.791.31 2.427.155 4.862.136 7.295-.003.305-.02.609-.02.914-.002 3.657.013 7.314-.006 10.971-.012 2.379-.073 4.757-.107 7.136-.004.269.022.539.036.843.245.018.439.043.632.045 5.678.038 11.357.082 17.035.109 6.167.028 12.334.031 18.501.061 4.565.023 9.13.073 13.694.106 1.253.009 2.505.001 3.793.001.047.244.103.397.103.55-.014 4.321-.026 8.642-.054 12.963-.029 4.623-.075 9.245-.112 13.868-.021 2.575-.039 5.151-.057 7.726l-.114 16.113c-.002.296 0 .592 0 .931.346.019.595.045.845.046 4.853.021 9.707.031 14.56.061 3.451.022 6.905.001 10.353.123 5.582.198 10.412 2.197 14.425 5.99 3.265 3.085 5.314 6.822 6.143 11.158.88 4.602.196 9.012-1.985 13.193-2.13 4.083-5.325 7.158-9.506 9.241-2.557 1.273-5.282 2.069-8.177 2.178-1.851.07-3.704.114-5.556.108-3.651-.011-7.302-.07-10.953-.1-3.14-.026-6.28-.04-9.42-.058-.312-.002-.624 0-.985 0-.033.225-.064.406-.085.588-.01.082-.002.166-.002.249-.019 7.562-.029 15.125-.061 22.687-.019 4.539-.079 9.079-.109 13.618-.027 4.127-.032 8.254-.065 12.381-.006.853-.089 1.705-.136 2.563-.095.04-.169.099-.243.098-2.109-.028-4.217-.083-6.326-.092-6.566-.029-13.133-.033-19.699-.063-4.423-.021-8.844-.076-13.267-.106-3.968-.026-7.936-.039-11.904-.057-.706-.003-1.413 0-2.173 0-.012.15-.044.366-.045.582-.041 5.481-.078 10.962-.116 16.444-.019 2.686.023 5.374-.074 8.058a19.71 19.71 0 0 1-2.445 8.892c-2.41 4.377-5.961 7.581-10.657 9.558a21.66 21.66 0 0 1-6.342 1.584c-4.233.412-8.257-.295-11.993-2.221-6.249-3.223-10.062-8.249-11.376-15.017-.361-1.856-.361-3.73-.308-5.615.067-2.353.016-4.71.017-7.065 0-1.468-.012-2.936.002-4.405.031-3.376.074-6.751.111-10.127.004-.299.001-.598.001-.939-.295-.025-.514-.058-.733-.06-6.792-.039-13.585-.079-20.377-.11-5.51-.026-11.02-.031-16.53-.061-4.593-.024-9.187-.067-13.78-.11-.736-.007-1.472-.058-2.257-.09-.025-.216-.064-.4-.065-.584-.003-3.353-.017-6.705.001-10.057.023-4.291.08-8.581.108-12.871.029-4.321.033-8.642.062-12.963.029-4.373.07-8.747.115-13.12.008-.768.059-1.537.092-2.361.322-.015.599-.038.876-.038 3.17-.003 6.339-.009 9.509 0 4.225.011 8.45.032 12.675.059.482.003.963.099 1.444.1 4.519.008 8.745-1.003 12.562-3.425 2.967-1.883 5.334-4.315 7.07-7.312 2.186-3.771 3.088-7.839 2.698-12.134-.426-4.684-2.264-8.813-5.579-12.355zM60.387 49.906c-1.07-5.037-3.615-9.143-7.734-12.313a22.128 22.128 0 0 0-2.175-1.465c-5.41-3.22-10.831-6.424-16.247-9.637-1.537-.911-3.066-1.835-4.599-2.753-.19-.113-.381-.223-.619-.362.147-.276.247-.498.377-.703 3.506-5.54 7.007-11.081 10.526-16.613 2.33-3.66 4.692-7.303 7.028-10.96 2.352-3.684 4.677-7.383 7.04-11.06 1.087-1.692 2.233-3.348 3.414-5.112.525.307 1.062.605 1.582.93.454.283.874.62 1.335.892 4.837 2.858 9.682 5.703 14.52 8.562 5.542 3.276 11.079 6.563 16.619 9.843 3.149 1.865 6.299 3.729 9.45 5.591.776.46 1.557.911 2.437 1.426l.405-.643c4.12-6.51 8.223-13.031 12.373-19.524 1.173-1.834 2.503-3.57 4.165-5.043 2.808-2.488 6.05-4.214 9.751-5.05 4.965-1.119 9.791-.7 14.393 1.472 6.316 2.98 10.232 7.838 11.776 14.426 1.042 4.444.518 8.794-1.43 12.97-1.042 2.232-2.486 4.24-3.814 6.311-.166.26-.345.511-.509.772-1.972 3.13-3.93 6.266-5.916 9.387-1.292 2.03-2.626 4.035-3.937 6.053-.148.229-.271.473-.423.74.201.138.353.257.518.355 4.853 2.882 9.702 5.77 14.561 8.641 5.276 3.119 10.567 6.215 15.843 9.335 3.905 2.31 7.796 4.643 11.695 6.962 1.07.636 2.149 1.258 3.254 1.904-.091.232-.125.391-.208.522-2.34 3.691-4.678 7.383-7.03 11.067-2.516 3.942-5.045 7.875-7.568 11.813-1.405 2.194-2.808 4.389-4.212 6.584l-8.778 13.732c-.162.253-.32.507-.502.797.286.19.487.337.701.464 4.153 2.453 8.313 4.896 12.461 7.357 2.95 1.75 5.926 3.465 8.819 5.3 4.684 2.97 7.751 7.105 9.152 12.364 1.139 4.279.884 8.506-.74 12.632-1.724 4.38-4.688 7.812-8.812 10.295-4.028 2.426-8.426 3.455-13.136 3.139-2.88-.193-5.647-.879-8.191-2.238a132.063 132.063 0 0 1-4.826-2.695c-3.127-1.842-6.228-3.724-9.345-5.582-2.681-1.597-5.368-3.184-8.053-4.775-.266-.159-.535-.314-.845-.495-.15.176-.273.316-.39.461-.053.065-.091.141-.136.212-4.091 6.463-8.173 12.93-12.275 19.386-2.462 3.875-4.959 7.731-7.43 11.601-2.247 3.518-4.475 7.047-6.726 10.563-.465.726-.995 1.415-1.498 2.125-.103-.013-.199 0-.262-.038-1.794-1.082-3.574-2.187-5.378-3.253-5.62-3.319-11.253-6.617-16.872-9.938-3.784-2.236-7.549-4.502-11.328-6.746-3.39-2.014-6.789-4.016-10.184-6.022-.605-.357-1.213-.71-1.865-1.091-.091.123-.235.292-.352.476-2.988 4.67-5.974 9.343-8.96 14.015-1.463 2.29-2.875 4.611-4.404 6.86a20.703 20.703 0 0 1-6.89 6.383c-4.426 2.537-9.2 3.497-14.294 2.833a21.716 21.716 0 0 1-6.296-1.827c-3.854-1.77-6.927-4.394-9.095-7.918-3.627-5.894-4.19-12.108-1.672-18.56.69-1.769 1.7-3.374 2.761-4.96 1.325-1.98 2.551-4.022 3.82-6.038.791-1.256 1.573-2.519 2.375-3.769 1.846-2.873 3.702-5.741 5.552-8.611.164-.254.323-.511.507-.804-.24-.169-.41-.307-.597-.418-5.808-3.442-11.615-6.884-17.427-10.319-4.715-2.786-9.44-5.556-14.153-8.345-3.929-2.326-7.847-4.668-11.766-7.009-.628-.376-1.232-.788-1.889-1.209.095-.198.16-.375.26-.533 1.803-2.871 3.598-5.747 5.419-8.607 2.331-3.66 4.691-7.303 7.027-10.96 2.353-3.684 4.684-7.38 7.037-11.064 2.38-3.728 4.773-7.45 7.167-11.17.421-.655.879-1.287 1.352-1.975.283.148.534.267.772.406 2.721 1.588 5.445 3.173 8.16 4.771 3.62 2.13 7.234 4.268 10.845 6.41.412.245.773.569 1.185.81 3.874 2.275 8.045 3.53 12.626 3.372 3.56-.122 6.902-1.017 10.007-2.71 3.907-2.131 6.873-5.16 8.852-9.032 2.158-4.222 2.806-8.678 1.869-13.373zM329.898 116.732c-4.068-4.228-8.989-6.738-14.855-7.468a25.63 25.63 0 0 0-2.971-.185c-7.135-.055-14.27-.088-21.406-.133-2.024-.012-4.049-.041-6.074-.061-.25-.003-.501-.001-.813-.001-.026-.347-.063-.616-.063-.884.018-7.275.03-14.55.066-21.825.023-4.815.09-9.63.122-14.445.032-4.85.029-9.699.074-14.548.021-2.231.122-4.461.189-6.814.689 0 1.385-.015 2.079.005.607.017 1.213.104 1.819.107 6.367.03 12.734.04 19.1.07 7.296.034 14.592.081 21.888.121 4.148.023 8.295.044 12.442.063 1.022.005 2.044.001 3.199.001v-.844c.022-8.55.019-17.1.08-25.65.017-2.415.245-4.824.95-7.168 1.191-3.959 3.258-7.43 6.306-10.305C356.116 2.912 361 .609 366.725.112c7.859-.684 14.549 1.778 20.009 7.228 3.683 3.676 5.807 8.14 6.46 13.234.349 2.724.176 5.457.153 8.188-.002.342-.022.683-.022 1.025-.002 4.105.014 8.21-.007 12.314-.013 2.67-.081 5.34-.12 8.009-.004.302.025.605.04.946.277.02.494.049.712.05 6.396.044 12.791.093 19.187.123 6.945.032 13.891.035 20.836.069 5.141.025 10.283.081 15.424.118 1.41.01 2.821.002 4.272.002.053.273.116.445.115.617-.016 4.85-.03 9.7-.061 14.55-.033 5.188-.084 10.376-.126 15.564-.023 2.89-.044 5.781-.064 8.672l-.129 18.084c-.002.332 0 .665 0 1.045.39.022.671.05.952.051 5.466.024 10.933.035 16.398.069 3.888.024 7.777.001 11.661.138 6.287.222 11.726 2.466 16.246 6.723 3.677 3.463 5.986 7.657 6.919 12.523.991 5.166.22 10.116-2.236 14.808-2.399 4.582-5.997 8.034-10.706 10.371-2.88 1.43-5.949 2.322-9.21 2.445-2.084.079-4.171.128-6.257.122-4.112-.013-8.224-.08-12.336-.113-3.536-.03-7.073-.044-10.609-.065-.352-.002-.703 0-1.11 0-.037.252-.071.455-.096.66-.01.092-.002.186-.002.28-.021 8.487-.032 16.975-.068 25.462-.022 5.095-.089 10.19-.123 15.285-.031 4.632-.037 9.264-.073 13.896-.007.957-.1 1.913-.154 2.876-.106.045-.19.112-.273.111-2.375-.032-4.75-.094-7.125-.104-7.395-.033-14.791-.037-22.187-.071-4.98-.023-9.96-.085-14.941-.118-4.469-.03-8.938-.045-13.407-.065-.796-.003-1.592 0-2.447 0-.014.169-.05.411-.052.653-.045 6.152-.087 12.304-.13 18.457-.022 3.015.026 6.032-.083 9.044a22.056 22.056 0 0 1-2.754 9.98c-2.715 4.913-6.714 8.508-12.003 10.727-2.277.956-4.66 1.537-7.143 1.778-4.767.463-9.299-.331-13.507-2.493-7.038-3.617-11.332-9.258-12.812-16.855-.406-2.082-.407-4.186-.347-6.301.075-2.642.019-5.286.019-7.929 0-1.648-.013-3.296.002-4.944.035-3.789.084-7.578.126-11.367.003-.335 0-.671 0-1.054-.331-.028-.578-.065-.825-.067-7.65-.044-15.3-.089-22.949-.124-6.206-.028-12.412-.035-18.618-.068-5.173-.027-10.347-.075-15.52-.124-.829-.008-1.658-.064-2.542-.101-.028-.242-.072-.449-.073-.655-.004-3.763-.019-7.526.001-11.288.026-4.815.09-9.63.122-14.446.033-4.849.037-9.699.069-14.548.033-4.909.08-9.817.13-14.726.009-.863.067-1.725.104-2.65.362-.017.674-.043.986-.043 3.57-.003 7.14-.01 10.71 0 4.759.013 9.517.037 14.275.067.543.003 1.085.111 1.627.112 5.089.009 9.849-1.126 14.148-3.844 3.341-2.113 6.007-4.843 7.963-8.207 2.462-4.233 3.477-8.799 3.038-13.619-.48-5.257-2.549-9.891-6.284-13.867zM22.362 427.759c-4.673-2.324-9.541-2.951-14.663-1.802-.858.193-1.708.446-2.538.737-5.979 2.097-11.95 4.212-17.926 6.317-1.696.598-3.396 1.182-5.094 1.773-.21.073-.419.15-.68.243-.126-.283-.238-.497-.319-.723-2.177-6.105-4.359-12.208-6.521-18.319-1.432-4.044-2.827-8.101-4.25-12.148-1.435-4.076-2.9-8.141-4.323-12.221-.654-1.877-1.243-3.777-1.895-5.769.576-.207 1.152-.429 1.738-.621.513-.168 1.045-.276 1.553-.456 5.328-1.888 10.652-3.79 15.98-5.677 6.107-2.163 12.217-4.314 18.326-6.471 3.472-1.226 6.944-2.454 10.415-3.684.855-.302 1.708-.613 2.673-.959l-.254-.708c-2.559-7.175-5.137-14.344-7.663-21.53-.713-2.031-1.249-4.12-1.366-6.296-.198-3.678.484-7.209 2.163-10.535 2.253-4.46 5.64-7.857 10.274-9.994 6.36-2.933 12.693-2.877 18.897.053 4.185 1.976 7.305 5.081 9.386 9.156 1.112 2.179 1.79 4.523 2.595 6.82.1.287.187.579.29.866 1.236 3.442 2.486 6.879 3.705 10.327.793 2.242 1.54 4.501 2.313 6.751.087.255.203.5.319.781.237-.066.427-.107.61-.171 5.357-1.885 10.716-3.763 16.069-5.659 5.813-2.059 11.617-4.142 17.43-6.199 4.304-1.523 8.617-3.02 12.924-4.532 1.181-.415 2.358-.846 3.57-1.282.126.213.231.339.282.483 1.448 4.071 2.898 8.142 4.334 12.217 1.535 4.361 3.056 8.726 4.584 13.089.852 2.431 1.706 4.86 2.56 7.29l5.342 15.202c.098.279.2.558.314.876.332-.098.576-.159.812-.243 4.574-1.621 9.145-3.253 13.722-4.866 3.255-1.147 6.498-2.335 9.784-3.386 5.321-1.702 10.542-1.454 15.601.758 4.116 1.8 7.309 4.624 9.555 8.423 2.385 4.034 3.233 8.415 2.594 13.087-.624 4.563-2.59 8.537-5.821 11.911-1.975 2.064-4.27 3.734-6.958 4.816-1.718.692-3.447 1.36-5.192 1.981-3.44 1.224-6.895 2.403-10.342 3.609-2.963 1.038-5.923 2.087-8.884 3.132-.294.104-.587.211-.927.333.045.223.078.404.119.583.019.08.054.156.082.235 2.54 7.123 5.088 14.243 7.616 21.37 1.517 4.279 2.996 8.571 4.503 12.853 1.37 3.893 2.761 7.778 4.126 11.673.283.805.493 1.634.739 2.458-.076.07-.126.151-.195.175-1.994.686-3.997 1.348-5.985 2.052-6.189 2.193-12.37 4.411-18.56 6.603-4.168 1.476-8.348 2.92-12.52 4.388-3.743 1.317-7.482 2.646-11.222 3.972-.666.236-1.33.477-2.045.734.039.146.082.36.154.563 1.816 5.172 3.634 10.343 5.452 15.515.891 2.534 1.84 5.05 2.656 7.608a19.697 19.697 0 0 1 .706 9.195c-.787 4.934-3.046 9.15-6.796 12.599a21.655 21.655 0 0 1-5.433 3.635c-3.844 1.82-7.87 2.516-12.037 1.966-6.971-.919-12.259-4.359-15.785-10.284-.966-1.625-1.601-3.389-2.188-5.18-.733-2.237-1.578-4.438-2.374-6.654-.496-1.382-1.004-2.76-1.488-4.146-1.112-3.188-2.213-6.379-3.32-9.569-.098-.282-.202-.562-.317-.884-.286.077-.503.119-.71.192-6.405 2.261-12.81 4.52-19.213 6.788-5.194 1.839-10.381 3.698-15.577 5.533-4.33 1.531-8.668 3.044-13.005 4.557-.695.242-1.405.444-2.155.679-.096-.195-.196-.355-.258-.528-1.137-3.154-2.284-6.304-3.4-9.465-1.43-4.045-2.827-8.102-4.252-12.149-1.434-4.076-2.891-8.144-4.326-12.219a3674.065 3674.065 0 0 1-4.329-12.386c-.252-.726-.464-1.467-.711-2.254.297-.122.55-.238.81-.332 2.983-1.074 5.964-2.152 8.95-3.216 3.98-1.418 7.963-2.827 11.948-4.231.454-.16.94-.232 1.392-.394 4.255-1.521 7.891-3.901 10.664-7.472 2.155-2.775 3.56-5.865 4.18-9.272.782-4.288.254-8.422-1.565-12.331-1.985-4.264-5.11-7.528-9.429-9.74zM29.574 715.523c3.784-3.532 6.03-7.855 6.683-13.051.11-.871.16-1.756.166-2.636.05-6.337.079-12.674.118-19.011.012-1.799.037-3.597.056-5.395.002-.222 0-.445 0-.722.31-.016.551-.044.792-.039 6.51.156 13.02.306 19.53.478 4.308.113 8.617.265 12.926.386 4.34.121 8.68.211 13.019.345 1.996.061 3.992.193 6.097.298 0 .612.013 1.23-.004 1.847-.016.539-.094 1.075-.096 1.614-.026 5.654-.037 11.309-.063 16.964-.03 6.48-.073 12.96-.109 19.44-.02 3.683-.038 7.367-.056 11.05-.004.908 0 1.816 0 2.842l.755.016c7.65.183 15.302.345 22.952.563 2.162.062 4.318.311 6.415.982 3.543 1.134 6.65 3.037 9.222 5.799 3.451 3.704 5.511 8.085 5.957 13.181.611 6.994-1.592 12.889-6.469 17.634-3.29 3.201-7.283 5.002-11.843 5.484-2.437.258-4.883.051-7.327-.021-.305-.009-.611-.033-.917-.039-3.673-.081-7.346-.145-11.019-.243-2.39-.063-4.778-.175-7.167-.26-.27-.01-.541.01-.847.017-.018.246-.043.438-.045.632-.038 5.68-.083 11.36-.11 17.04-.028 6.169-.03 12.338-.061 18.507-.023 4.566-.073 9.131-.106 13.698-.01 1.252-.001 2.506-.001 3.794-.245.042-.4.094-.553.091-4.34-.107-8.68-.213-13.02-.333-4.642-.13-9.285-.275-13.928-.411-2.586-.076-5.173-.15-7.76-.224l-16.182-.461c-.298-.009-.596-.013-.936-.021-.02.346-.045.595-.046.845-.02 4.855-.03 9.71-.061 14.565-.022 3.452 0 6.907-.124 10.354-.198 5.581-2.206 10.369-6.016 14.302-3.099 3.2-6.852 5.17-11.207 5.906-4.622.781-9.051.001-13.25-2.271-4.1-2.219-7.19-5.481-9.28-9.709-1.28-2.585-2.079-5.328-2.19-8.227a135.14 135.14 0 0 1-.108-5.561c.012-3.652.071-7.303.102-10.955.026-3.141.039-6.282.057-9.422.002-.312 0-.625 0-.986-.225-.038-.407-.072-.59-.098-.083-.011-.167-.005-.25-.007-7.596-.182-15.191-.355-22.786-.55-4.56-.117-9.119-.274-13.678-.402-4.145-.117-8.29-.211-12.434-.332-.857-.025-1.713-.125-2.575-.192-.04-.095-.1-.171-.099-.245.029-2.108.084-4.217.093-6.326.03-6.568.033-13.138.064-19.706.02-4.424.076-8.846.105-13.27.027-3.969.04-7.938.058-11.907.003-.707 0-1.414 0-2.174-.15-.016-.367-.052-.584-.058-5.505-.159-11.01-.315-16.516-.471-2.698-.077-5.398-.092-8.093-.247a20.188 20.188 0 0 1-8.931-2.638c-4.396-2.505-7.614-6.127-9.599-10.867a21.924 21.924 0 0 1-1.591-6.379c-.414-4.243.295-8.254 2.23-11.95 3.237-6.182 8.285-9.888 15.083-11.057 1.864-.321 3.746-.281 5.64-.187 2.363.117 4.73.118 7.095.169 1.474.031 2.95.052 4.424.097 3.39.103 6.781.219 10.172.329.3.01.6.014.943.021.025-.294.058-.512.06-.732.039-6.794.08-13.588.11-20.382.026-5.512.032-11.024.061-16.536.025-4.595.068-9.189.111-13.783.007-.737.058-1.472.09-2.257.217-.02.402-.055.587-.051 3.367.068 6.734.127 10.101.217 4.31.116 8.618.265 12.927.386 4.34.121 8.68.219 13.019.341 4.393.123 8.785.259 13.177.398.772.024 1.544.092 2.372.143.015.322.038.599.038.876.003 3.172.01 6.343 0 9.514-.012 4.226-.032 8.452-.06 12.678-.002.482-.1.961-.1 1.443-.008 4.52 1.007 8.77 3.44 12.641 1.891 3.008 4.334 5.429 7.344 7.231 3.788 2.267 7.874 3.257 12.187 2.959 4.704-.324 8.851-2.074 12.409-5.315zM294.911 391.437c-2.26-4.657-5.729-8.078-10.502-10.233-.8-.361-1.631-.67-2.47-.936-6.041-1.914-12.088-3.81-18.132-5.715-1.715-.541-3.426-1.095-5.139-1.643-.211-.067-.425-.131-.689-.213.076-.301.119-.54.196-.768 2.067-6.175 4.129-12.352 6.211-18.522 1.379-4.084 2.793-8.157 4.179-12.238 1.395-4.111 2.76-8.232 4.166-12.339.647-1.89 1.362-3.758 2.083-5.738.584.18 1.179.349 1.763.548.51.173 1 .406 1.514.567 5.396 1.691 10.796 3.368 16.192 5.059 6.183 1.939 12.363 3.889 18.544 5.833 3.514 1.105 7.029 2.208 10.544 3.311.866.271 1.734.535 2.715.838l.238-.717c2.43-7.257 4.839-14.521 7.302-21.768.696-2.047 1.569-4.034 2.829-5.84 2.127-3.052 4.861-5.459 8.259-7.104 4.556-2.206 9.351-2.883 14.351-1.807 6.864 1.477 11.848 5.319 14.945 11.378 2.089 4.087 2.633 8.434 1.75 12.933-.471 2.405-1.39 4.682-2.179 6.996-.099.289-.212.574-.308.864-1.159 3.487-2.304 6.978-3.479 10.459-.765 2.264-1.576 4.514-2.362 6.772-.089.255-.149.52-.232.814.229.09.406.171.59.229 5.416 1.711 10.831 3.427 16.251 5.127 5.886 1.845 11.781 3.666 17.667 5.513 4.356 1.367 8.704 2.761 13.058 4.138 1.194.378 2.394.74 3.625 1.12-.032.246-.027.408-.076.554-1.381 4.116-2.761 8.232-4.155 12.343-1.492 4.399-2.999 8.793-4.497 13.189-.835 2.449-1.668 4.899-2.501 7.349l-5.21 15.328c-.096.282-.188.565-.295.888.324.121.555.218.794.293 4.633 1.451 9.269 2.891 13.899 4.351 3.293 1.038 6.601 2.036 9.858 3.169 5.274 1.835 9.259 5.165 11.894 9.964 2.145 3.905 2.921 8.072 2.341 12.45-.616 4.647-2.666 8.65-6.075 11.993-3.329 3.264-7.357 5.254-12.013 6.007-2.848.46-5.704.415-8.507-.334a133.071 133.071 0 0 1-5.345-1.535c-3.487-1.087-6.958-2.22-10.439-3.325-2.994-.95-5.991-1.889-8.987-2.832-.298-.094-.597-.184-.942-.291-.103.205-.189.369-.267.536-.036.075-.055.158-.081.237-2.413 7.204-4.816 14.411-7.241 21.612-1.455 4.322-2.949 8.632-4.415 12.951-1.333 3.927-2.644 7.86-3.981 11.785-.277.811-.625 1.599-.942 2.404-.104.01-.194.044-.264.022-2.006-.649-4.005-1.323-6.018-1.953-6.268-1.964-12.544-3.904-18.812-5.869-4.221-1.323-8.431-2.679-12.649-4.011-3.785-1.195-7.574-2.378-11.362-3.565-.674-.211-1.351-.417-2.077-.641-.06.14-.158.336-.228.542-1.774 5.214-3.545 10.429-5.317 15.643-.868 2.556-1.679 5.131-2.621 7.661a20.185 20.185 0 0 1-5.153 7.757c-3.69 3.463-8.099 5.47-13.214 5.971a21.936 21.936 0 0 1-6.564-.36c-4.177-.855-7.8-2.715-10.762-5.653-4.954-4.916-7.007-10.831-6.121-17.672.243-1.875.836-3.663 1.484-5.444.808-2.224 1.506-4.485 2.252-6.73.465-1.4.919-2.804 1.396-4.199 1.099-3.21 2.209-6.416 3.313-9.623.098-.284.19-.57.298-.896-.274-.11-.473-.206-.682-.272-6.481-2.04-12.961-4.081-19.444-6.113-5.26-1.649-10.526-3.279-15.784-4.931a3514.53 3514.53 0 0 1-13.138-4.168c-.702-.224-1.39-.489-2.13-.751.045-.214.065-.401.124-.577 1.057-3.197 2.106-6.397 3.184-9.588 1.381-4.083 2.793-8.157 4.178-12.239 1.396-4.111 2.768-8.229 4.163-12.34 1.412-4.161 2.836-8.319 4.264-12.475.251-.731.543-1.448.835-2.224.312.081.585.14.85.221 3.031.933 6.063 1.861 9.09 2.804 4.035 1.257 8.068 2.523 12.098 3.794.46.145.889.378 1.349.521 4.317 1.339 8.678 1.622 13.093.438 3.432-.92 6.465-2.542 9.074-4.887 3.284-2.951 5.433-6.564 6.42-10.773 1.076-4.591.626-9.07-1.422-13.424z"/></g></svg>