<svg width="1440" height="839" fill="none" xmlns="http://www.w3.org/2000/svg"><mask id="a" style="mask-type:alpha" maskUnits="userSpaceOnUse" x="0" y="0" width="1440" height="839"><path d="M0 0h1440v838.948H0V0z" fill="#C6C2C2"/></mask><g mask="url(#a)" fill="#FF9012"><path d="M-132.368 590.058c-6.041-6.16-13.346-9.817-22.056-10.88a38.918 38.918 0 0 0-4.412-.27c-10.593-.08-21.188-.128-31.781-.193-3.007-.018-6.013-.059-9.019-.089-.372-.004-.744-.001-1.207-.001-.038-.505-.095-.897-.094-1.289.027-10.598.045-21.196.098-31.794.035-7.015.134-14.029.181-21.044.048-7.065.043-14.13.111-21.194.031-3.25.18-6.5.28-9.926 1.023 0 2.056-.022 3.086.006.902.025 1.801.153 2.702.157 9.453.042 18.905.059 28.358.102 10.833.049 21.666.118 32.498.176 6.158.033 12.316.064 18.474.092 1.517.007 3.034.001 4.749.001v-1.229c.032-12.456.028-24.912.119-37.367.025-3.519.364-7.029 1.41-10.443 1.768-5.768 4.838-10.826 9.362-15.014 6.068-5.617 13.319-8.971 21.82-9.697 11.668-.995 21.601 2.591 29.708 10.531 5.468 5.356 8.622 11.858 9.592 19.28.518 3.967.26 7.95.227 11.928-.004.498-.033.996-.033 1.494-.003 5.979.02 11.959-.01 17.938-.02 3.89-.122 7.779-.18 11.668-.006.441.038.882.06 1.379.412.029.735.071 1.058.073 9.496.063 18.991.135 28.487.178 10.312.047 20.625.052 30.937.101 7.633.036 15.266.118 22.9.173 2.094.014 4.189.002 6.342.002.08.398.173.649.172.899-.023 7.065-.044 14.13-.09 21.195-.05 7.559-.125 15.117-.187 22.676-.035 4.211-.066 8.422-.096 12.633-.065 8.781-.128 17.563-.19 26.345-.004.484-.001.969-.001 1.523.578.031.996.073 1.414.074 8.115.035 16.231.051 24.347.1 5.77.036 11.546.002 17.312.201 9.335.324 17.411 3.593 24.122 9.794 5.459 5.046 8.887 11.156 10.273 18.245 1.471 7.525.327 14.736-3.32 21.572-3.562 6.676-8.905 11.703-15.896 15.109-4.276 2.082-8.832 3.383-13.674 3.562-3.095.115-6.194.186-9.29.177-6.106-.019-12.21-.116-18.316-.165-5.25-.042-10.501-.064-15.752-.094-.522-.003-1.044-.001-1.648-.001-.055.368-.106.664-.142.962-.016.135-.003.272-.003.408-.032 12.365-.049 24.73-.102 37.094-.032 7.423-.131 14.845-.182 22.268-.046 6.747-.055 13.495-.108 20.243-.011 1.394-.149 2.788-.229 4.191-.158.065-.283.162-.406.161-3.526-.047-7.051-.136-10.578-.152-10.98-.047-21.961-.053-32.942-.103-7.394-.034-14.789-.124-22.184-.172-6.635-.043-13.27-.065-19.906-.094-1.181-.005-2.363-.001-3.634-.001-.02.247-.073.599-.076.952-.068 8.963-.13 17.925-.194 26.888-.031 4.392.039 8.788-.123 13.176-.189 5.122-1.535 10.003-4.089 14.539-4.03 7.157-9.968 12.395-17.82 15.628-3.381 1.391-6.92 2.238-10.606 2.589-7.078.674-13.807-.481-20.054-3.631-10.451-5.27-16.826-13.487-19.024-24.554-.602-3.034-.604-6.099-.514-9.181.111-3.848.027-7.701.027-11.551 0-2.401-.018-4.802.004-7.203.052-5.52.124-11.039.186-16.559.006-.488.001-.977.001-1.536-.493-.04-.859-.094-1.226-.097-11.357-.064-22.715-.13-34.073-.181-9.214-.041-18.429-.05-27.642-.098-7.682-.04-15.363-.111-23.044-.181-1.231-.011-2.462-.094-3.774-.147-.042-.353-.108-.654-.108-.955-.006-5.482-.029-10.963.001-16.444.039-7.015.134-14.03.181-21.045.048-7.065.056-14.13.103-21.195.048-7.151.118-14.302.193-21.452.013-1.257.098-2.513.154-3.861.538-.024 1.001-.063 1.464-.063 5.301-.004 10.601-.014 15.902 0 7.065.02 14.13.054 21.195.097.805.005 1.609.163 2.414.164 7.557.013 14.624-1.64 21.007-5.6 4.961-3.079 8.919-7.056 11.823-11.956 3.655-6.166 5.162-12.818 4.51-19.84-.711-7.659-3.784-14.41-9.329-20.202zM78.908 173.452c-1.783-8.224-6.022-14.929-12.885-20.104a37.014 37.014 0 0 0-3.623-2.393c-9.014-5.258-18.045-10.489-27.067-15.734-2.56-1.489-5.108-2.997-7.662-4.495-.316-.186-.636-.365-1.031-.592.244-.451.411-.813.627-1.148 5.841-9.044 11.674-18.093 17.537-27.125 3.88-5.978 7.816-11.924 11.708-17.895 3.919-6.015 7.793-12.055 11.728-18.06 1.811-2.762 3.722-5.466 5.69-8.346.874.502 1.769.989 2.634 1.518.757.463 1.456 1.012 2.224 1.457 8.059 4.667 16.131 9.313 24.19 13.98 9.235 5.35 18.458 10.715 27.688 16.072 5.247 3.045 10.495 6.088 15.744 9.129 1.293.749 2.594 1.488 4.06 2.328l.675-1.051c6.865-10.63 13.699-21.276 20.614-31.877 1.954-2.995 4.17-5.829 6.939-8.234 4.678-4.063 10.079-6.882 16.246-8.245 8.272-1.828 16.312-1.142 23.978 2.403 10.523 4.866 17.047 12.797 19.619 23.554 1.735 7.256.862 14.358-2.383 21.176-1.735 3.645-4.142 6.922-6.354 10.306-.277.423-.575.835-.848 1.26-3.285 5.109-6.547 10.231-9.856 15.326-2.152 3.314-4.374 6.589-6.558 9.884-.247.374-.452.772-.705 1.208.334.226.588.42.863.58 8.084 4.706 16.163 9.42 24.258 14.109 8.791 5.092 17.605 10.148 26.395 15.242 6.506 3.771 12.988 7.581 19.484 11.367 1.783 1.038 3.58 2.054 5.422 3.109-.151.379-.209.639-.347.852-3.898 6.027-7.795 12.055-11.712 18.07-4.192 6.436-8.406 12.859-12.608 19.288-2.342 3.582-4.679 7.166-7.017 10.75-4.876 7.473-9.751 14.947-14.625 22.422-.269.412-.533.828-.837 1.301.477.311.812.551 1.168.757 6.92 4.005 13.85 7.995 20.761 12.013 4.915 2.858 9.872 5.658 14.691 8.653 7.804 4.85 12.915 11.6 15.248 20.188 1.898 6.986 1.474 13.888-1.233 20.625-2.872 7.152-7.809 12.755-14.68 16.81-6.71 3.96-14.038 5.64-21.885 5.125-4.799-.315-9.408-1.436-13.647-3.654a221.481 221.481 0 0 1-8.039-4.401c-5.21-3.007-10.377-6.08-15.57-9.114-4.465-2.608-8.943-5.199-13.415-7.797-.445-.258-.892-.512-1.409-.808-.249.287-.455.516-.65.753-.087.107-.151.23-.226.346-6.815 10.552-13.617 21.112-20.45 31.653-4.102 6.328-8.262 12.623-12.38 18.941-3.743 5.745-7.455 11.507-11.205 17.248-.775 1.186-1.657 2.31-2.496 3.47-.171-.022-.331 0-.435-.062-2.989-1.767-5.955-3.571-8.961-5.311-9.362-5.42-18.747-10.805-28.108-16.227-6.304-3.652-12.576-7.351-18.872-11.015-5.65-3.288-11.31-6.557-16.968-9.833-1.008-.583-2.02-1.158-3.107-1.781-.152.201-.39.476-.587.776-4.978 7.627-9.951 15.256-14.926 22.884-2.438 3.739-4.791 7.53-7.338 11.201-2.974 4.285-6.804 7.798-11.478 10.423-7.374 4.142-15.327 5.709-23.815 4.625-3.654-.467-7.144-1.477-10.49-2.983-6.42-2.891-11.54-7.175-15.151-12.928-6.042-9.623-6.982-19.769-2.786-30.305 1.15-2.888 2.832-5.508 4.6-8.098 2.208-3.234 4.25-6.568 6.365-9.858 1.318-2.052 2.62-4.113 3.957-6.154 3.074-4.692 6.166-9.374 9.25-14.061.272-.415.536-.834.843-1.312-.399-.276-.682-.502-.995-.683-9.675-5.62-19.35-11.24-29.033-16.848-7.855-4.55-15.728-9.071-23.579-13.626a5703.548 5703.548 0 0 1-19.602-11.444c-1.047-.613-2.054-1.287-3.147-1.975.159-.322.268-.611.433-.869 3.003-4.688 5.993-9.383 9.028-14.053 3.884-5.976 7.816-11.925 11.707-17.897 3.92-6.015 7.804-12.049 11.723-18.064a6047.399 6047.399 0 0 1 11.941-18.239c.702-1.068 1.464-2.1 2.252-3.224.473.243.89.437 1.286.663 4.534 2.594 9.071 5.182 13.595 7.791 6.03 3.478 12.052 6.968 18.068 10.466.686.399 1.287.928 1.975 1.323 6.453 3.713 13.403 5.763 21.034 5.505 5.932-.2 11.5-1.66 16.672-4.425 6.51-3.48 11.45-8.426 14.747-14.747 3.596-6.894 4.675-14.169 3.114-21.835zM1373.83 693.682c6.63-5.593 10.63-12.426 11.91-20.632.22-1.375.33-2.772.37-4.162.27-10.002.51-20.006.77-30.01.08-2.838.18-5.676.26-8.515.01-.351.02-.702.02-1.14.54-.027.96-.073 1.37-.065 11.21.217 22.43.425 33.64.666 7.42.16 14.85.38 22.27.551 7.47.173 14.95.296 22.42.487 3.44.088 6.88.287 10.5.444-.02.966-.01 1.942-.06 2.915-.04.85-.2 1.697-.22 2.548-.21 8.926-.4 17.852-.62 26.778-.24 10.23-.51 20.458-.77 30.687-.15 5.815-.29 11.63-.43 17.444-.04 1.433-.06 2.866-.09 4.485l1.3.023c13.18.254 26.36.476 39.54.786 3.73.088 7.43.471 11.03 1.52 6.07 1.774 11.37 4.765 15.72 9.113 5.83 5.831 9.25 12.739 9.86 20.78.85 11.038-3.13 20.353-11.68 27.865-5.76 5.068-12.7 7.929-20.57 8.71-4.21.418-8.42.103-12.63 0-.52-.013-1.05-.049-1.58-.059-6.33-.11-12.65-.195-18.98-.333-4.12-.089-8.23-.255-12.34-.379-.47-.014-.94.019-1.46.032-.04.387-.09.691-.1.997-.24 8.966-.49 17.932-.7 26.898-.24 9.738-.43 19.477-.67 29.214-.17 7.208-.4 14.415-.59 21.623-.06 1.978-.08 3.956-.12 5.99-.42.067-.69.151-.96.145-7.47-.149-14.95-.296-22.42-.467-8-.183-16-.391-23.99-.586-4.46-.109-8.91-.214-13.37-.319l-27.87-.655c-.52-.012-1.03-.018-1.62-.028-.04.546-.09.939-.1 1.334-.18 7.663-.35 15.327-.55 22.99-.14 5.45-.21 10.904-.52 16.346-.51 8.809-4.12 16.378-10.8 22.603-5.44 5.065-11.97 8.191-19.49 9.372-7.99 1.254-15.6.043-22.77-3.525-7-3.484-12.22-8.62-15.7-15.284-2.13-4.075-3.42-8.402-3.52-12.977a183.45 183.45 0 0 1-.02-8.777c.13-5.765.34-11.529.5-17.294.14-4.957.26-9.915.39-14.873.01-.493.02-.986.03-1.557-.39-.058-.7-.112-1.02-.151-.14-.018-.29-.008-.43-.011-13.08-.253-26.17-.492-39.25-.765-7.85-.164-15.71-.392-23.56-.574-7.14-.165-14.28-.295-21.42-.468-1.47-.035-2.95-.19-4.43-.291-.07-.151-.17-.27-.16-.386.11-3.329.27-6.657.35-9.987.25-10.369.45-20.738.7-31.107.17-6.983.4-13.964.58-20.947.17-6.265.31-12.531.46-18.797.03-1.116.05-2.232.07-3.431-.26-.024-.63-.08-1.01-.089-9.48-.226-18.96-.447-28.44-.669-4.65-.109-9.3-.122-13.94-.354-5.42-.271-10.56-1.63-15.32-4.124-7.5-3.935-12.93-9.637-16.21-17.111-1.41-3.218-2.24-6.574-2.55-10.063-.59-6.695.76-13.029 4.21-18.872 5.76-9.774 14.57-15.646 26.32-17.522 3.22-.514 6.47-.46 9.73-.32 4.07.174 8.14.164 12.22.234 2.54.044 5.08.069 7.62.134 5.84.148 11.68.316 17.52.474.52.014 1.03.019 1.62.029.06-.465.12-.809.13-1.156.27-10.725.55-21.449.81-32.175.21-8.7.38-17.401.6-26.102.18-7.253.39-14.505.61-21.758.03-1.162.14-2.323.22-3.562.37-.033.69-.089 1.01-.084 5.8.093 11.6.17 17.4.298 7.43.163 14.85.379 22.27.551 7.47.172 14.95.307 22.43.479 7.56.175 15.13.37 22.69.569 1.33.036 2.66.139 4.09.216.01.508.04.946.04 1.384-.1 5.005-.18 10.011-.29 15.016-.15 6.672-.31 13.343-.49 20.014-.02.761-.2 1.518-.21 2.278-.15 7.135 1.47 13.839 5.54 19.938 3.17 4.741 7.31 8.551 12.44 11.381 6.46 3.563 13.47 5.107 20.91 4.618 8.12-.534 15.32-3.314 21.55-8.446zM620.352 99.573c-7.632-4.303-15.732-5.867-24.406-4.571a38.678 38.678 0 0 0-4.314.914c-10.189 2.74-20.369 5.512-30.554 8.267-2.89.782-5.787 1.542-8.681 2.313-.358.095-.714.197-1.158.32-.187-.475-.358-.836-.474-1.211-3.132-10.173-6.273-20.344-9.381-30.523-2.056-6.738-4.051-13.492-6.096-20.233-2.059-6.79-4.169-13.564-6.21-20.358-.938-3.126-1.764-6.282-2.688-9.596.981-.272 1.965-.568 2.963-.814.872-.216 1.773-.333 2.639-.569 9.083-2.473 18.158-4.97 27.242-7.443 10.409-2.834 20.824-5.648 31.236-8.473 5.919-1.606 11.837-3.214 17.754-4.825 1.458-.397 2.912-.806 4.558-1.262-.107-.343-.238-.76-.367-1.179-3.681-11.956-7.396-23.902-11.021-35.873-1.024-3.382-1.745-6.839-1.758-10.392-.022-6.002 1.417-11.67 4.51-16.89 4.148-7.002 10.106-12.147 18.048-15.104 10.9-4.057 21.499-3.259 31.644 2.2 6.843 3.684 11.807 9.082 14.949 15.943 1.68 3.668 2.619 7.556 3.773 11.38.144.48.264.965.413 1.442 1.779 5.736 3.584 11.465 5.336 17.21 1.139 3.735 2.201 7.492 3.305 11.238.125.424.298.836.468 1.307.403-.081.725-.128 1.036-.212 9.131-2.464 18.264-4.92 27.388-7.404 9.91-2.697 19.806-5.435 29.716-8.13 7.336-1.995 14.685-3.947 22.026-5.925 2.014-.542 4.02-1.111 6.086-1.684.195.36.359.576.433.817 2.083 6.783 4.168 13.565 6.229 20.354 2.205 7.263 4.385 14.533 6.578 21.8 1.221 4.048 2.447 8.095 3.672 12.142l7.667 25.32c.141.466.289.93.454 1.461.564-.123.977-.194 1.379-.304 7.798-2.125 15.59-4.268 23.392-6.379 5.548-1.5 11.08-3.07 16.672-4.41 9.054-2.173 17.778-1.185 26.065 2.979 6.742 3.387 11.852 8.337 15.294 14.768 3.654 6.826 4.705 14.047 3.242 21.574-1.428 7.35-5.057 13.594-10.75 18.72-3.483 3.134-7.468 5.593-12.06 7.053a228.404 228.404 0 0 1-8.862 2.64c-5.864 1.605-11.751 3.136-17.624 4.712-5.051 1.356-10.096 2.731-15.143 4.099-.502.136-1.002.277-1.581.438.056.367.096.665.15.96.024.133.078.261.118.392 3.654 11.868 7.323 23.733 10.956 35.607 2.181 7.128 4.297 14.274 6.461 21.407 1.966 6.484 3.969 12.959 5.928 19.446.405 1.34.688 2.713 1.029 4.08-.132.105-.223.231-.341.263-3.397.893-6.807 1.744-10.195 2.667-10.551 2.875-21.09 5.79-31.641 8.662-7.106 1.934-14.228 3.814-21.338 5.734-6.38 1.723-12.753 3.467-19.129 5.204-1.136.309-2.269.627-3.488.965.054.242.109.594.211.933 2.606 8.615 5.217 17.228 7.826 25.842 1.279 4.221 2.656 8.419 3.808 12.671 1.345 4.963 1.508 10.003.409 15.033-1.735 7.937-5.872 14.54-12.443 19.729-2.83 2.234-5.972 3.986-9.406 5.304-6.59 2.529-13.391 3.21-20.325 1.85-11.598-2.276-20.164-8.462-25.571-18.493-1.482-2.75-2.396-5.689-3.229-8.669-1.04-3.721-2.268-7.394-3.416-11.087-.715-2.303-1.448-4.601-2.142-6.91-1.595-5.308-3.171-10.621-4.756-15.932-.14-.47-.29-.938-.457-1.474-.484.093-.852.138-1.205.233-10.917 2.959-21.836 5.916-32.75 8.888-8.853 2.411-17.697 4.852-26.553 7.256a5655.166 5655.166 0 0 1-22.165 5.955c-1.185.316-2.391.565-3.666.863-.145-.328-.298-.599-.388-.888-1.639-5.256-3.294-10.508-4.899-15.773-2.053-6.739-4.052-13.493-6.097-20.234-2.059-6.789-4.158-13.568-6.217-20.357a5747.317 5747.317 0 0 1-6.208-20.628c-.361-1.209-.654-2.437-1.002-3.744.509-.166.942-.326 1.386-.45 5.085-1.413 10.168-2.833 15.259-4.228a5879.862 5879.862 0 0 1 20.367-5.544c.774-.209 1.592-.272 2.365-.485 7.255-1.997 13.544-5.462 18.488-10.958 3.843-4.272 6.456-9.139 7.783-14.611 1.669-6.887 1.134-13.668-1.584-20.23-2.965-7.157-7.926-12.815-14.972-16.896zM216.103 789.713c-3.114-7.863-8.404-13.864-16.034-17.97a37.812 37.812 0 0 0-3.973-1.832c-9.769-3.873-19.551-7.715-29.326-11.573-2.774-1.095-5.539-2.212-8.308-3.317-.342-.137-.688-.267-1.116-.433.168-.482.273-.864.431-1.226 4.283-9.791 8.558-19.586 12.864-29.368 2.851-6.475 5.761-12.926 8.623-19.396 2.883-6.517 5.717-13.052 8.617-19.561 1.335-2.995 2.778-5.946 4.248-9.079.946.367 1.91.717 2.852 1.113.824.346 1.605.786 2.437 1.113 8.728 3.428 17.467 6.833 26.195 10.262 10.002 3.93 19.996 7.878 29.995 11.816 5.683 2.238 11.368 4.474 17.054 6.708 1.401.551 2.807 1.089 4.393 1.704l.494-1.137c5.034-11.507 10.035-23.027 15.123-34.514 1.437-3.245 3.16-6.369 5.5-9.152 3.953-4.7 8.825-8.276 14.694-10.527 7.87-3.019 15.926-3.522 24.082-1.144 11.195 3.263 18.944 10.141 23.254 20.39 2.907 6.914 3.213 14.058 1.128 21.269-1.115 3.855-2.954 7.446-4.582 11.113-.204.459-.431.909-.631 1.369-2.405 5.529-4.785 11.068-7.216 16.586-1.582 3.59-3.238 7.15-4.854 10.726-.183.405-.32.829-.498 1.297.368.174.65.328.948.446 8.76 3.463 17.516 6.935 26.284 10.38 9.521 3.74 19.06 7.442 28.581 11.185 7.047 2.771 14.076 5.584 21.117 8.371 1.931.764 3.874 1.504 5.867 2.276-.088.396-.102.662-.203.893-2.86 6.525-5.718 13.052-8.599 19.569-3.082 6.972-6.189 13.935-9.283 20.903-1.724 3.882-3.444 7.765-5.165 11.648l-10.76 24.296c-.198.446-.39.896-.613 1.408.523.237.893.425 1.278.576 7.495 2.942 14.997 5.866 22.485 8.822 5.325 2.102 10.682 4.141 15.936 6.393 8.506 3.647 14.665 9.566 18.382 17.707 3.023 6.623 3.739 13.503 2.174 20.556-1.662 7.486-5.618 13.745-11.739 18.758-5.978 4.897-12.94 7.631-20.776 8.274-4.793.393-9.531-.039-14.082-1.609a225.643 225.643 0 0 1-8.666-3.167c-5.641-2.207-11.251-4.485-16.879-6.72-4.841-1.922-9.69-3.824-14.535-5.735-.482-.19-.966-.374-1.525-.591-.199.32-.364.576-.518.839-.068.118-.111.25-.166.375-4.998 11.424-9.981 22.853-14.998 34.269-3.011 6.852-6.086 13.681-9.114 20.527-2.754 6.224-5.473 12.461-8.234 18.682-.57 1.285-1.257 2.525-1.895 3.794-.173.003-.327.048-.44.003-3.244-1.307-6.469-2.654-9.726-3.933-10.139-3.981-20.296-7.924-30.435-11.907-6.828-2.682-13.632-5.417-20.454-8.113-6.121-2.419-12.252-4.818-18.379-7.224-1.091-.429-2.186-.849-3.362-1.304-.117.22-.308.527-.452.853-3.664 8.264-7.322 16.53-10.983 24.796-1.793 4.05-3.494 8.141-5.407 12.14-2.232 4.67-5.439 8.704-9.624 11.984-6.604 5.17-14.203 7.88-22.766 8.06-3.687.07-7.3-.41-10.852-1.41-6.819-1.91-12.581-5.39-17.094-10.55-7.551-8.618-10.148-18.503-7.735-29.526.661-3.022 1.892-5.857 3.212-8.675 1.649-3.518 3.119-7.111 4.667-10.672.964-2.221 1.912-4.448 2.897-6.66 2.265-5.086 4.55-10.165 6.825-15.247.201-.45.393-.903.618-1.42-.439-.214-.757-.395-1.095-.529-10.482-4.132-20.963-8.265-31.451-12.385-8.508-3.342-17.029-6.654-25.534-10.002a5523.41 5523.41 0 0 1-21.246-8.43c-1.134-.452-2.24-.969-3.433-1.489.104-.341.164-.643.284-.922 2.197-5.071 4.378-10.148 6.608-15.206 2.855-6.474 5.761-12.927 8.623-19.398 2.883-6.516 5.728-13.047 8.61-19.564a6198.953 6198.953 0 0 1 8.798-19.77c.517-1.157 1.101-2.288 1.694-3.515.507.171.951.302 1.379.467 4.906 1.897 9.814 3.788 14.712 5.702a6200.449 6200.449 0 0 1 19.57 7.689c.742.294 1.423.728 2.167 1.018 6.986 2.72 14.189 3.726 21.685 2.352 5.826-1.068 11.086-3.327 15.741-6.817 5.859-4.392 9.927-10.003 12.144-16.731 2.419-7.338 2.288-14.683-.514-22.027zM374.64 442.958c-7.783-4.055-15.935-5.358-24.557-3.783a38.602 38.602 0 0 0-4.279 1.053c-10.084 3.066-20.158 6.164-30.237 9.245-2.861.875-5.729 1.727-8.593 2.591-.354.106-.706.22-1.146.357-.204-.468-.388-.823-.517-1.195-3.497-10.066-7.004-20.13-10.477-30.203-2.298-6.668-4.536-13.354-6.823-20.025-2.303-6.719-4.656-13.423-6.94-20.147-1.051-3.094-1.99-6.221-3.033-9.503.971-.304 1.944-.631 2.932-.91.864-.243 1.76-.389 2.617-.653 8.988-2.764 17.968-5.552 26.957-8.316 10.301-3.167 20.609-6.315 30.913-9.473 5.857-1.795 11.713-3.593 17.569-5.393 1.443-.444 2.881-.9 4.509-1.408l-.408-1.167c-4.11-11.83-8.254-23.65-12.309-35.497-1.146-3.348-1.991-6.779-2.132-10.33-.239-5.998.994-11.709 3.897-17.026 3.894-7.131 9.663-12.465 17.493-15.675 10.747-4.406 21.37-3.949 31.705 1.181 6.972 3.46 12.128 8.695 15.516 15.451 1.811 3.612 2.89 7.468 4.181 11.253.161.474.299.955.465 1.427 1.985 5.676 3.995 11.344 5.953 17.028 1.274 3.697 2.471 7.418 3.709 11.126.14.42.328.825.515 1.29.4-.094.72-.15 1.028-.244 9.036-2.757 18.076-5.505 27.105-8.282 9.806-3.014 19.599-6.069 29.406-9.082 7.259-2.23 14.533-4.416 21.798-6.63 1.994-.607 3.978-1.24 6.023-1.879.207.354.379.565.461.803 2.327 6.711 4.656 13.422 6.961 20.141 2.465 7.188 4.906 14.384 7.36 21.575 1.367 4.007 2.738 8.013 4.108 12.018a123578.7 123578.7 0 0 0 8.577 25.059c.158.461.321.92.506 1.445.559-.141.97-.226 1.367-.348 7.716-2.375 15.427-4.768 23.148-7.128 5.491-1.679 10.963-3.425 16.503-4.945 8.971-2.463 17.725-1.756 26.158 2.138 6.86 3.169 12.145 7.951 15.818 14.267 3.898 6.705 5.209 13.888 4.019 21.458-1.163 7.392-4.564 13.749-10.07 19.054-3.367 3.245-7.261 5.831-11.798 7.438a228.242 228.242 0 0 1-8.761 2.924c-5.803 1.793-11.631 3.512-17.444 5.277-4.999 1.517-9.991 3.054-14.986 4.583-.497.152-.991.31-1.565.489.07.365.12.661.185.955.029.132.087.258.132.388 4.08 11.744 8.175 23.483 12.235 35.234 2.437 7.053 4.809 14.127 7.229 21.186 2.199 6.417 4.434 12.824 6.626 19.244.453 1.326.786 2.689 1.176 4.045-.128.109-.214.238-.332.273-3.363 1.002-6.74 1.963-10.093 2.994-10.441 3.213-20.868 6.465-31.309 9.675-7.032 2.162-14.083 4.27-21.119 6.418-6.314 1.927-12.621 3.875-18.93 5.816-1.124.346-2.245.7-3.451 1.077.062.24.13.59.244.926 2.915 8.526 5.835 17.05 8.754 25.575 1.43 4.178 2.958 8.328 4.263 12.541 1.524 4.917 1.868 9.949.951 15.011-1.447 7.988-5.344 14.72-11.724 20.118-2.747 2.324-5.825 4.176-9.208 5.604-6.496 2.739-13.269 3.639-20.247 2.503-11.673-1.901-20.458-7.808-26.223-17.659-1.581-2.701-2.601-5.609-3.541-8.561-1.173-3.684-2.534-7.316-3.813-10.97-.798-2.279-1.614-4.552-2.391-6.837-1.786-5.254-3.552-10.513-5.328-15.77-.157-.465-.324-.927-.51-1.458-.481.108-.846.165-1.195.272-10.805 3.308-21.61 6.615-32.411 9.936-8.761 2.695-17.512 5.419-26.276 8.107-7.306 2.241-14.622 4.453-21.937 6.665-1.173.354-2.369.641-3.633.98-.157-.323-.319-.589-.42-.875-1.828-5.2-3.671-10.395-5.465-15.606-2.295-6.669-4.537-13.354-6.823-20.026-2.303-6.719-4.645-13.426-6.948-20.145a5573.472 5573.472 0 0 1-6.948-20.416c-.406-1.197-.742-2.414-1.137-3.71.502-.182.929-.356 1.369-.494 5.031-1.576 10.06-3.158 15.097-4.717a6090.1 6090.1 0 0 1 20.155-6.196c.766-.234 1.582-.323 2.347-.56 7.178-2.23 13.339-5.895 18.082-11.547 3.686-4.393 6.122-9.342 7.25-14.854 1.421-6.937.641-13.697-2.313-20.167-3.221-7.057-8.383-12.552-15.572-16.404zM1215.53 149.186c-7.72-3.45-15.7-4.048-24.03-1.655-1.39.401-2.77.902-4.12 1.466-9.69 4.054-19.38 8.139-29.07 12.208-2.75 1.155-5.5 2.288-8.26 3.432-.34.141-.68.289-1.1.47-.22-.462-.41-.809-.55-1.178-3.77-9.998-7.56-19.992-11.31-30-2.49-6.624-4.91-13.272-7.38-19.901-2.49-6.676-5.03-13.332-7.51-20.015-1.13-3.075-2.16-6.195-3.3-9.463.93-.4 1.87-.822 2.82-1.197.83-.328 1.7-.559 2.52-.906 8.64-3.645 17.27-7.314 25.91-10.96 9.9-4.176 19.81-8.334 29.72-12.502 5.63-2.37 11.26-4.742 16.88-7.116 1.39-.585 2.77-1.182 4.34-1.85-.13-.338-.29-.748-.44-1.159-4.44-11.75-8.91-23.486-13.3-35.258-1.24-3.327-2.19-6.766-2.46-10.391-.45-6.125.53-12.087 3.16-17.798 3.52-7.659 8.93-13.646 16.43-17.644 10.29-5.487 20.64-5.98 30.88-1.658 6.91 2.915 12.12 7.813 15.67 14.429 1.9 3.537 3.09 7.39 4.49 11.152.17.47.32.95.5 1.42 2.14 5.636 4.31 11.261 6.43 16.908 1.37 3.673 2.68 7.378 4.02 11.065.15.418.35.816.55 1.276.38-.133.69-.22.99-.344 8.69-3.642 17.38-7.275 26.05-10.937 9.43-3.976 18.84-7.992 28.27-11.966 6.98-2.941 13.97-5.84 20.95-8.765 1.92-.802 3.83-1.63 5.79-2.47.22.344.39.544.48.78 2.51 6.667 5.03 13.333 7.52 20.008 2.67 7.143 5.31 14.295 7.96 21.442 1.48 3.981 2.96 7.961 4.45 11.942l9.27 24.9c.17.458.35.913.55 1.435.54-.195.93-.32 1.32-.48 7.41-3.132 14.82-6.281 22.25-9.398 5.27-2.217 10.53-4.5 15.86-6.56 8.64-3.334 17.18-3.402 25.53-.175 6.79 2.626 12.11 7.048 15.91 13.188 4.04 6.518 5.59 13.76 4.71 21.622-.86 7.68-3.93 14.501-9.08 20.435-3.16 3.63-6.85 6.632-11.2 8.688-2.78 1.315-5.59 2.59-8.42 3.789-5.57 2.362-11.18 4.651-16.77 6.985-4.8 2.007-9.6 4.033-14.4 6.052-.48.2-.95.406-1.51.642.09.368.15.667.22.962.03.132.09.257.14.385 4.41 11.664 8.83 23.323 13.21 34.995 2.64 7.007 5.21 14.04 7.83 21.055 2.37 6.376 4.79 12.739 7.16 19.118.49 1.318.86 2.685 1.29 4.038-.12.124-.2.264-.31.31-3.23 1.331-6.48 2.621-9.71 3.981-10.03 4.236-20.05 8.512-30.09 12.746-6.76 2.851-13.54 5.648-20.3 8.486-6.07 2.546-12.13 5.112-18.2 7.672-1.08.455-2.16.92-3.32 1.416.07.24.15.592.28.926 3.15 8.472 6.31 16.943 9.46 25.413 1.55 4.151 3.19 8.266 4.62 12.464a33.322 33.322 0 0 1 1.48 15.296c-1.11 8.315-4.65 15.566-10.65 21.673a37.19 37.19 0 0 1-8.75 6.575c-6.22 3.395-12.77 4.929-19.6 4.396-11.43-.891-20.19-6.15-26.17-15.722-1.63-2.624-2.73-5.512-3.76-8.451-1.28-3.669-2.73-7.267-4.12-10.895-.86-2.263-1.74-4.518-2.58-6.789-1.93-5.222-3.84-10.451-5.77-15.677-.17-.462-.34-.921-.55-1.448-.46.154-.81.246-1.15.387-10.38 4.367-20.77 8.733-31.15 13.113-8.42 3.553-16.83 7.136-25.26 10.683-7.02 2.957-14.06 5.885-21.09 8.813-1.13.47-2.28.872-3.5 1.334-.16-.317-.33-.575-.44-.859-1.97-5.163-3.95-10.319-5.89-15.496-2.48-6.626-4.91-13.273-7.39-19.902-2.49-6.676-5.01-13.337-7.5-20.013-2.53-6.757-5.03-13.523-7.52-20.291-.44-1.189-.81-2.406-1.25-3.698.48-.232.89-.449 1.32-.63 4.83-2.07 9.66-4.146 14.51-6.199 6.45-2.736 12.91-5.458 19.37-8.172.74-.309 1.53-.474 2.26-.786 6.9-2.935 12.76-7.247 17.16-13.467 3.42-4.835 5.61-10.126 6.5-15.876 1.12-7.236.11-14.092-3-20.454-3.4-6.94-8.62-12.104-15.76-15.4zM713.851 876.269c-7.541-4.192-15.585-5.624-24.238-4.17a39.084 39.084 0 0 0-4.306.994c-10.181 2.931-20.352 5.894-30.529 8.84-2.888.836-5.782 1.649-8.673 2.474-.357.102-.713.211-1.157.343-.18-.475-.346-.834-.456-1.21-2.983-10.17-5.976-20.337-8.934-30.513-1.959-6.736-3.855-13.49-5.801-20.23-1.96-6.787-3.971-13.56-5.913-20.353-.893-3.125-1.673-6.283-2.549-9.597.981-.29 1.964-.605 2.961-.87.871-.232 1.77-.365 2.635-.617 9.075-2.644 18.144-5.311 27.22-7.954 10.4-3.029 20.807-6.039 31.21-9.059 5.914-1.717 11.827-3.436 17.739-5.157 1.457-.424 2.91-.861 4.555-1.348-.102-.343-.227-.761-.349-1.178-3.507-11.953-7.047-23.895-10.497-35.863-.975-3.382-1.647-6.843-1.613-10.414.058-6.032 1.565-11.753 4.714-17.054 4.223-7.109 10.223-12.384 18.168-15.493 10.906-4.267 21.448-3.649 31.476 1.662 6.763 3.582 11.634 8.921 14.671 15.763 1.623 3.657 2.507 7.549 3.605 11.372.137.479.251.964.392 1.442 1.696 5.734 3.416 11.461 5.084 17.203 1.085 3.735 2.092 7.493 3.142 11.238.119.424.286.835.449 1.305.402-.088.723-.14 1.034-.23 9.123-2.636 18.248-5.262 27.365-7.918 9.901-2.883 19.79-5.806 29.692-8.687 7.33-2.133 14.672-4.222 22.007-6.337 2.012-.581 4.017-1.188 6.082-1.799.188.359.349.573.42.814 1.984 6.78 3.97 13.561 5.932 20.348 2.098 7.261 4.172 14.53 6.259 21.795 1.162 4.048 2.329 8.094 3.495 12.141l7.298 25.314c.134.466.274.93.432 1.461.563-.134.976-.213 1.377-.33 7.791-2.271 15.577-4.561 23.373-6.817 5.544-1.605 11.071-3.278 16.657-4.723 9.042-2.341 17.715-1.5 25.91 2.541 6.667 3.287 11.688 8.173 15.03 14.577 3.548 6.797 4.498 14.036 2.942 21.626-1.52 7.413-5.215 13.751-10.951 19.001-3.509 3.211-7.509 5.752-12.1 7.299a232.76 232.76 0 0 1-8.858 2.807c-5.859 1.716-11.741 3.356-17.609 5.043-5.046 1.45-10.087 2.92-15.13 4.382-.501.145-1.001.296-1.58.467.051.369.087.667.137.963.023.133.074.261.112.392 3.481 11.865 6.976 23.725 10.436 35.596 2.077 7.127 4.089 14.271 6.148 21.403 1.872 6.483 3.78 12.956 5.644 19.441.385 1.34.649 2.715.971 4.083-.133.108-.225.236-.344.27-3.394.956-6.8 1.871-10.185 2.858-10.542 3.072-21.073 6.185-31.616 9.255-7.1 2.067-14.215 4.08-21.319 6.134-6.375 1.842-12.743 3.706-19.114 5.562-1.135.33-2.267.67-3.485 1.031.051.242.1.595.198.934 2.48 8.613 4.965 17.228 7.448 25.838 1.217 4.22 2.533 8.41 3.624 12.67 1.273 4.96 1.369 10.02.207 15.1-1.832 8.01-6.038 14.71-12.65 20.04-2.846 2.3-5.998 4.11-9.434 5.5-6.594 2.65-13.375 3.46-20.259 2.21-11.517-2.09-19.963-8.15-25.213-18.14-1.439-2.74-2.31-5.68-3.1-8.66-.986-3.72-2.16-7.39-3.253-11.08-.682-2.3-1.382-4.6-2.042-6.91-1.518-5.31-3.016-10.62-4.523-15.93-.134-.47-.277-.94-.436-1.47-.483.1-.85.15-1.202.25-10.909 3.17-21.818 6.33-32.723 9.5-8.846 2.58-17.684 5.19-26.532 7.76-7.377 2.14-14.762 4.25-22.146 6.37-1.184.34-2.388.61-3.661.93-.14-.33-.289-.6-.375-.89-1.562-5.25-3.14-10.5-4.668-15.76-1.955-6.74-3.855-13.49-5.802-20.234-1.96-6.788-3.959-13.564-5.919-20.352a5698.383 5698.383 0 0 1-5.907-20.624c-.344-1.209-.619-2.438-.948-3.746.509-.176.942-.344 1.386-.476 5.081-1.509 10.16-3.024 15.247-4.515 6.78-1.987 13.564-3.961 20.35-5.925.774-.224 1.59-.301 2.362-.528 7.249-2.134 13.556-5.725 18.552-11.335 3.882-4.36 6.548-9.298 7.941-14.82 1.754-6.951 1.311-13.757-1.309-20.305-2.856-7.141-7.72-12.742-14.681-16.721zM873.632 352.653c-6.041-6.146-13.346-9.794-22.056-10.855a39.15 39.15 0 0 0-4.412-.269c-10.593-.08-21.188-.128-31.781-.192-3.007-.019-6.013-.06-9.019-.09-.372-.004-.744 0-1.207 0-.038-.505-.095-.896-.094-1.286.027-10.573.045-21.146.098-31.719.035-6.998.134-13.996.181-20.994.048-7.047.043-14.096.111-21.143.031-3.242.18-6.484.28-9.903 1.023 0 2.056-.021 3.086.007.902.025 1.801.152 2.702.156 9.453.042 18.905.059 28.358.102 10.833.049 21.666.118 32.498.176 6.158.033 12.316.063 18.474.092 1.517.006 3.034.001 4.749.001v-1.227c.032-12.426.028-24.852.119-37.277.025-3.511.364-7.013 1.41-10.419 1.768-5.754 4.838-10.799 9.362-14.977 6.068-5.604 13.319-8.951 21.82-9.674 11.668-.993 21.601 2.585 29.708 10.506 5.468 5.342 8.622 11.829 9.592 19.233.518 3.958.26 7.932.227 11.9-.004.497-.033.993-.033 1.49-.003 5.965.021 11.931-.01 17.896-.02 3.88-.122 7.76-.179 11.64-.007.439.037.879.06 1.375.411.029.734.071 1.057.073 9.496.063 18.991.135 28.487.178 10.31.047 20.62.051 30.94.101 7.63.036 15.26.118 22.9.172 2.09.015 4.19.002 6.34.002.08.397.17.647.17.897-.02 7.048-.04 14.097-.09 21.145a8529.4 8529.4 0 0 1-.19 22.621l-.09 12.603c-.07 8.761-.13 17.521-.19 26.282-.01.483 0 .967 0 1.519.58.032.99.073 1.41.075 8.12.034 16.23.05 24.35.1 5.77.035 11.54.001 17.31.2 9.33.323 17.41 3.584 24.12 9.771 5.46 5.033 8.89 11.129 10.27 18.201 1.48 7.507.33 14.701-3.32 21.52-3.56 6.66-8.9 11.676-15.89 15.073-4.28 2.078-8.83 3.375-13.68 3.554-3.09.114-6.19.186-9.29.176-6.1-.018-12.21-.115-18.31-.164-5.25-.042-10.5-.064-15.75-.094-.52-.003-1.05 0-1.65 0-.06.366-.11.662-.14.959-.02.134-.01.271-.01.407-.03 12.335-.04 24.67-.1 37.006-.03 7.404-.13 14.809-.18 22.214-.05 6.731-.05 13.463-.11 20.195-.01 1.391-.15 2.781-.23 4.181-.16.065-.28.162-.4.16-3.53-.046-7.05-.136-10.58-.151-10.98-.047-21.96-.053-32.94-.103-7.4-.034-14.792-.123-22.187-.172-6.635-.043-13.27-.064-19.906-.093-1.182-.005-2.363-.001-3.634-.001-.02.246-.073.597-.076.949-.068 8.942-.13 17.883-.194 26.824-.031 4.382.039 8.767-.123 13.144-.189 5.11-1.535 9.98-4.089 14.505-4.03 7.14-9.968 12.365-17.821 15.59-3.38 1.389-6.918 2.233-10.605 2.584-7.078.672-13.807-.48-20.054-3.623-10.451-5.257-16.826-13.455-19.024-24.496-.602-3.026-.604-6.084-.514-9.159.111-3.838.027-7.681.027-11.523 0-2.395-.018-4.79.004-7.185.052-5.507.124-11.013.186-16.52.006-.487.001-.974.001-1.532-.493-.04-.859-.095-1.226-.097-11.357-.064-22.715-.13-34.073-.18-9.214-.042-18.429-.051-27.642-.099-7.682-.04-15.363-.11-23.044-.18-1.231-.011-2.462-.094-3.774-.146-.042-.353-.108-.653-.108-.954-.006-5.468-.029-10.936.001-16.404.039-6.999.134-13.997.181-20.995.048-7.048.056-14.096.103-21.144.048-7.134.118-14.268.193-21.401.013-1.254.098-2.507.154-3.852.538-.024 1.001-.062 1.464-.063 5.301-.004 10.601-.014 15.902.001 7.065.019 14.13.053 21.195.096.805.005 1.609.163 2.414.164 7.557.012 14.624-1.636 21.007-5.587 4.961-3.071 8.919-7.039 11.823-11.927 3.655-6.152 5.162-12.788 4.51-19.793-.711-7.64-3.784-14.375-9.329-20.153z"/></g></svg>