<svg width="41" height="40" viewBox="0 0 41 40" fill="none" xmlns="http://www.w3.org/2000/svg">
<path d="M22.9002 20.405C22.8902 20.933 22.7236 21.4461 22.4216 21.8793C22.1196 22.3124 21.6957 22.6462 21.2038 22.8382C20.7119 23.0303 20.1741 23.072 19.6584 22.958C19.1428 22.844 18.6726 22.5795 18.3075 22.198C17.9424 21.8165 17.6988 21.3351 17.6075 20.815C17.5162 20.2949 17.5815 19.7594 17.7949 19.2764C18.0083 18.7933 18.3604 18.3846 18.8064 18.1019C19.2524 17.8191 19.7723 17.6752 20.3002 17.6883C21.0017 17.7143 21.6655 18.0125 22.1509 18.5196C22.6363 19.0268 22.905 19.703 22.9002 20.405Z" fill="white"/>
<path d="M24.8222 12.0552H15.7806C14.8859 12.0552 14.0279 12.4106 13.3953 13.0432C12.7626 13.6758 12.4072 14.5338 12.4072 15.4285V24.6735C12.4072 25.1165 12.4945 25.5552 12.664 25.9644C12.8335 26.3737 13.082 26.7456 13.3953 27.0588C13.7085 27.3721 14.0804 27.6205 14.4896 27.7901C14.8989 27.9596 15.3376 28.0468 15.7806 28.0468H24.8222C25.2652 28.0468 25.7039 27.9596 26.1131 27.7901C26.5224 27.6205 26.8943 27.3721 27.2075 27.0588C27.5208 26.7456 27.7693 26.3737 27.9388 25.9644C28.1083 25.5552 28.1956 25.1165 28.1956 24.6735V15.4452C28.1973 15.0009 28.1114 14.5607 27.9427 14.1497C27.774 13.7387 27.5258 13.365 27.2125 13.0501C26.8991 12.7351 26.5266 12.4852 26.1165 12.3144C25.7063 12.1437 25.2665 12.0556 24.8222 12.0552ZM20.3006 24.9268C19.4055 24.947 18.5247 24.7001 17.7706 24.2175C17.0165 23.735 16.4233 23.0386 16.0667 22.2174C15.7101 21.3962 15.6062 20.4874 15.7684 19.6069C15.9306 18.7265 16.3514 17.9143 16.9772 17.274C17.603 16.6338 18.4054 16.1945 19.2819 16.0123C20.1585 15.8301 21.0695 15.9131 21.8986 16.2509C22.7277 16.5887 23.4374 17.1659 23.937 17.9088C24.4367 18.6516 24.7037 19.5266 24.7039 20.4218C24.7112 21.0069 24.603 21.5877 24.3855 22.1309C24.168 22.6741 23.8456 23.1691 23.4366 23.5876C23.0276 24.006 22.54 24.3397 22.0019 24.5695C21.4638 24.7993 20.8857 24.9208 20.3006 24.9268ZM25.1939 15.9185C25.0839 15.9185 24.975 15.8966 24.8736 15.854C24.7722 15.8114 24.6804 15.7491 24.6034 15.6705C24.5264 15.592 24.4659 15.4989 24.4253 15.3966C24.3848 15.2944 24.365 15.1851 24.3672 15.0752C24.3672 14.8515 24.4561 14.637 24.6142 14.4788C24.7724 14.3207 24.9869 14.2318 25.2106 14.2318C25.4342 14.2318 25.6487 14.3207 25.8069 14.4788C25.965 14.637 26.0539 14.8515 26.0539 15.0752C26.0572 15.1942 26.0347 15.3126 25.9881 15.4222C25.9414 15.5318 25.8716 15.63 25.7834 15.71C25.6952 15.7901 25.5908 15.8502 25.4773 15.8862C25.3637 15.9222 25.2438 15.9332 25.1256 15.9185H25.1939Z" fill="white"/>
<path d="M20.3 3.33322C15.8797 3.31112 11.6317 5.04587 8.49049 8.15584C5.34926 11.2658 3.57211 15.4963 3.55001 19.9165C3.52791 24.3368 5.26266 28.5848 8.37264 31.7261C11.4826 34.8673 15.7131 36.6444 20.1333 36.6666C22.322 36.6775 24.4915 36.2572 26.5177 35.4298C28.544 34.6023 30.3875 33.3838 31.9429 31.8439C33.4983 30.304 34.7351 28.4728 35.5828 26.4549C36.4305 24.437 36.8724 22.2719 36.8833 20.0832C36.8943 17.8945 36.474 15.7251 35.6466 13.6988C34.8191 11.6725 33.6006 9.82908 32.0607 8.2737C30.5208 6.71831 28.6896 5.48147 26.6717 4.63378C24.6538 3.78609 22.4887 3.34416 20.3 3.33322ZM30.4217 24.5032C30.4263 25.2509 30.2825 25.9921 29.9986 26.6839C29.7146 27.3756 29.2962 28.0041 28.7675 28.5329C28.2389 29.0617 27.6105 29.4803 26.9189 29.7645C26.2272 30.0486 25.4861 30.1926 24.7383 30.1882H15.865C15.1173 30.1929 14.3761 30.049 13.6844 29.7651C12.9926 29.4811 12.3642 29.0627 11.8353 28.5341C11.3065 28.0054 10.8879 27.3771 10.6038 26.6854C10.3196 25.9938 10.1756 25.2526 10.18 24.5049V15.6299C10.1754 14.8822 10.3192 14.141 10.6031 13.4492C10.8871 12.7575 11.3055 12.129 11.8342 11.6002C12.3628 11.0714 12.9912 10.6528 13.6828 10.3686C14.3745 10.0845 15.1156 9.94046 15.8633 9.94488H24.7383C25.4859 9.94046 26.227 10.0844 26.9185 10.3685C27.61 10.6525 28.2383 11.071 28.7669 11.5996C29.2956 12.1283 29.714 12.7565 29.9981 13.4481C30.2821 14.1396 30.4261 14.8806 30.4217 15.6282V24.5032Z" fill="white"/>
</svg>
