<svg width="1439" height="907" fill="none" xmlns="http://www.w3.org/2000/svg"><mask id="a" style="mask-type:alpha" maskUnits="userSpaceOnUse" x="0" y="0" width="1440" height="907"><path d="M0 0h1440v907H0V0z" fill="#C6C2C2"/></mask><g mask="url(#a)" fill="#29B5BE"><path d="M11.093 198.544c-9.724-10.127-21.485-16.138-35.505-17.886a61.713 61.713 0 0 0-7.102-.444c-17.054-.131-34.108-.21-51.162-.316-4.84-.03-9.68-.099-14.519-.148-.598-.006-1.197 0-1.943 0-.061-.832-.152-1.476-.15-2.119.043-17.422.072-34.843.157-52.264.056-11.531.216-23.062.292-34.593.077-11.612.069-23.226.178-34.839.05-5.342.29-10.683.451-16.316 1.647 0 3.309-.036 4.968.01 1.451.042 2.9.251 4.349.258 15.217.07 30.434.097 45.65.167 17.44.081 34.878.195 52.316.29 9.913.055 19.826.105 29.739.151 2.442.012 4.885.002 7.645.002v-2.02c.051-20.475.045-40.95.191-61.424.041-5.786.586-11.555 2.27-17.167 2.847-9.481 7.789-17.795 15.072-24.68 9.768-9.233 21.44-14.747 35.125-15.939 18.784-1.636 34.774 4.259 47.824 17.31 8.802 8.804 13.879 19.492 15.44 31.693.835 6.521.419 13.069.366 19.608-.006.818-.053 1.636-.053 2.454-.004 9.83.034 19.66-.016 29.488-.033 6.394-.196 12.787-.288 19.18-.01.724.059 1.45.096 2.266.661.048 1.182.117 1.702.12 15.286.104 30.572.223 45.858.294 16.601.076 33.202.084 49.802.165 12.289.06 24.576.195 36.865.284 3.371.024 6.743.003 10.21.003.127.655.277 1.067.276 1.479-.037 11.613-.071 23.227-.145 34.84-.079 12.425-.202 24.85-.301 37.275-.056 6.922-.105 13.844-.155 20.766-.103 14.435-.205 28.871-.306 43.306-.006.797-.001 1.593-.001 2.504.931.052 1.603.12 2.276.122 13.065.057 26.129.083 39.194.165 9.29.058 18.587.002 27.869.33 15.027.532 28.029 5.906 38.831 16.1 8.789 8.293 14.306 18.337 16.538 29.99 2.368 12.37.526 24.224-5.345 35.46-5.735 10.974-14.335 19.239-25.589 24.836-6.884 3.424-14.219 5.561-22.013 5.856-4.981.189-9.97.307-14.955.291-9.828-.031-19.656-.19-29.485-.271-8.452-.07-16.905-.105-25.357-.155-.84-.005-1.68-.001-2.653-.001-.089.605-.17 1.092-.228 1.582-.026.22-.005.446-.006.67-.051 20.325-.078 40.651-.163 60.976-.052 12.201-.212 24.402-.293 36.603-.074 11.092-.088 22.184-.175 33.276-.018 2.292-.239 4.583-.368 6.889-.254.108-.455.267-.653.265-5.676-.077-11.352-.224-17.028-.249-17.677-.078-35.354-.088-53.03-.17-11.904-.055-23.808-.203-35.712-.283-10.681-.071-21.363-.106-32.045-.154-1.902-.009-3.805-.001-5.85-.001-.033.404-.117.984-.122 1.564-.109 14.733-.21 29.466-.313 44.198-.05 7.22.063 14.446-.197 21.659-.304 8.42-2.471 16.444-6.583 23.9-6.488 11.764-16.047 20.375-28.688 25.688-5.442 2.288-11.137 3.68-17.073 4.257-11.393 1.109-22.226-.791-32.282-5.969-16.823-8.662-27.086-22.17-30.624-40.362-.97-4.987-.972-10.026-.829-15.092.18-6.325.044-12.658.045-18.987 0-3.947-.03-7.894.006-11.84.083-9.074.2-18.147.3-27.22.008-.803 0-1.606 0-2.525-.792-.066-1.382-.156-1.972-.159-18.284-.106-36.568-.214-54.852-.298-14.833-.068-29.665-.083-44.498-.162-12.365-.065-24.73-.181-37.095-.297-1.982-.019-3.963-.154-6.076-.241-.067-.581-.173-1.076-.173-1.571-.011-9.01-.047-18.02.002-27.03.062-11.532.215-23.063.291-34.594.077-11.613.089-23.227.165-34.84.078-11.755.19-23.51.311-35.264.021-2.066.159-4.131.248-6.347.866-.039 1.611-.102 2.357-.103 8.533-.007 17.066-.023 25.598.001 11.373.031 22.747.087 34.12.159 1.296.008 2.591.267 3.887.269 12.164.021 23.541-2.695 33.816-9.206 7.986-5.06 14.358-11.598 19.033-19.652 5.883-10.137 8.31-21.071 7.26-32.614-1.145-12.589-6.092-23.686-15.018-33.207zM690.186 194.855c-2.871-13.518-9.699-24.538-20.754-33.044a59.45 59.45 0 0 0-5.837-3.932c-14.519-8.643-29.068-17.24-43.6-25.861-4.124-2.447-8.228-4.926-12.342-7.388-.508-.305-1.023-.6-1.661-.973.394-.741.663-1.337 1.011-1.886 9.409-14.865 18.804-29.738 28.248-44.583 6.251-9.825 12.591-19.599 18.859-29.414 6.313-9.885 12.553-19.813 18.893-29.682 2.917-4.54 5.995-8.985 9.164-13.717 1.409.823 2.85 1.624 4.244 2.494 1.22.761 2.346 1.664 3.582 2.395 12.981 7.67 25.985 15.306 38.965 22.978 14.876 8.791 29.734 17.611 44.601 26.416 8.451 5.005 16.905 10.006 25.361 15.004 2.083 1.231 4.178 2.445 6.54 3.826.316-.504.7-1.116 1.087-1.727 11.058-17.47 22.067-34.97 33.205-52.393 3.147-4.923 6.717-9.58 11.177-13.534 7.536-6.678 16.235-11.31 26.17-13.55 13.324-3.005 26.275-1.879 38.625 3.948 16.949 7.998 27.458 21.033 31.602 38.714 2.795 11.925 1.389 23.599-3.839 34.805-2.795 5.99-6.672 11.378-10.235 16.939-.446.696-.926 1.371-1.366 2.07-5.291 8.398-10.546 16.817-15.876 25.191-3.467 5.447-7.046 10.829-10.564 16.246-.398.613-.729 1.268-1.136 1.984.539.372.947.691 1.391.954 13.021 7.735 26.035 15.483 39.075 23.189 14.16 8.369 28.358 16.68 42.517 25.053 10.481 6.197 20.917 12.459 31.387 18.682 2.87 1.707 5.77 3.376 8.73 5.11-.24.622-.34 1.05-.56 1.401-6.28 9.906-12.55 19.813-18.86 29.7-6.76 10.578-13.544 21.134-20.313 31.701-3.771 5.888-7.537 11.778-11.303 17.669a461718.26 461718.26 0 0 0-23.558 36.853c-.433.678-.857 1.361-1.347 2.139.769.51 1.307.904 1.881 1.243 11.146 6.584 22.31 13.141 33.442 19.745 7.917 4.697 15.898 9.299 23.668 14.223 12.57 7.971 20.8 19.066 24.56 33.181 3.06 11.483 2.37 22.826-1.99 33.9-4.62 11.755-12.58 20.963-23.64 27.628-10.814 6.509-22.617 9.27-35.257 8.424-7.73-.518-15.156-2.36-21.982-6.007-4.364-2.331-8.695-4.725-12.951-7.232-8.392-4.943-16.714-9.994-25.079-14.98-7.194-4.287-14.406-8.546-21.61-12.816-.716-.424-1.437-.841-2.27-1.327-.401.472-.733.847-1.046 1.237-.141.175-.244.379-.365.569-10.977 17.343-21.934 34.699-32.941 52.025-6.607 10.4-13.308 20.746-19.941 31.132-6.03 9.441-12.009 18.913-18.05 28.348-1.248 1.95-2.669 3.796-4.02 5.703-.276-.036-.533 0-.701-.101-4.815-2.904-9.592-5.869-14.434-8.73-15.081-8.909-30.199-17.759-45.277-26.671-10.155-6.001-20.259-12.082-30.4-18.104-9.1-5.404-18.219-10.777-27.332-16.161-1.623-.959-3.255-1.904-5.004-2.927-.246.329-.63.782-.946 1.276-8.019 12.534-16.03 25.074-24.044 37.612-3.927 6.144-7.717 12.376-11.82 18.409-4.789 7.043-10.959 12.816-18.488 17.131-11.879 6.808-24.689 9.384-38.361 7.602-5.887-.767-11.508-2.427-16.897-4.902-10.343-4.752-18.589-11.794-24.407-21.249-9.733-15.817-11.246-32.494-4.487-49.809 1.853-4.747 4.561-9.054 7.41-13.311 3.555-5.315 6.846-10.794 10.251-16.203 2.124-3.372 4.221-6.76 6.375-10.114 4.952-7.712 9.932-15.408 14.899-23.111.439-.682.865-1.371 1.359-2.157-.642-.453-1.099-.824-1.602-1.122-15.586-9.236-31.17-18.475-46.767-27.692-12.653-7.477-25.334-14.909-37.981-22.396a8782.11 8782.11 0 0 1-31.576-18.809c-1.686-1.007-3.308-2.114-5.069-3.245.255-.53.431-1.006.697-1.429 4.838-7.705 9.654-15.423 14.543-23.098 6.256-9.823 12.59-19.6 18.858-29.415 6.313-9.886 12.571-19.804 18.883-29.69a9955.432 9955.432 0 0 1 19.236-29.979c1.129-1.754 2.357-3.45 3.626-5.299.762.399 1.434.719 2.072 1.091 7.304 4.262 14.612 8.516 21.899 12.804a9335.274 9335.274 0 0 1 29.105 17.204c1.104.655 2.073 1.524 3.18 2.174 10.396 6.102 21.59 9.472 33.883 9.048 9.554-.33 18.523-2.729 26.854-7.274 10.487-5.719 18.445-13.849 23.756-24.237 5.792-11.331 7.53-23.289 5.015-35.889zM1188.88 365.544c-9.7-10.127-21.44-16.138-35.44-17.886a61.336 61.336 0 0 0-7.08-.444c-17.03-.131-34.05-.21-51.07-.316-4.83-.03-9.66-.099-14.49-.148-.6-.006-1.2 0-1.94 0-.06-.832-.15-1.476-.15-2.119.04-17.422.07-34.843.16-52.264.05-11.531.21-23.062.29-34.593.07-11.612.07-23.226.17-34.839.05-5.342.29-10.683.45-16.316 1.65 0 3.31-.036 4.96.011 1.45.041 2.9.25 4.34.257 15.19.069 30.38.097 45.57.167 17.41.081 34.81.195 52.22.291 9.89.054 19.79.104 29.68.15 2.44.012 4.88.002 7.63.002v-2.02c.05-20.475.05-40.95.19-61.424.04-5.785.59-11.555 2.27-17.167 2.84-9.481 7.77-17.795 15.04-24.679 9.75-9.234 21.4-14.748 35.06-15.94 18.75-1.636 34.71 4.259 47.73 17.31 8.79 8.804 13.86 19.492 15.42 31.693.83 6.522.41 13.069.36 19.608-.01.818-.05 1.636-.05 2.454-.01 9.83.03 19.659-.02 29.488-.03 6.394-.19 12.787-.29 19.18-.01.724.06 1.449.1 2.266.66.048 1.18.117 1.7.12 15.26.104 30.51.223 45.77.294 16.57.076 33.14.084 49.71.165 12.26.06 24.53.195 36.79.284 3.37.024 6.74.003 10.2.003.12.655.27 1.067.27 1.479-.04 11.613-.07 23.227-.14 34.84-.08 12.425-.2 24.85-.3 37.275-.06 6.922-.11 13.844-.16 20.766l-.3 43.306c-.01.797-.01 1.593-.01 2.504.93.052 1.61.12 2.28.122 13.04.057 26.08.083 39.12.165 9.27.058 18.55.002 27.81.33 15 .532 27.98 5.906 38.76 16.1 8.77 8.293 14.28 18.337 16.51 29.99 2.36 12.37.52 24.224-5.34 35.46-5.72 10.974-14.3 19.239-25.54 24.836-6.87 3.424-14.19 5.561-21.97 5.856-4.97.189-9.95.307-14.93.291-9.81-.031-19.62-.19-29.43-.271-8.43-.07-16.87-.105-25.3-.155-.84-.005-1.68 0-2.65 0-.09.604-.17 1.091-.23 1.581-.03.22-.01.446-.01.67-.05 20.325-.07 40.651-.16 60.976-.05 12.201-.21 24.402-.29 36.603-.08 11.092-.09 22.184-.18 33.276-.01 2.292-.24 4.583-.36 6.889-.26.108-.46.267-.66.265-5.66-.077-11.33-.224-16.99-.249-17.65-.078-35.29-.088-52.93-.17-11.88-.055-23.77-.203-35.65-.283-10.66-.071-21.32-.106-31.98-.154-1.9-.009-3.8-.001-5.84-.001-.03.404-.12.984-.12 1.564-.11 14.733-.21 29.466-.31 44.198-.05 7.22.06 14.446-.2 21.659-.31 8.42-2.47 16.444-6.57 23.9-6.48 11.764-16.02 20.375-28.64 25.688-5.43 2.288-11.11 3.68-17.04 4.257-11.37 1.109-22.18-.791-32.22-5.969-16.79-8.662-27.03-22.17-30.57-40.362-.96-4.987-.97-10.026-.82-15.092.18-6.325.04-12.658.04-18.987 0-3.947-.03-7.894.01-11.84.08-9.074.2-18.147.3-27.22.01-.803 0-1.606 0-2.525-.79-.066-1.38-.156-1.97-.159-18.25-.106-36.5-.214-54.75-.298-14.8-.068-29.61-.083-44.41-.162-12.35-.065-24.69-.181-37.03-.297-1.98-.019-3.96-.154-6.06-.241-.07-.58-.18-1.076-.18-1.571-.01-9.01-.04-18.02 0-27.03.07-11.532.22-23.063.3-34.594.07-11.613.08-23.227.16-34.84.08-11.755.19-23.51.31-35.264.02-2.066.16-4.131.25-6.347.86-.039 1.61-.102 2.35-.103 8.52-.007 17.03-.023 25.55.001 11.35.031 22.7.087 34.06.159 1.29.008 2.58.267 3.88.269 12.14.021 23.49-2.695 33.75-9.206 7.97-5.06 14.33-11.598 19-19.652 5.87-10.137 8.29-21.071 7.24-32.614-1.14-12.589-6.08-23.686-14.99-33.207zM795.883 869.105c-9.706-10.111-21.445-16.113-35.439-17.857a61.254 61.254 0 0 0-7.089-.444c-17.022-.131-34.044-.209-51.066-.316-4.83-.03-9.661-.098-14.491-.147-.597-.006-1.195-.001-1.939-.001-.062-.83-.152-1.473-.15-2.115.043-17.394.071-34.788.156-52.182.056-11.513.216-23.025.292-34.538.077-11.595.069-23.19.177-34.785.05-5.334.289-10.666.451-16.291 1.644 0 3.302-.036 4.959.011 1.448.041 2.893.25 4.34.257 15.189.069 30.377.097 45.565.167 17.406.081 34.812.195 52.218.29 9.894.055 19.788.104 29.682.151 2.438.011 4.876.001 7.631.001 0-.587-.001-1.302.001-2.017.051-20.443.045-40.886.19-61.328.041-5.776.585-11.536 2.267-17.139 2.84-9.466 7.773-17.767 15.042-24.641 9.75-9.219 21.4-14.724 35.06-15.914 18.748-1.634 34.708 4.252 47.733 17.283 8.786 8.789 13.854 19.461 15.412 31.642.833 6.512.419 13.049.365 19.578-.006.817-.053 1.633-.053 2.45-.004 9.814.034 19.628-.016 29.442-.032 6.383-.195 12.766-.287 19.149-.011.723.059 1.447.096 2.263.66.048 1.179.116 1.699.12 15.257.104 30.514.223 45.772.293 16.569.077 33.139.084 49.709.165 12.26.06 24.53.195 36.79.283 3.37.025 6.74.004 10.2.004.12.654.27 1.065.27 1.476-.04 11.595-.07 23.191-.14 34.786-.08 12.405-.2 24.811-.3 37.216-.06 6.911-.11 13.822-.16 20.734l-.3 43.238c-.01.795-.01 1.59-.01 2.499.93.052 1.61.12 2.28.123 13.04.057 26.08.083 39.12.164 9.27.058 18.55.002 27.81.33 15 .531 27.98 5.896 38.76 16.074 8.77 8.28 14.28 18.309 16.51 29.944 2.36 12.35.52 24.185-5.34 35.404-5.72 10.957-14.3 19.208-25.54 24.797-6.87 3.418-14.19 5.552-21.97 5.847-4.97.188-9.95.306-14.93.29-9.81-.031-19.62-.19-29.43-.271-8.43-.069-16.87-.105-25.3-.154-.84-.005-1.68-.001-2.65-.001-.09.604-.17 1.09-.23 1.579-.03.22-.01.446-.01.669-.05 20.293-.07 40.587-.16 60.877-.05 12.19-.21 24.37-.29 36.55-.08 11.07-.09 22.15-.18 33.22-.01 2.29-.24 4.58-.36 6.88-.26.11-.46.27-.66.27-5.66-.08-11.33-.23-16.99-.25-17.65-.08-35.29-.09-52.93-.17-11.88-.06-23.765-.21-35.647-.29-10.661-.07-21.323-.1-31.984-.15-1.899-.01-3.798 0-5.839 0-.033.4-.118.98-.122 1.56-.109 14.71-.21 29.42-.313 44.13-.05 7.21.063 14.42-.197 21.62-.303 8.41-2.466 16.42-6.57 23.87-6.476 11.74-16.017 20.34-28.634 25.65-5.432 2.28-11.117 3.67-17.041 4.25-11.372 1.1-22.184-.79-32.222-5.96-16.791-8.65-27.035-22.14-30.567-40.3-.968-4.98-.97-10.01-.826-15.07.179-6.32.043-12.64.044-18.96 0-3.94-.03-7.88.006-11.82.083-9.06.199-18.12.299-27.18.009-.8.001-1.6.001-2.52-.791-.06-1.38-.15-1.969-.16-18.249-.1-36.499-.21-54.749-.29-14.805-.07-29.61-.09-44.414-.17-12.342-.06-24.684-.18-37.026-.29-1.978-.02-3.956-.16-6.065-.24-.066-.58-.172-1.08-.173-1.57-.01-9-.046-17.99.003-26.99.062-11.51.214-23.03.291-34.54.076-11.59.088-23.19.165-34.78.077-11.741.189-23.477.31-35.213.021-2.063.158-4.124.247-6.337.864-.039 1.608-.102 2.353-.103 8.516-.007 17.033-.023 25.55.001 11.352.031 22.704.087 34.056.159 1.293.008 2.586.267 3.879.269 12.142.02 23.497-2.692 33.753-9.192 7.971-5.052 14.331-11.58 18.997-19.621 5.873-10.121 8.295-21.039 7.247-32.563-1.143-12.569-6.081-23.649-14.99-33.155zM972.677-342.272c-12.293-7.072-25.341-9.644-39.313-7.513a61.14 61.14 0 0 0-6.949 1.503c-16.413 4.504-32.811 9.059-49.217 13.587-4.655 1.285-9.322 2.534-13.983 3.801-.576.157-1.15.324-1.866.527-.301-.781-.577-1.374-.763-1.992-5.045-16.72-10.105-33.436-15.111-50.167-3.313-11.074-6.526-22.176-9.82-33.255-3.317-11.159-6.716-22.295-10.002-33.461-1.512-5.138-2.842-10.325-4.331-15.771 1.581-.448 3.166-.933 4.773-1.339 1.405-.355 2.857-.547 4.251-.934 14.631-4.065 29.25-8.17 43.881-12.234 16.768-4.658 33.545-9.284 50.317-13.926 9.533-2.64 19.066-5.283 28.597-7.93 2.349-.653 4.691-1.325 7.342-2.075-.172-.564-.383-1.25-.59-1.937-5.929-19.651-11.914-39.286-17.753-58.962-1.65-5.559-2.811-11.24-2.832-17.08-.036-9.866 2.282-19.181 7.264-27.761 6.683-11.508 16.28-19.965 29.072-24.824 17.558-6.669 34.636-5.357 50.976 3.617 11.02 6.053 19.02 14.925 24.08 26.202 2.7 6.028 4.22 12.42 6.07 18.706.24.787.43 1.584.67 2.369 2.87 9.428 5.77 18.844 8.59 28.285 1.84 6.14 3.55 12.316 5.33 18.472.2.697.48 1.374.75 2.147.65-.133 1.17-.209 1.67-.346 14.71-4.051 29.42-8.088 44.12-12.17 15.96-4.434 31.9-8.934 47.87-13.363 11.81-3.279 23.65-6.487 35.47-9.738 3.25-.892 6.48-1.827 9.81-2.769.31.594.58.948.7 1.343 3.35 11.148 6.71 22.296 10.03 33.454 3.55 11.938 7.06 23.887 10.6 35.83 1.96 6.654 3.94 13.306 5.91 19.958 4.12 13.873 8.23 27.745 12.35 41.617.23.765.47 1.528.73 2.401.91-.203 1.58-.32 2.22-.5 12.56-3.493 25.12-7.015 37.68-10.484 8.94-2.467 17.85-5.045 26.86-7.25 14.58-3.57 28.64-1.947 41.99 4.896 10.86 5.568 19.09 13.703 24.63 24.273 5.89 11.22 7.58 23.089 5.22 35.459-2.3 12.082-8.14 22.344-17.31 30.768-5.61 5.152-12.03 9.194-19.43 11.593-4.73 1.533-9.48 3.001-14.27 4.339-9.45 2.639-18.93 5.155-28.39 7.746-8.14 2.228-16.27 4.489-24.4 6.736-.8.224-1.61.456-2.54.72.09.604.15 1.093.24 1.579.04.218.12.429.19.644 5.88 19.507 11.79 39.008 17.65 58.524 3.51 11.716 6.92 23.461 10.4 35.184 3.17 10.658 6.4 21.3 9.55 31.962.66 2.203 1.11 4.459 1.66 6.707-.21.172-.36.379-.55.431-5.47 1.468-10.96 2.867-16.42 4.384-17 4.725-33.97 9.515-50.97 14.236-11.44 3.179-22.92 6.269-34.37 9.425-10.28 2.832-20.54 5.698-30.81 8.553-1.83.508-3.66 1.032-5.62 1.587.09.397.17.976.34 1.533l12.6 42.474c2.06 6.938 4.28 13.837 6.14 20.826 2.17 8.158 2.43 16.442.66 24.709-2.8 13.044-9.46 23.898-20.05 32.426-4.55 3.672-9.62 6.553-15.15 8.718-10.61 4.157-21.57 5.276-32.74 3.04-18.68-3.74-32.48-13.908-41.19-30.395-2.38-4.52-3.86-9.35-5.2-14.249-1.67-6.114-3.65-12.151-5.5-18.222-1.15-3.785-2.33-7.562-3.45-11.356-2.57-8.725-5.11-17.458-7.66-26.188-.23-.772-.47-1.54-.74-2.421-.78.151-1.37.226-1.94.383-17.59 4.863-35.17 9.723-52.75 14.607-14.26 3.963-28.511 7.976-42.776 11.927a9103.117 9103.117 0 0 1-35.704 9.787c-1.909.52-3.851.928-5.905 1.419-.234-.539-.48-.985-.625-1.46-2.641-8.638-5.306-17.27-7.891-25.924-3.307-11.077-6.528-22.177-9.821-33.257-3.318-11.159-6.697-22.3-10.015-33.459a9814.24 9814.24 0 0 1-9.999-33.904c-.583-1.988-1.054-4.005-1.615-6.155.82-.272 1.517-.535 2.233-.738 8.191-2.324 16.379-4.656 24.579-6.95a9474.078 9474.078 0 0 1 32.807-9.111c1.247-.345 2.566-.448 3.811-.797 11.686-3.284 21.816-8.978 29.781-18.011 6.19-7.022 10.399-15.022 12.536-24.016 2.694-11.319 1.824-22.465-2.552-33.25-4.776-11.763-12.766-21.063-24.117-27.77zM184.82 816.014c-6.066-12.498-15.375-21.677-28.185-27.462a60.714 60.714 0 0 0-6.628-2.51c-16.211-5.138-32.44-10.225-48.659-15.339-4.603-1.451-9.194-2.938-13.79-4.407-.569-.182-1.141-.353-1.852-.572.205-.809.322-1.449.527-2.061 5.548-16.572 11.082-33.148 16.67-49.707 3.698-10.96 7.495-21.889 11.213-32.843 3.744-11.033 7.407-22.09 11.182-33.113 1.736-5.071 3.652-10.085 5.588-15.4 1.569.484 3.164.939 4.731 1.471 1.37.466 2.683 1.09 4.063 1.523 14.48 4.539 28.974 9.038 43.454 13.577 16.594 5.203 33.178 10.436 49.767 15.653 9.43 2.966 18.862 5.927 28.294 8.885 2.324.728 4.655 1.437 7.286 2.248.186-.56.411-1.242.639-1.923 6.521-19.476 12.987-38.969 19.598-58.416 1.867-5.495 4.21-10.827 7.59-15.674 5.71-8.189 13.047-14.651 22.164-19.064 12.229-5.919 25.095-7.737 38.515-4.849 18.418 3.963 31.794 14.275 40.106 30.535 5.606 10.967 7.066 22.634 4.697 34.707-1.266 6.454-3.731 12.564-5.849 18.773-.265.777-.568 1.542-.827 2.321-3.111 9.356-6.181 18.724-9.336 28.066-2.052 6.077-4.228 12.115-6.337 18.174-.239.686-.401 1.397-.625 2.185.615.24 1.089.458 1.584.615 14.536 4.591 29.066 9.198 43.612 13.758 15.797 4.952 31.616 9.839 47.411 14.795 11.692 3.669 23.361 7.409 35.044 11.105 3.205 1.015 6.425 1.986 9.729 3.005-.086.66-.073 1.097-.204 1.488-3.707 11.045-7.409 22.09-11.151 33.124-4.003 11.804-8.047 23.596-12.07 35.394-2.241 6.573-4.476 13.148-6.711 19.723-4.661 13.711-9.322 27.423-13.981 41.135-.257.756-.504 1.516-.792 2.383.871.323 1.49.585 2.13.786 12.433 3.894 24.876 7.759 37.301 11.676 8.836 2.786 17.714 5.465 26.456 8.506 14.154 4.923 24.846 13.86 31.919 26.739 5.755 10.478 7.838 21.661 6.281 33.41-1.652 12.471-7.155 23.214-16.302 32.186-8.934 8.76-19.743 14.1-32.238 16.12-7.643 1.24-15.309 1.12-22.83-.9-4.808-1.28-9.599-2.63-14.345-4.11-9.357-2.92-18.673-5.96-28.015-8.93-8.033-2.55-16.077-5.067-24.117-7.599-.799-.251-1.601-.494-2.528-.78-.276.549-.508.989-.718 1.438-.094.202-.145.424-.216.636-6.474 19.335-12.924 38.675-19.431 57.995-3.906 11.6-7.915 23.17-11.849 34.76-3.577 10.54-7.096 21.09-10.685 31.63-.742 2.17-1.677 4.29-2.528 6.45-.277.02-.518.12-.707.06-5.385-1.75-10.748-3.55-16.149-5.25-16.822-5.27-33.666-10.47-50.486-15.74-11.328-3.56-22.625-7.2-33.945-10.77-10.158-3.21-20.327-6.38-30.491-9.57-1.811-.56-3.626-1.12-5.575-1.72-.16.38-.424.91-.611 1.46-4.761 13.99-9.514 27.99-14.269 41.98-2.331 6.86-4.507 13.77-7.035 20.56-2.951 7.92-7.552 14.93-13.828 20.82-9.902 9.29-21.734 14.67-35.461 16.02-5.91.58-11.777.23-17.617-.97-11.208-2.29-20.932-7.28-28.879-15.17-13.295-13.19-18.806-29.06-16.428-47.42.652-5.04 2.243-9.83 3.981-14.61 2.171-5.97 4.043-12.04 6.044-18.06 1.248-3.76 2.467-7.53 3.749-11.27 2.947-8.62 5.926-17.22 8.89-25.83.262-.76.508-1.53.799-2.4-.735-.3-1.269-.55-1.83-.73-17.392-5.48-34.783-10.95-52.182-16.41-14.115-4.42-28.246-8.8-42.357-13.23-11.764-3.7-23.512-7.44-35.259-11.19-1.883-.6-3.729-1.31-5.715-2.01.12-.57.175-1.08.331-1.55 2.839-8.578 5.652-17.166 8.547-25.729 3.704-10.959 7.495-21.891 11.213-32.845 3.744-11.033 7.426-22.085 11.17-33.117a9630.556 9630.556 0 0 1 11.443-33.478c.673-1.961 1.456-3.886 2.242-5.969.838.217 1.568.376 2.28.595 8.133 2.501 16.27 4.993 24.395 7.524a9612.12 9612.12 0 0 1 32.467 10.18c1.233.389 2.385 1.016 3.619 1.399 11.587 3.595 23.288 4.353 35.138 1.176 9.211-2.47 17.35-6.821 24.351-13.114 8.812-7.92 14.581-17.616 17.229-28.912 2.888-12.321 1.681-24.339-3.816-36.026z"/></g></svg>