<svg width="1440" height="839" viewBox="0 0 1440 839" fill="none" xmlns="http://www.w3.org/2000/svg">
<mask id="mask0_4063_449" style="mask-type:alpha" maskUnits="userSpaceOnUse" x="-16" y="0" width="1557" height="879">
<path d="M-16 0H1541V879H-16V0Z" fill="#C6C2C2"/>
</mask>
<g mask="url(#mask0_4063_449)">
<path d="M-156.71 561.876C-163.242 555.215 -171.141 551.261 -180.558 550.111C-182.136 549.919 -183.737 549.831 -185.329 549.819C-196.783 549.733 -208.238 549.681 -219.693 549.611C-222.943 549.591 -226.194 549.546 -229.444 549.514C-229.846 549.51 -230.248 549.514 -230.749 549.514C-230.79 548.967 -230.851 548.543 -230.85 548.12C-230.821 536.66 -230.802 525.201 -230.745 513.742C-230.707 506.157 -230.6 498.573 -230.548 490.988C-230.497 483.35 -230.502 475.711 -230.429 468.072C-230.396 464.558 -230.235 461.045 -230.126 457.34C-229.02 457.34 -227.904 457.316 -226.789 457.347C-225.814 457.374 -224.842 457.511 -223.868 457.516C-213.647 457.561 -203.427 457.58 -193.206 457.626C-181.493 457.679 -169.78 457.754 -158.067 457.817C-151.409 457.853 -144.751 457.886 -138.093 457.916C-136.452 457.924 -134.812 457.917 -132.958 457.917C-132.958 457.53 -132.959 457.059 -132.957 456.588C-132.923 443.121 -132.927 429.653 -132.829 416.185C-132.802 412.38 -132.436 408.585 -131.304 404.894C-129.392 398.657 -126.073 393.189 -121.181 388.66C-114.62 382.586 -106.781 378.96 -97.5887 378.176C-84.9723 377.1 -74.2324 380.977 -65.4671 389.562C-59.5547 395.353 -56.1445 402.383 -55.0961 410.408C-54.5357 414.698 -54.8145 419.005 -54.8503 423.306C-54.8547 423.844 -54.8861 424.382 -54.8863 424.92C-54.8889 431.386 -54.8632 437.851 -54.8968 444.317C-54.9187 448.522 -55.0283 452.727 -55.0903 456.932C-55.0973 457.409 -55.0503 457.886 -55.0255 458.423C-54.5815 458.455 -54.2321 458.5 -53.8825 458.502C-43.6153 458.57 -33.3482 458.649 -23.0809 458.695C-11.9308 458.746 -0.780548 458.751 10.3695 458.804C18.6232 458.843 26.8766 458.932 35.1303 458.991C37.3947 459.007 39.6595 458.993 41.9881 458.993C42.0732 459.423 42.1743 459.695 42.1734 459.965C42.1485 467.604 42.1261 475.243 42.0762 482.882C42.0228 491.055 41.9407 499.228 41.8737 507.4C41.8364 511.954 41.8033 516.507 41.7701 521.06C41.7006 530.555 41.6322 540.05 41.5641 549.545C41.5603 550.069 41.5636 550.593 41.5636 551.192C42.1891 551.226 42.6407 551.271 43.0925 551.273C51.8675 551.31 60.6427 551.327 69.4175 551.381C75.6577 551.419 81.9022 551.382 88.1363 551.598C98.2297 551.948 106.963 555.483 114.218 562.188C120.121 567.643 123.827 574.25 125.326 581.915C126.917 590.051 125.68 597.848 121.736 605.239C117.885 612.458 112.108 617.894 104.549 621.576C99.9254 623.828 94.9987 625.234 89.7635 625.428C86.4175 625.552 83.0668 625.629 79.7186 625.619C73.1171 625.599 66.5159 625.494 59.9145 625.441C54.2374 625.395 48.5601 625.371 42.8829 625.339C42.3186 625.336 41.7544 625.339 41.1011 625.339C41.0414 625.736 40.9865 626.057 40.9476 626.379C40.9301 626.524 40.9444 626.672 40.944 626.819C40.9095 640.189 40.8917 653.558 40.8341 666.928C40.7995 674.953 40.6919 682.979 40.6373 691.004C40.5876 698.3 40.5781 705.596 40.52 712.892C40.508 714.4 40.3593 715.907 40.273 717.424C40.1019 717.494 39.9672 717.599 39.8341 717.598C36.0216 717.547 32.2094 717.451 28.3968 717.434C16.5239 717.383 4.65086 717.376 -7.22197 717.322C-15.2175 717.286 -23.2127 717.189 -31.2081 717.136C-38.3826 717.089 -45.5572 717.066 -52.7317 717.035C-54.0096 717.029 -55.2875 717.034 -56.661 717.034C-56.6832 717.3 -56.7401 717.681 -56.743 718.063C-56.8165 727.754 -56.8839 737.444 -56.9532 747.135C-56.9871 751.884 -56.9111 756.637 -57.0859 761.382C-57.2901 766.92 -58.7454 772.198 -61.5072 777.103C-65.8649 784.841 -72.2857 790.504 -80.7759 794C-84.4315 795.504 -88.2567 796.42 -92.2434 796.8C-99.8959 797.529 -107.172 796.279 -113.927 792.873C-125.226 787.175 -132.119 778.29 -134.496 766.324C-135.148 763.044 -135.149 759.729 -135.052 756.397C-134.932 752.237 -135.023 748.071 -135.023 743.908C-135.022 741.312 -135.043 738.716 -135.018 736.12C-134.963 730.152 -134.885 724.184 -134.817 718.215C-134.811 717.687 -134.816 717.159 -134.816 716.555C-135.349 716.511 -135.745 716.452 -136.141 716.45C-148.422 716.381 -160.703 716.309 -172.984 716.254C-182.946 716.209 -192.909 716.2 -202.872 716.148C-211.177 716.104 -219.482 716.028 -227.787 715.952C-229.119 715.94 -230.449 715.851 -231.869 715.794C-231.913 715.412 -231.985 715.086 -231.985 714.76C-231.992 708.834 -232.016 702.907 -231.983 696.98C-231.942 689.395 -231.839 681.811 -231.788 674.226C-231.736 666.587 -231.728 658.948 -231.677 651.309C-231.625 643.577 -231.549 635.845 -231.468 628.113C-231.454 626.754 -231.362 625.396 -231.301 623.939C-230.72 623.913 -230.219 623.871 -229.718 623.871C-223.987 623.866 -218.256 623.856 -212.525 623.871C-204.886 623.892 -197.247 623.929 -189.608 623.976C-188.737 623.981 -187.867 624.152 -186.997 624.153C-178.826 624.167 -171.185 622.38 -164.284 618.098C-158.92 614.769 -154.64 610.469 -151.5 605.171C-147.548 598.503 -145.918 591.311 -146.623 583.719C-147.392 575.438 -150.715 568.138 -156.71 561.876Z" fill="#FF9012"/>
<path d="M43.6404 159.94C41.7128 151.048 37.1296 143.799 29.709 138.203C28.4658 137.265 27.1448 136.406 25.7908 135.616C16.0451 129.93 6.27973 124.275 -3.47528 118.603C-6.24358 116.994 -8.99798 115.363 -11.7594 113.743C-12.1009 113.542 -12.4466 113.348 -12.8748 113.103C-12.61 112.615 -12.4295 112.224 -12.1962 111.862C-5.8805 102.083 0.426402 92.2989 6.76571 82.5334C10.9616 76.0697 15.2169 69.6403 19.4245 63.1834C23.662 56.6804 27.8508 50.1491 32.1064 43.6568C34.0642 40.6699 36.1303 37.7463 38.2574 34.6329C39.203 35.1748 40.1705 35.7014 41.1065 36.2738C41.9249 36.7743 42.6808 37.3685 43.511 37.8493C52.2244 42.8955 60.9529 47.9186 69.6659 52.9653C79.6511 58.7489 89.6243 64.5511 99.604 70.3432C105.277 73.6357 110.951 76.9256 116.627 80.2136C118.026 81.0238 119.432 81.822 121.017 82.7303C121.23 82.3993 121.487 81.9964 121.747 81.5946C129.169 70.1014 136.559 58.5892 144.036 47.1274C146.148 43.8888 148.544 40.825 151.538 38.2244C156.596 33.8311 162.436 30.7836 169.104 29.3098C178.048 27.3332 186.742 28.0743 195.031 31.9076C206.409 37.1688 213.462 45.7442 216.244 57.3754C218.12 65.2208 217.176 72.8999 213.667 80.2722C211.791 84.213 209.189 87.7569 206.797 91.4154C206.498 91.8732 206.176 92.3178 205.88 92.7777C202.329 98.302 198.801 103.84 195.223 109.349C192.896 112.933 190.494 116.473 188.132 120.036C187.865 120.44 187.643 120.871 187.369 121.342C187.732 121.587 188.006 121.796 188.303 121.97C197.044 127.058 205.779 132.155 214.532 137.225C224.037 142.73 233.568 148.197 243.072 153.705C250.107 157.783 257.115 161.902 264.139 165.995C266.066 167.118 268.01 168.216 270.001 169.357C269.838 169.767 269.775 170.048 269.626 170.279C265.411 176.795 261.198 183.313 256.962 189.817C252.43 196.776 247.873 203.72 243.33 210.672C240.798 214.545 238.271 218.42 235.743 222.295C230.471 230.376 225.2 238.457 219.929 246.539C219.638 246.985 219.354 247.434 219.025 247.946C219.541 248.282 219.903 248.541 220.288 248.764C227.77 253.095 235.263 257.409 242.736 261.753C248.05 264.843 253.409 267.871 258.62 271.11C267.058 276.353 272.584 283.652 275.107 292.938C277.159 300.492 276.701 307.954 273.774 315.239C270.668 322.972 265.33 329.029 257.901 333.414C250.645 337.696 242.722 339.512 234.238 338.956C229.049 338.615 224.065 337.403 219.483 335.004C216.554 333.471 213.646 331.896 210.789 330.247C205.156 326.995 199.57 323.672 193.955 320.392C189.127 317.572 184.286 314.77 179.449 311.961C178.969 311.682 178.485 311.408 177.926 311.088C177.657 311.398 177.434 311.645 177.224 311.902C177.129 312.017 177.06 312.151 176.979 312.276C169.61 323.685 162.256 335.103 154.867 346.501C150.432 353.343 145.935 360.149 141.482 366.981C137.435 373.192 133.421 379.423 129.366 385.63C128.529 386.912 127.574 388.127 126.668 389.382C126.483 389.358 126.31 389.382 126.197 389.315C122.965 387.405 119.759 385.454 116.508 383.572C106.385 377.712 96.2376 371.889 86.1163 366.027C79.3003 362.078 72.518 358.078 65.7108 354.117C59.6025 350.562 53.4811 347.027 47.3644 343.485C46.2749 342.854 45.1797 342.232 44.0054 341.56C43.8403 341.776 43.5823 342.074 43.3703 342.399C37.9878 350.645 32.6102 358.894 27.2312 367.142C24.5952 371.184 22.0511 375.284 19.2972 379.253C16.0822 383.886 11.9405 387.684 6.88694 390.522C-1.08674 395.001 -9.68544 396.696 -18.8631 395.523C-22.8146 395.019 -26.5875 393.927 -30.2046 392.298C-37.1476 389.172 -42.6826 384.54 -46.5879 378.32C-53.1207 367.914 -54.137 356.944 -49.5999 345.553C-48.3561 342.43 -46.5379 339.597 -44.6261 336.796C-42.2392 333.3 -40.0302 329.695 -37.7445 326.137C-36.3194 323.919 -34.9116 321.69 -33.4658 319.483C-30.1417 314.41 -26.7988 309.348 -23.4648 304.28C-23.1699 303.832 -22.8844 303.378 -22.5526 302.861C-22.9839 302.563 -23.2903 302.319 -23.628 302.123C-34.0897 296.047 -44.5503 289.969 -55.0199 283.906C-63.5131 278.987 -72.0256 274.097 -80.5149 269.172C-87.592 265.067 -94.6509 260.933 -101.71 256.799C-102.841 256.136 -103.93 255.408 -105.112 254.664C-104.941 254.316 -104.823 254.002 -104.645 253.724C-101.397 248.655 -98.1641 243.578 -94.8829 238.529C-90.6833 232.067 -86.4319 225.635 -82.2241 219.178C-77.9865 212.675 -73.7862 206.15 -69.5488 199.647C-65.2599 193.064 -60.9509 186.493 -56.6372 179.925C-55.8791 178.771 -55.0547 177.655 -54.203 176.439C-53.6918 176.702 -53.2408 176.912 -52.8123 177.157C-47.9098 179.961 -43.0039 182.759 -38.1125 185.58C-31.5926 189.34 -25.0816 193.114 -18.5763 196.897C-17.8349 197.328 -17.1848 197.9 -16.4415 198.328C-9.46337 202.342 -1.94914 204.559 6.30197 204.28C12.7153 204.063 18.7354 202.484 24.328 199.495C31.3672 195.732 36.709 190.384 40.2738 183.55C44.162 176.096 45.3282 168.23 43.6404 159.94Z" fill="#FF9012"/>
<path d="M896.29 610.437C889.758 603.792 881.859 599.847 872.442 598.701C870.864 598.508 869.263 598.421 867.671 598.409C856.217 598.323 844.762 598.271 833.307 598.201C830.057 598.182 826.806 598.137 823.556 598.105C823.154 598.101 822.752 598.104 822.251 598.104C822.21 597.559 822.149 597.136 822.15 596.714C822.179 585.282 822.198 573.85 822.255 562.418C822.293 554.851 822.4 547.285 822.452 539.719C822.503 532.098 822.498 524.477 822.571 516.857C822.604 513.351 822.765 509.847 822.874 506.15C823.98 506.15 825.096 506.127 826.211 506.157C827.186 506.184 828.158 506.322 829.132 506.326C839.353 506.372 849.573 506.39 859.794 506.436C871.507 506.489 883.22 506.564 894.933 506.626C901.591 506.662 908.249 506.695 914.907 506.725C916.548 506.733 918.188 506.727 920.042 506.727C920.042 506.34 920.041 505.87 920.043 505.401C920.077 491.965 920.073 478.529 920.171 465.094C920.198 461.298 920.564 457.512 921.696 453.829C923.608 447.608 926.927 442.153 931.819 437.635C938.38 431.575 946.219 427.957 955.411 427.175C968.028 426.102 978.768 429.97 987.533 438.534C993.445 444.311 996.855 451.325 997.904 459.331C998.464 463.61 998.185 467.907 998.15 472.198C998.145 472.735 998.114 473.271 998.114 473.808C998.111 480.258 998.137 486.709 998.103 493.158C998.081 497.354 997.972 501.549 997.91 505.744C997.903 506.219 997.95 506.695 997.974 507.231C998.419 507.263 998.768 507.308 999.117 507.31C1009.38 507.378 1019.65 507.456 1029.92 507.502C1041.07 507.553 1052.22 507.558 1063.37 507.611C1071.62 507.65 1079.88 507.739 1088.13 507.797C1090.39 507.813 1092.66 507.8 1094.99 507.8C1095.07 508.229 1095.17 508.5 1095.17 508.77C1095.15 516.39 1095.13 524.011 1095.08 531.632C1095.02 539.785 1094.94 547.938 1094.87 556.092C1094.84 560.634 1094.8 565.176 1094.77 569.719C1094.7 579.191 1094.63 588.663 1094.56 598.136C1094.56 598.659 1094.56 599.181 1094.56 599.779C1095.19 599.813 1095.64 599.857 1096.09 599.859C1104.87 599.897 1113.64 599.914 1122.42 599.967C1128.66 600.005 1134.9 599.969 1141.14 600.184C1151.23 600.533 1159.96 604.059 1167.22 610.748C1173.12 616.191 1176.83 622.782 1178.33 630.428C1179.92 638.545 1178.68 646.324 1174.74 653.697C1170.88 660.898 1165.11 666.322 1157.55 669.995C1152.93 672.241 1148 673.644 1142.76 673.837C1139.42 673.961 1136.07 674.038 1132.72 674.028C1126.12 674.008 1119.52 673.904 1112.91 673.85C1107.24 673.805 1101.56 673.781 1095.88 673.749C1095.32 673.745 1094.75 673.748 1094.1 673.748C1094.04 674.145 1093.99 674.465 1093.95 674.786C1093.93 674.931 1093.94 675.079 1093.94 675.225C1093.91 688.563 1093.89 701.901 1093.83 715.238C1093.8 723.245 1093.69 731.251 1093.64 739.257C1093.59 746.536 1093.58 753.815 1093.52 761.093C1093.51 762.597 1093.36 764.1 1093.27 765.614C1093.1 765.684 1092.97 765.789 1092.83 765.787C1089.02 765.737 1085.21 765.64 1081.4 765.624C1069.52 765.573 1057.65 765.566 1045.78 765.512C1037.78 765.476 1029.79 765.379 1021.79 765.327C1014.62 765.28 1007.44 765.257 1000.27 765.226C998.99 765.22 997.713 765.225 996.339 765.225C996.317 765.49 996.26 765.871 996.257 766.251C996.184 775.919 996.116 785.587 996.047 795.254C996.013 799.992 996.089 804.733 995.914 809.467C995.71 814.992 994.255 820.257 991.493 825.15C987.135 832.87 980.714 838.52 972.224 842.007C968.568 843.508 964.743 844.421 960.757 844.8C953.104 845.527 945.828 844.281 939.073 840.883C927.774 835.199 920.88 826.335 918.504 814.397C917.852 811.125 917.851 807.818 917.948 804.494C918.068 800.344 917.977 796.188 917.977 792.035C917.978 789.445 917.957 786.855 917.982 784.265C918.037 778.311 918.115 772.357 918.183 766.403C918.189 765.877 918.184 765.35 918.184 764.747C917.651 764.703 917.255 764.645 916.859 764.642C904.578 764.573 892.297 764.502 880.016 764.447C870.054 764.402 860.091 764.392 850.128 764.341C841.823 764.297 833.518 764.222 825.213 764.145C823.881 764.133 822.551 764.044 821.131 763.987C821.087 763.606 821.015 763.282 821.015 762.957C821.008 757.044 820.984 751.131 821.017 745.219C821.058 737.652 821.161 730.086 821.212 722.519C821.264 714.898 821.272 707.277 821.323 699.656C821.375 691.943 821.451 684.23 821.532 676.516C821.546 675.161 821.638 673.806 821.699 672.352C822.28 672.326 822.781 672.285 823.282 672.284C829.013 672.28 834.744 672.269 840.475 672.284C848.114 672.305 855.753 672.342 863.392 672.389C864.263 672.394 865.133 672.564 866.003 672.566C874.174 672.579 881.815 670.797 888.716 666.525C894.08 663.204 898.36 658.914 901.5 653.629C905.452 646.977 907.082 639.802 906.377 632.228C905.608 623.967 902.285 616.684 896.29 610.437Z" fill="#FF9012"/>
<path d="M717.29 987.876C710.758 981.215 702.859 977.261 693.442 976.111C691.864 975.919 690.263 975.831 688.671 975.819C677.217 975.733 665.762 975.681 654.307 975.611C651.057 975.591 647.806 975.546 644.556 975.514C644.154 975.51 643.752 975.514 643.251 975.514C643.21 974.967 643.149 974.543 643.15 974.12C643.179 962.661 643.198 951.201 643.255 939.742C643.293 932.158 643.4 924.573 643.452 916.988C643.503 909.35 643.498 901.711 643.571 894.072C643.604 890.558 643.765 887.045 643.874 883.34C644.98 883.34 646.096 883.316 647.211 883.347C648.186 883.374 649.158 883.512 650.132 883.516C660.353 883.562 670.574 883.58 680.794 883.626C692.507 883.679 704.22 883.754 715.933 883.817C722.591 883.853 729.249 883.886 735.907 883.916C737.548 883.924 739.189 883.918 741.043 883.918C741.043 883.53 741.042 883.059 741.043 882.588C741.077 869.121 741.073 855.653 741.171 842.186C741.198 838.38 741.564 834.585 742.696 830.894C744.608 824.657 747.927 819.189 752.819 814.66C759.38 808.587 767.219 804.96 776.411 804.176C789.028 803.1 799.768 806.977 808.533 815.562C814.445 821.353 817.856 828.383 818.904 836.408C819.464 840.698 819.186 845.005 819.15 849.306C819.145 849.844 819.114 850.382 819.114 850.921C819.111 857.386 819.137 863.852 819.103 870.317C819.081 874.522 818.972 878.727 818.91 882.933C818.903 883.409 818.95 883.886 818.975 884.423C819.419 884.455 819.768 884.5 820.118 884.502C830.385 884.57 840.652 884.649 850.919 884.695C862.069 884.746 873.22 884.751 884.37 884.804C892.623 884.844 900.877 884.932 909.13 884.991C911.395 885.007 913.66 884.993 915.988 884.993C916.073 885.424 916.174 885.695 916.173 885.965C916.149 893.605 916.126 901.244 916.076 908.883C916.023 917.055 915.941 925.228 915.874 933.401C915.836 937.954 915.803 942.507 915.77 947.06C915.701 956.555 915.632 966.05 915.564 975.546C915.56 976.069 915.564 976.593 915.564 977.192C916.189 977.227 916.641 977.271 917.093 977.273C925.868 977.31 934.643 977.328 943.418 977.381C949.658 977.42 955.902 977.383 962.136 977.599C972.23 977.948 980.963 981.483 988.219 988.188C994.122 993.643 997.827 1000.25 999.326 1007.92C1000.92 1016.05 999.68 1023.85 995.736 1031.24C991.885 1038.46 986.108 1043.89 978.549 1047.58C973.926 1049.83 968.999 1051.23 963.764 1051.43C960.418 1051.55 957.067 1051.63 953.719 1051.62C947.117 1051.6 940.516 1051.49 933.915 1051.44C928.237 1051.4 922.56 1051.37 916.883 1051.34C916.319 1051.34 915.754 1051.34 915.101 1051.34C915.041 1051.74 914.987 1052.06 914.948 1052.38C914.93 1052.52 914.944 1052.67 914.944 1052.82C914.91 1066.19 914.892 1079.56 914.834 1092.93C914.8 1100.95 914.692 1108.98 914.637 1117C914.588 1124.3 914.578 1131.6 914.52 1138.89C914.508 1140.4 914.359 1141.91 914.273 1143.42C914.102 1143.49 913.967 1143.6 913.834 1143.6C910.022 1143.55 906.21 1143.45 902.397 1143.43C890.524 1143.38 878.651 1143.38 866.778 1143.32C858.783 1143.29 850.787 1143.19 842.792 1143.14C835.617 1143.09 828.443 1143.07 821.268 1143.03C819.991 1143.03 818.713 1143.03 817.339 1143.03C817.317 1143.3 817.26 1143.68 817.257 1144.06C817.184 1153.75 817.116 1163.44 817.047 1173.14C817.013 1177.88 817.089 1182.64 816.914 1187.38C816.71 1192.92 815.255 1198.2 812.493 1203.1C808.135 1210.84 801.714 1216.5 793.224 1220C789.569 1221.5 785.743 1222.42 781.757 1222.8C774.104 1223.53 766.828 1222.28 760.073 1218.87C748.774 1213.18 741.881 1204.29 739.504 1192.32C738.853 1189.04 738.851 1185.73 738.948 1182.4C739.068 1178.24 738.977 1174.07 738.978 1169.91C738.978 1167.31 738.957 1164.72 738.982 1162.12C739.038 1156.15 739.116 1150.18 739.183 1144.22C739.189 1143.69 739.184 1143.16 739.184 1142.55C738.651 1142.51 738.255 1142.45 737.859 1142.45C725.578 1142.38 713.297 1142.31 701.016 1142.25C691.054 1142.21 681.091 1142.2 671.128 1142.15C662.823 1142.1 654.518 1142.03 646.213 1141.95C644.881 1141.94 643.551 1141.85 642.131 1141.79C642.087 1141.41 642.016 1141.09 642.015 1140.76C642.008 1134.83 641.984 1128.91 642.017 1122.98C642.058 1115.4 642.161 1107.81 642.212 1100.23C642.264 1092.59 642.272 1084.95 642.323 1077.31C642.376 1069.58 642.451 1061.85 642.532 1054.11C642.546 1052.75 642.639 1051.4 642.699 1049.94C643.28 1049.91 643.781 1049.87 644.282 1049.87C650.013 1049.87 655.744 1049.86 661.475 1049.87C669.114 1049.89 676.753 1049.93 684.393 1049.98C685.263 1049.98 686.133 1050.15 687.003 1050.15C695.174 1050.17 702.815 1048.38 709.716 1044.1C715.08 1040.77 719.36 1036.47 722.5 1031.17C726.452 1024.5 728.082 1017.31 727.377 1009.72C726.608 1001.44 723.285 994.138 717.29 987.876Z" fill="#FF9012"/>
<path d="M1476.64 490.562C1483.81 484.514 1488.14 477.125 1489.52 468.253C1489.76 466.766 1489.88 465.256 1489.92 463.753C1490.22 452.937 1490.48 442.121 1490.76 431.305C1490.84 428.235 1490.94 425.167 1491.04 422.097C1491.05 421.718 1491.05 421.338 1491.06 420.865C1491.64 420.836 1492.09 420.786 1492.54 420.795C1504.66 421.029 1516.79 421.254 1528.91 421.515C1536.94 421.687 1544.96 421.925 1552.99 422.111C1561.07 422.298 1569.15 422.43 1577.24 422.637C1580.95 422.732 1584.67 422.948 1588.59 423.117C1588.57 424.162 1588.57 425.216 1588.52 426.268C1588.47 427.188 1588.31 428.104 1588.29 429.024C1588.06 438.675 1587.85 448.327 1587.62 457.978C1587.35 469.038 1587.06 480.098 1586.78 491.158C1586.62 497.445 1586.47 503.732 1586.32 510.019C1586.28 511.569 1586.26 513.118 1586.22 514.869C1586.63 514.876 1587.13 514.883 1587.63 514.893C1601.88 515.169 1616.13 515.408 1630.38 515.743C1634.41 515.838 1638.41 516.252 1642.3 517.387C1648.87 519.305 1654.59 522.539 1659.3 527.24C1665.6 533.545 1669.3 541.014 1669.96 549.709C1670.88 561.643 1666.58 571.715 1657.34 579.838C1651.1 585.317 1643.6 588.411 1635.09 589.256C1630.54 589.708 1625.99 589.367 1621.44 589.255C1620.87 589.241 1620.3 589.202 1619.73 589.192C1612.89 589.073 1606.05 588.98 1599.2 588.832C1594.75 588.735 1590.31 588.556 1585.86 588.422C1585.35 588.406 1584.85 588.442 1584.28 588.456C1584.24 588.875 1584.18 589.204 1584.18 589.534C1583.92 599.229 1583.65 608.923 1583.41 618.618C1583.16 629.147 1582.95 639.677 1582.7 650.206C1582.51 657.999 1582.26 665.792 1582.05 673.585C1581.99 675.724 1581.97 677.863 1581.92 680.062C1581.47 680.134 1581.18 680.225 1580.89 680.219C1572.81 680.058 1564.73 679.899 1556.64 679.714C1548 679.516 1539.35 679.291 1530.7 679.08C1525.89 678.963 1521.07 678.849 1516.25 678.736C1506.2 678.499 1496.16 678.263 1486.11 678.027C1485.56 678.014 1485 678.008 1484.37 677.997C1484.32 678.587 1484.27 679.013 1484.26 679.439C1484.06 687.725 1483.88 696.012 1483.67 704.298C1483.51 710.19 1483.44 716.088 1483.1 721.971C1482.55 731.496 1478.65 739.68 1471.42 746.411C1465.54 751.887 1458.48 755.267 1450.35 756.544C1441.71 757.9 1433.48 756.591 1425.73 752.733C1418.16 748.966 1412.51 743.413 1408.75 736.207C1406.45 731.801 1405.05 727.123 1404.94 722.175C1404.87 719.013 1404.85 715.847 1404.92 712.686C1405.06 706.452 1405.29 700.22 1405.47 693.987C1405.62 688.626 1405.75 683.265 1405.88 677.904C1405.9 677.372 1405.91 676.839 1405.92 676.222C1405.5 676.158 1405.16 676.101 1404.82 676.058C1404.67 676.039 1404.51 676.05 1404.35 676.047C1390.21 675.773 1376.06 675.515 1361.91 675.219C1353.42 675.042 1344.93 674.795 1336.44 674.599C1328.72 674.42 1321 674.279 1313.28 674.093C1311.68 674.054 1310.09 673.887 1308.49 673.778C1308.42 673.615 1308.31 673.486 1308.31 673.36C1308.43 669.761 1308.61 666.162 1308.69 662.562C1308.96 651.351 1309.18 640.139 1309.45 628.927C1309.64 621.377 1309.88 613.829 1310.08 606.279C1310.26 599.505 1310.42 592.73 1310.58 585.955C1310.61 584.748 1310.63 583.541 1310.65 582.244C1310.37 582.218 1309.97 582.158 1309.56 582.148C1299.31 581.904 1289.06 581.665 1278.8 581.425C1273.78 581.307 1268.75 581.293 1263.73 581.042C1257.87 580.75 1252.32 579.28 1247.18 576.583C1239.07 572.328 1233.19 566.163 1229.64 558.082C1228.12 554.602 1227.22 550.974 1226.89 547.202C1226.25 539.962 1227.71 533.113 1231.43 526.796C1237.67 516.228 1247.19 509.878 1259.9 507.85C1263.38 507.294 1266.89 507.353 1270.41 507.504C1274.81 507.693 1279.22 507.682 1283.63 507.757C1286.38 507.804 1289.12 507.832 1291.87 507.902C1298.18 508.062 1304.5 508.244 1310.81 508.415C1311.37 508.43 1311.93 508.435 1312.57 508.446C1312.63 507.944 1312.69 507.571 1312.7 507.196C1313 495.6 1313.3 484.004 1313.58 472.407C1313.8 463 1313.99 453.592 1314.23 444.184C1314.42 436.342 1314.66 428.5 1314.89 420.659C1314.92 419.401 1315.04 418.146 1315.13 416.807C1315.53 416.772 1315.88 416.71 1316.22 416.716C1322.49 416.816 1328.77 416.9 1335.04 417.038C1343.06 417.214 1351.09 417.448 1359.11 417.634C1367.19 417.82 1375.28 417.966 1383.36 418.152C1391.54 418.341 1399.72 418.552 1407.9 418.768C1409.34 418.806 1410.78 418.917 1412.32 419.001C1412.33 419.55 1412.37 420.024 1412.36 420.497C1412.26 425.909 1412.17 431.322 1412.05 436.733C1411.89 443.947 1411.71 451.161 1411.52 458.374C1411.5 459.196 1411.31 460.014 1411.29 460.836C1411.13 468.552 1412.88 475.8 1417.29 482.395C1420.71 487.521 1425.19 491.64 1430.74 494.701C1437.72 498.553 1445.3 500.222 1453.35 499.693C1462.12 499.116 1469.91 496.11 1476.64 490.562Z" fill="#FF9012"/>
<path d="M654.755 79.5511C646.502 74.8989 637.744 73.207 628.365 74.6089C626.794 74.8437 625.232 75.1856 623.701 75.5973C612.684 78.5603 601.677 81.5571 590.665 84.5361C587.54 85.3815 584.407 86.2028 581.278 87.0363C580.892 87.1393 580.507 87.2496 580.026 87.3828C579.824 86.8693 579.639 86.4792 579.514 86.0728C576.127 75.0735 572.731 64.0769 569.371 53.0704C567.147 45.7852 564.99 38.4819 562.779 31.1931C560.553 23.8526 558.271 16.5268 556.065 9.18077C555.05 5.80112 554.158 2.38864 553.158 -1.19438C554.219 -1.48851 555.283 -1.80812 556.362 -2.07491C557.305 -2.3082 558.279 -2.43468 559.215 -2.68948C569.036 -5.36369 578.849 -8.06409 588.67 -10.7377C599.925 -13.8016 611.187 -16.8447 622.445 -19.8991C628.844 -21.6353 635.243 -23.3745 641.641 -25.1158C643.218 -25.5448 644.79 -25.9873 646.569 -26.4803C646.454 -26.8518 646.312 -27.3032 646.173 -27.7552C642.193 -40.6822 638.176 -53.5994 634.257 -66.5429C633.149 -70.2002 632.37 -73.9374 632.355 -77.7792C632.332 -84.2694 633.887 -90.3973 637.232 -96.042C641.717 -103.613 648.159 -109.176 656.746 -112.373C668.531 -116.76 679.992 -115.897 690.961 -109.993C698.36 -106.011 703.727 -100.175 707.125 -92.7558C708.941 -88.7901 709.957 -84.5853 711.204 -80.4502C711.36 -79.9327 711.49 -79.4082 711.651 -78.8919C713.575 -72.6897 715.526 -66.4948 717.42 -60.2845C718.652 -56.2449 719.8 -52.1824 720.994 -48.1323C721.129 -47.6736 721.316 -47.2286 721.5 -46.7198C721.936 -46.8074 722.284 -46.8573 722.62 -46.948C732.493 -49.6129 742.368 -52.2681 752.234 -54.9539C762.948 -57.8706 773.649 -60.8309 784.364 -63.7449C792.296 -65.902 800.242 -68.0119 808.179 -70.1507C810.357 -70.7375 812.526 -71.3528 814.76 -71.9721C814.97 -71.5818 815.148 -71.3487 815.228 -71.0887C817.48 -63.7548 819.735 -56.4216 821.964 -49.0811C824.348 -41.2278 826.704 -33.367 829.075 -25.5102C830.396 -21.1329 831.721 -16.7568 833.046 -12.3806C835.809 -3.25464 838.573 5.87109 841.337 14.9967C841.489 15.5003 841.648 16.002 841.827 16.5764C842.437 16.4429 842.884 16.3656 843.318 16.2473C851.749 13.9496 860.175 11.6324 868.611 9.35043C874.61 7.72767 880.591 6.03155 886.637 4.58095C896.427 2.23234 905.86 3.30023 914.82 7.80229C922.11 11.4649 927.635 16.8168 931.357 23.7703C935.308 31.1513 936.444 38.9591 934.862 47.097C933.318 55.0452 929.395 61.7957 923.238 67.3375C919.473 70.727 915.164 73.3858 910.199 74.9641C907.025 75.9729 903.833 76.9382 900.617 77.8187C894.276 79.5547 887.911 81.2099 881.561 82.9142C876.099 84.3799 870.645 85.8672 865.187 87.3458C864.645 87.4928 864.104 87.6455 863.477 87.8192C863.539 88.2164 863.581 88.5383 863.64 88.8578C863.667 89.0016 863.724 89.1402 863.768 89.2812C867.719 102.114 871.686 114.943 875.614 127.782C877.972 135.489 880.261 143.215 882.6 150.928C884.726 157.939 886.891 164.94 889.009 171.954C889.447 173.403 889.753 174.887 890.123 176.366C889.98 176.479 889.882 176.615 889.753 176.649C886.08 177.615 882.393 178.536 878.73 179.534C867.322 182.642 855.927 185.793 844.518 188.899C836.835 190.99 829.134 193.023 821.446 195.099C814.548 196.962 807.657 198.848 800.763 200.725C799.535 201.06 798.31 201.404 796.992 201.769C797.05 202.031 797.109 202.412 797.22 202.778C800.038 212.093 802.86 221.406 805.682 230.72C807.064 235.284 808.554 239.823 809.8 244.42C811.254 249.787 811.43 255.236 810.242 260.675C808.366 269.256 803.892 276.396 796.787 282.006C793.728 284.422 790.33 286.317 786.618 287.742C779.492 290.476 772.138 291.213 764.641 289.742C752.101 287.281 742.839 280.592 736.993 269.746C735.39 266.773 734.401 263.595 733.501 260.373C732.377 256.35 731.048 252.379 729.808 248.385C729.034 245.895 728.241 243.41 727.491 240.914C725.766 235.175 724.063 229.429 722.349 223.687C722.197 223.179 722.035 222.674 721.855 222.094C721.331 222.194 720.933 222.243 720.552 222.346C708.747 225.545 696.942 228.742 685.141 231.955C675.568 234.562 666.006 237.202 656.43 239.801C648.448 241.969 640.456 244.104 632.464 246.24C631.183 246.582 629.879 246.85 628.501 247.173C628.344 246.819 628.178 246.525 628.081 246.213C626.309 240.53 624.519 234.852 622.784 229.158C620.564 221.872 618.403 214.569 616.192 207.28C613.965 199.94 611.696 192.61 609.469 185.269C607.215 177.839 604.984 170.403 602.758 162.965C602.366 161.658 602.05 160.331 601.674 158.917C602.224 158.737 602.692 158.564 603.173 158.431C608.671 156.902 614.167 155.368 619.671 153.859C627.007 151.847 634.348 149.851 641.693 147.865C642.53 147.639 643.415 147.571 644.25 147.341C652.094 145.181 658.895 141.435 664.241 135.492C668.396 130.873 671.221 125.61 672.656 119.694C674.461 112.247 673.882 104.915 670.943 97.82C667.737 90.0816 662.373 83.9637 654.755 79.5511Z" fill="#FF9012"/>
<path d="M217.661 825.765C214.294 817.263 208.575 810.774 200.324 806.334C198.942 805.591 197.495 804.936 196.028 804.354C185.466 800.167 174.889 796.012 164.32 791.84C161.32 790.656 158.331 789.449 155.337 788.254C154.966 788.106 154.593 787.965 154.13 787.785C154.311 787.265 154.425 786.851 154.596 786.46C159.227 775.873 163.849 765.283 168.505 754.706C171.588 747.705 174.734 740.73 177.829 733.734C180.946 726.688 184.01 719.622 187.146 712.584C188.589 709.346 190.149 706.155 191.739 702.767C192.762 703.164 193.804 703.542 194.823 703.97C195.714 704.345 196.558 704.821 197.458 705.174C206.895 708.881 216.343 712.563 225.781 716.27C236.596 720.519 247.402 724.788 258.213 729.046C264.358 731.466 270.505 733.884 276.652 736.299C278.167 736.894 279.688 737.477 281.403 738.142C281.559 737.783 281.747 737.348 281.937 736.912C287.38 724.47 292.787 712.013 298.288 699.594C299.843 696.085 301.706 692.707 304.236 689.699C308.51 684.617 313.778 680.75 320.123 678.316C328.633 675.051 337.343 674.508 346.162 677.079C358.267 680.607 366.645 688.044 371.305 699.126C374.449 706.601 374.779 714.325 372.525 722.123C371.32 726.291 369.331 730.174 367.57 734.139C367.35 734.635 367.105 735.121 366.888 735.619C364.288 741.597 361.714 747.586 359.086 753.553C357.376 757.434 355.585 761.283 353.838 765.15C353.64 765.588 353.492 766.046 353.299 766.552C353.697 766.741 354.002 766.907 354.325 767.035C363.796 770.779 373.263 774.533 382.744 778.257C393.039 782.302 403.353 786.305 413.647 790.352C421.267 793.348 428.867 796.389 436.48 799.402C438.568 800.229 440.669 801.029 442.823 801.864C442.729 802.292 442.714 802.579 442.604 802.829C439.512 809.885 436.422 816.941 433.307 823.988C429.974 831.527 426.614 839.055 423.269 846.589C421.405 850.787 419.545 854.986 417.685 859.184C413.806 867.941 409.928 876.697 406.05 885.454C405.836 885.937 405.628 886.423 405.388 886.976C405.953 887.232 406.353 887.436 406.77 887.599C414.873 890.78 422.985 893.942 431.081 897.138C436.839 899.411 442.631 901.616 448.312 904.051C457.509 907.993 464.168 914.393 468.187 923.196C471.457 930.357 472.231 937.796 470.538 945.422C468.741 953.517 464.463 960.284 457.846 965.705C451.382 971 443.854 973.956 435.381 974.65C430.199 975.075 425.076 974.609 420.155 972.911C417.009 971.826 413.878 970.696 410.785 969.486C404.686 967.101 398.62 964.637 392.534 962.221C387.301 960.143 382.058 958.085 376.818 956.02C376.298 955.815 375.775 955.615 375.17 955.381C374.955 955.727 374.776 956.004 374.61 956.288C374.536 956.415 374.489 956.558 374.43 956.694C369.027 969.045 363.639 981.403 358.214 993.746C354.958 1001.16 351.634 1008.54 348.359 1015.94C345.381 1022.67 342.441 1029.41 339.456 1036.14C338.839 1037.53 338.097 1038.87 337.407 1040.24C337.22 1040.25 337.054 1040.3 336.931 1040.25C333.424 1038.83 329.936 1037.38 326.416 1035.99C315.452 1031.69 304.47 1027.43 293.508 1023.12C286.125 1020.22 278.767 1017.26 271.391 1014.35C264.773 1011.73 258.144 1009.14 251.519 1006.54C250.339 1006.07 249.155 1005.62 247.884 1005.13C247.757 1005.36 247.551 1005.7 247.395 1006.05C243.434 1014.98 239.478 1023.92 235.52 1032.86C233.581 1037.24 231.742 1041.66 229.674 1045.99C227.26 1051.04 223.793 1055.39 219.267 1058.94C212.127 1064.53 203.911 1067.47 194.652 1067.66C190.665 1067.74 186.759 1067.21 182.918 1066.14C175.545 1064.07 169.315 1060.3 164.435 1054.73C156.27 1045.41 153.463 1034.72 156.072 1022.8C156.787 1019.53 158.117 1016.47 159.545 1013.42C161.328 1009.62 162.918 1005.73 164.591 1001.88C165.634 999.482 166.658 997.074 167.723 994.682C170.173 989.183 172.643 983.691 175.103 978.196C175.321 977.71 175.528 977.22 175.771 976.661C175.296 976.43 174.953 976.233 174.587 976.089C163.253 971.621 151.92 967.152 140.581 962.698C131.382 959.084 122.169 955.503 112.973 951.883C105.306 948.865 97.6532 945.817 90.0003 942.768C88.7734 942.28 87.578 941.72 86.288 941.158C86.4 940.789 86.465 940.463 86.5955 940.161C88.9704 934.678 91.3291 929.188 93.7403 923.719C96.8263 916.719 99.9686 909.742 103.064 902.746C106.18 895.7 109.257 888.638 112.374 881.592C115.528 874.461 118.704 867.337 121.886 860.216C122.445 858.964 123.076 857.742 123.717 856.415C124.265 856.6 124.745 856.741 125.209 856.92C130.513 858.971 135.82 861.016 141.115 863.085C148.175 865.843 155.227 868.617 162.276 871.399C163.079 871.716 163.815 872.186 164.62 872.499C172.173 875.441 179.961 876.529 188.066 875.043C194.366 873.888 200.053 871.446 205.086 867.672C211.421 862.923 215.819 856.856 218.217 849.582C220.832 841.648 220.691 833.706 217.661 825.765Z" fill="#FF9012"/>
<path d="M436.244 503.612C427.829 499.228 419.014 497.819 409.692 499.522C408.13 499.807 406.58 500.199 405.066 500.66C394.162 503.975 383.269 507.325 372.371 510.657C369.278 511.602 366.177 512.524 363.08 513.457C362.697 513.573 362.317 513.695 361.841 513.844C361.62 513.337 361.422 512.953 361.282 512.551C357.501 501.667 353.709 490.787 349.954 479.894C347.469 472.685 345.05 465.456 342.577 458.242C340.087 450.977 337.542 443.729 335.073 436.459C333.936 433.114 332.921 429.732 331.793 426.183C332.843 425.855 333.895 425.501 334.963 425.2C335.898 424.936 336.867 424.779 337.793 424.494C347.511 421.505 357.221 418.49 366.94 415.502C378.078 412.078 389.223 408.674 400.365 405.259C406.698 403.318 413.03 401.374 419.362 399.428C420.922 398.948 422.477 398.455 424.237 397.905C424.109 397.538 423.951 397.091 423.796 396.644C419.351 383.852 414.871 371.072 410.487 358.262C409.248 354.643 408.334 350.933 408.181 347.094C407.923 340.608 409.257 334.434 412.395 328.685C416.605 320.974 422.843 315.206 431.309 311.735C442.93 306.971 454.415 307.465 465.591 313.012C473.129 316.753 478.704 322.414 482.367 329.719C484.325 333.624 485.492 337.794 486.887 341.886C487.062 342.398 487.211 342.918 487.39 343.429C489.537 349.566 491.71 355.694 493.828 361.84C495.205 365.838 496.499 369.861 497.838 373.87C497.989 374.324 498.193 374.763 498.395 375.266C498.827 375.164 499.173 375.103 499.506 375.002C509.277 372.02 519.05 369.049 528.814 366.047C539.416 362.787 550.004 359.484 560.608 356.227C568.457 353.816 576.322 351.452 584.178 349.058C586.333 348.402 588.479 347.717 590.69 347.026C590.914 347.41 591.1 347.637 591.189 347.894C593.705 355.151 596.223 362.408 598.715 369.672C601.381 377.444 604.019 385.224 606.673 393C608.151 397.333 609.633 401.664 611.115 405.995C614.205 415.026 617.297 424.058 620.388 433.089C620.559 433.588 620.736 434.084 620.935 434.652C621.541 434.499 621.984 434.407 622.414 434.275C630.757 431.707 639.094 429.12 647.443 426.568C653.38 424.753 659.296 422.866 665.287 421.221C674.986 418.559 684.452 419.323 693.57 423.534C700.987 426.96 706.702 432.13 710.673 438.96C714.888 446.21 716.305 453.976 715.018 462.161C713.761 470.154 710.084 477.027 704.131 482.763C700.49 486.272 696.28 489.068 691.374 490.805C688.239 491.916 685.083 492.983 681.901 493.967C675.626 495.906 669.325 497.765 663.039 499.673C657.634 501.313 652.236 502.975 646.836 504.629C646.299 504.793 645.764 504.963 645.144 505.157C645.219 505.552 645.274 505.872 645.344 506.189C645.375 506.332 645.438 506.469 645.487 506.609C649.898 519.307 654.326 532 658.715 544.705C661.35 552.332 663.916 559.98 666.532 567.613C668.91 574.552 671.326 581.479 673.696 588.42C674.186 589.855 674.546 591.329 674.968 592.794C674.829 592.912 674.736 593.052 674.609 593.089C670.973 594.173 667.322 595.212 663.696 596.327C652.407 599.801 641.133 603.317 629.842 606.788C622.239 609.125 614.616 611.405 607.008 613.727C600.181 615.811 593.362 617.917 586.54 620.016C585.325 620.39 584.113 620.773 582.809 621.181C582.876 621.44 582.949 621.819 583.073 622.182C586.225 631.4 589.382 640.617 592.538 649.835C594.084 654.352 595.736 658.84 597.147 663.394C598.795 668.711 599.167 674.152 598.176 679.626C596.611 688.262 592.397 695.542 585.499 701.378C582.528 703.89 579.201 705.894 575.542 707.437C568.519 710.399 561.196 711.372 553.651 710.143C541.029 708.088 531.531 701.701 525.296 691.049C523.588 688.129 522.485 684.985 521.469 681.794C520.2 677.81 518.729 673.883 517.345 669.932C516.482 667.468 515.6 665.01 514.76 662.54C512.829 656.859 510.919 651.172 508.999 645.488C508.83 644.985 508.649 644.485 508.448 643.912C507.928 644.028 507.533 644.09 507.156 644.206C495.473 647.783 483.79 651.358 472.112 654.949C462.638 657.862 453.176 660.809 443.701 663.715C435.801 666.138 427.891 668.529 419.981 670.921C418.712 671.304 417.419 671.614 416.053 671.981C415.884 671.632 415.708 671.344 415.599 671.035C413.623 665.413 411.629 659.795 409.69 654.161C407.208 646.95 404.784 639.722 402.312 632.508C399.822 625.243 397.29 617.991 394.799 610.726C392.279 603.373 389.78 596.013 387.287 588.651C386.849 587.357 386.485 586.041 386.057 584.64C386.601 584.443 387.062 584.255 387.538 584.106C392.978 582.401 398.415 580.691 403.861 579.005C411.121 576.759 418.386 574.528 425.654 572.306C426.483 572.053 427.365 571.957 428.192 571.7C435.953 569.289 442.614 565.326 447.743 559.215C451.729 554.465 454.363 549.114 455.583 543.155C457.118 535.654 456.275 528.345 453.082 521.349C449.599 513.718 444.017 507.776 436.244 503.612Z" fill="#FF9012"/>
<path d="M1198.66 169.922C1195.29 161.42 1189.58 154.931 1181.32 150.492C1179.94 149.748 1178.5 149.093 1177.03 148.511C1166.47 144.324 1155.89 140.169 1145.32 135.997C1142.32 134.813 1139.33 133.606 1136.34 132.411C1135.97 132.263 1135.59 132.122 1135.13 131.943C1135.31 131.422 1135.43 131.009 1135.6 130.617C1140.23 120.031 1144.85 109.44 1149.51 98.863C1152.59 91.8622 1155.73 84.8867 1158.83 77.8909C1161.95 70.8453 1165.01 63.7788 1168.15 56.741C1169.59 53.5032 1171.15 50.312 1172.74 46.9244C1173.76 47.3209 1174.81 47.6992 1175.82 48.1274C1176.71 48.5018 1177.56 48.9779 1178.46 49.3311C1187.9 53.038 1197.34 56.7197 1206.78 60.4272C1217.6 64.676 1228.4 68.9448 1239.21 73.2028C1245.36 75.6233 1251.51 78.0409 1257.65 80.4564C1259.17 81.0516 1260.69 81.634 1262.4 82.2987C1262.56 81.9405 1262.75 81.5047 1262.94 81.0697C1268.38 68.6272 1273.79 56.1707 1279.29 43.7513C1280.84 40.2421 1282.71 36.864 1285.24 33.8558C1289.51 28.7738 1294.78 24.9068 1301.12 22.4727C1309.63 19.2082 1318.34 18.6651 1327.16 21.2359C1339.27 24.7644 1347.65 32.2011 1352.31 43.2832C1355.45 50.7582 1355.78 58.4826 1353.53 66.2802C1352.32 70.4483 1350.33 74.3309 1348.57 78.2959C1348.35 78.792 1348.11 79.2785 1347.89 79.7761C1345.29 85.7544 1342.72 91.7429 1340.09 97.7099C1338.38 101.591 1336.59 105.441 1334.84 109.307C1334.64 109.745 1334.49 110.203 1334.3 110.709C1334.7 110.898 1335 111.065 1335.33 111.192C1344.8 114.936 1354.26 118.69 1363.74 122.415C1374.04 126.459 1384.35 130.462 1394.65 134.509C1402.27 137.505 1409.87 140.546 1417.48 143.56C1419.57 144.386 1421.67 145.186 1423.82 146.021C1423.73 146.449 1423.71 146.736 1423.6 146.986C1420.51 154.042 1417.42 161.099 1414.31 168.145C1410.97 175.684 1407.61 183.213 1404.27 190.747C1402.41 194.944 1400.55 199.143 1398.69 203.342C1394.81 212.098 1390.93 220.854 1387.05 229.611C1386.84 230.094 1386.63 230.58 1386.39 231.134C1386.95 231.39 1387.35 231.593 1387.77 231.757C1395.87 234.937 1403.99 238.1 1412.08 241.295C1417.84 243.568 1423.63 245.773 1429.31 248.208C1438.51 252.151 1445.17 258.55 1449.19 267.353C1452.46 274.515 1453.23 281.953 1451.54 289.579C1449.74 297.674 1445.46 304.441 1438.85 309.862C1432.38 315.157 1424.85 318.113 1416.38 318.808C1411.2 319.232 1406.08 318.766 1401.16 317.069C1398.01 315.983 1394.88 314.854 1391.79 313.644C1385.69 311.258 1379.62 308.794 1373.54 306.378C1368.3 304.3 1363.06 302.243 1357.82 300.177C1357.3 299.972 1356.78 299.772 1356.17 299.538C1355.96 299.884 1355.78 300.161 1355.61 300.445C1355.54 300.573 1355.49 300.715 1355.43 300.851C1350.03 313.202 1344.64 325.56 1339.21 337.903C1335.96 345.313 1332.63 352.696 1329.36 360.098C1326.38 366.828 1323.44 373.572 1320.46 380.298C1319.84 381.688 1319.1 383.028 1318.41 384.4C1318.22 384.404 1318.05 384.453 1317.93 384.404C1314.42 382.991 1310.94 381.534 1307.42 380.152C1296.45 375.847 1285.47 371.584 1274.51 367.277C1267.13 364.377 1259.77 361.42 1252.39 358.505C1245.77 355.889 1239.14 353.295 1232.52 350.694C1231.34 350.23 1230.16 349.776 1228.89 349.284C1228.76 349.522 1228.55 349.854 1228.4 350.206C1224.43 359.142 1220.48 368.079 1216.52 377.017C1214.58 381.396 1212.74 385.819 1210.67 390.144C1208.26 395.193 1204.79 399.552 1200.27 403.097C1193.13 408.691 1184.91 411.626 1175.65 411.815C1171.67 411.896 1167.76 411.371 1163.92 410.292C1156.55 408.223 1150.32 404.458 1145.44 398.887C1137.27 389.566 1134.46 378.877 1137.07 366.959C1137.79 363.692 1139.12 360.626 1140.55 357.579C1142.33 353.775 1143.92 349.89 1145.59 346.04C1146.63 343.639 1147.66 341.231 1148.72 338.839C1151.17 333.34 1153.64 327.849 1156.1 322.353C1156.32 321.867 1156.53 321.377 1156.77 320.818C1156.3 320.587 1155.95 320.39 1155.59 320.246C1144.25 315.779 1132.92 311.309 1121.58 306.855C1112.38 303.242 1103.17 299.66 1093.97 296.04C1086.31 293.022 1078.65 289.974 1071 286.926C1069.77 286.437 1068.58 285.877 1067.29 285.316C1067.4 284.946 1067.47 284.62 1067.6 284.318C1069.97 278.835 1072.33 273.345 1074.74 267.876C1077.83 260.877 1080.97 253.899 1084.06 246.903C1087.18 239.857 1090.26 232.795 1093.37 225.749C1096.53 218.618 1099.71 211.494 1102.89 204.373C1103.45 203.122 1104.08 201.899 1104.72 200.572C1105.27 200.757 1105.75 200.898 1106.21 201.077C1111.51 203.128 1116.82 205.173 1122.12 207.242C1129.18 210.001 1136.23 212.774 1143.28 215.556C1144.08 215.874 1144.82 216.343 1145.62 216.656C1153.17 219.598 1160.96 220.686 1169.07 219.2C1175.37 218.045 1181.05 215.603 1186.09 211.829C1192.42 207.08 1196.82 201.013 1199.22 193.739C1201.83 185.805 1201.69 177.863 1198.66 169.922Z" fill="#FF9012"/>
</g>
</svg>
