<svg width="25" height="24" viewBox="0 0 25 24" fill="none" xmlns="http://www.w3.org/2000/svg">
<path d="M12.2168 2C8.3468 2 5.2168 5.13 5.2168 9C5.2168 14.25 12.2168 22 12.2168 22C12.2168 22 19.2168 14.25 19.2168 9C19.2168 5.13 16.0868 2 12.2168 2ZM12.2168 11.5C11.5538 11.5 10.9179 11.2366 10.449 10.7678C9.98019 10.2989 9.7168 9.66304 9.7168 9C9.7168 8.33696 9.98019 7.70107 10.449 7.23223C10.9179 6.76339 11.5538 6.5 12.2168 6.5C12.8798 6.5 13.5157 6.76339 13.9846 7.23223C14.4534 7.70107 14.7168 8.33696 14.7168 9C14.7168 9.66304 14.4534 10.2989 13.9846 10.7678C13.5157 11.2366 12.8798 11.5 12.2168 11.5Z" fill="#F8F8F8"/>
</svg>
