<svg width="1439" height="907" viewBox="0 0 1439 907" fill="none" xmlns="http://www.w3.org/2000/svg">
<mask id="mask0_4106_378" style="mask-type:alpha" maskUnits="userSpaceOnUse" x="0" y="0" width="1440" height="907">
<path d="M0 0H1440V907H0V0Z" fill="#C6C2C2"/>
</mask>
<g mask="url(#mask0_4106_378)">
<path d="M11.0933 198.544C1.36918 188.417 -10.3917 182.406 -24.4123 180.658C-26.7612 180.366 -29.1452 180.233 -31.5144 180.214C-48.5682 180.083 -65.6224 180.004 -82.6764 179.898C-87.516 179.868 -92.3554 179.799 -97.1948 179.75C-97.7933 179.744 -98.392 179.75 -99.1376 179.75C-99.1991 178.918 -99.2898 178.274 -99.2882 177.631C-99.2446 160.209 -99.2163 142.788 -99.1314 125.367C-99.0752 113.836 -98.9155 102.305 -98.839 90.7744C-98.7619 79.1615 -98.77 67.548 -98.6614 55.9354C-98.6114 50.5929 -98.3718 45.252 -98.2098 39.6188C-96.5631 39.6188 -94.9011 39.5827 -93.2417 39.6297C-91.7907 39.6707 -90.3429 39.8801 -88.893 39.8867C-73.6761 39.9562 -58.459 39.9841 -43.2422 40.0545C-25.8036 40.1352 -8.36521 40.2489 9.07327 40.3447C18.986 40.3992 28.8989 40.449 38.8117 40.4955C41.2542 40.5069 43.6968 40.4972 46.4571 40.4972C46.4571 39.9083 46.4556 39.1925 46.4574 38.4766C46.5085 18.0019 46.5025 -2.47328 46.648 -22.9474C46.6891 -28.7325 47.2341 -34.5016 48.9188 -40.114C51.765 -49.5951 56.7068 -57.9086 63.9899 -64.7934C73.7579 -74.0273 85.4295 -79.541 99.1151 -80.733C117.899 -82.369 133.889 -76.474 146.939 -63.4226C155.741 -54.6191 160.818 -43.9309 162.379 -31.7302C163.214 -25.2085 162.798 -18.6614 162.745 -12.1223C162.739 -11.304 162.692 -10.4859 162.692 -9.66763C162.688 0.161713 162.726 9.99124 162.676 19.8204C162.643 26.2138 162.48 32.6066 162.388 38.9998C162.378 39.7239 162.447 40.4491 162.484 41.266C163.145 41.3143 163.666 41.3825 164.186 41.386C179.472 41.4898 194.758 41.609 210.044 41.6796C226.645 41.7563 243.246 41.7642 259.846 41.8452C272.135 41.9052 284.422 42.0399 296.711 42.1288C300.082 42.1531 303.454 42.1324 306.921 42.1324C307.048 42.7869 307.198 43.199 307.197 43.6106C307.16 55.2243 307.126 66.838 307.052 78.4514C306.973 90.8763 306.85 103.301 306.751 115.726C306.695 122.648 306.646 129.57 306.596 136.492C306.493 150.927 306.391 165.363 306.29 179.798C306.284 180.595 306.289 181.391 306.289 182.302C307.22 182.354 307.892 182.422 308.565 182.424C321.63 182.481 334.694 182.507 347.759 182.589C357.049 182.647 366.346 182.591 375.628 182.919C390.655 183.451 403.657 188.825 414.459 199.019C423.248 207.312 428.765 217.356 430.997 229.009C433.365 241.379 431.523 253.233 425.652 264.469C419.917 275.443 411.317 283.708 400.063 289.305C393.179 292.729 385.844 294.866 378.05 295.161C373.069 295.35 368.08 295.468 363.095 295.452C353.267 295.421 343.439 295.262 333.61 295.181C325.158 295.111 316.705 295.076 308.253 295.026C307.413 295.021 306.573 295.025 305.6 295.025C305.511 295.63 305.43 296.117 305.372 296.607C305.346 296.827 305.367 297.053 305.366 297.277C305.315 317.602 305.288 337.928 305.203 358.253C305.151 370.454 304.991 382.655 304.91 394.856C304.836 405.948 304.822 417.04 304.735 428.132C304.717 430.424 304.496 432.715 304.367 435.021C304.113 435.129 303.912 435.288 303.714 435.286C298.038 435.209 292.362 435.062 286.686 435.037C269.009 434.959 251.332 434.949 233.656 434.867C221.752 434.812 209.848 434.664 197.944 434.584C187.263 434.513 176.581 434.478 165.899 434.43C163.997 434.421 162.094 434.429 160.049 434.429C160.016 434.833 159.932 435.413 159.927 435.993C159.818 450.726 159.717 465.458 159.614 480.191C159.564 487.411 159.677 494.637 159.417 501.85C159.113 510.27 156.946 518.294 152.834 525.75C146.346 537.514 136.787 546.125 124.146 551.438C118.704 553.726 113.009 555.118 107.073 555.695C95.6801 556.804 84.8472 554.904 74.7907 549.726C57.9678 541.064 47.7048 527.556 44.1665 509.364C43.1966 504.377 43.1946 499.338 43.3384 494.272C43.5179 487.947 43.3824 481.614 43.3827 475.285C43.3829 471.338 43.3526 467.391 43.3888 463.445C43.472 454.371 43.5881 445.298 43.6886 436.225C43.6975 435.422 43.6897 434.619 43.6897 433.7C42.897 433.634 42.3073 433.544 41.717 433.541C23.4331 433.435 5.14908 433.327 -13.135 433.243C-27.9676 433.175 -42.8004 433.16 -57.6329 433.081C-69.998 433.016 -82.3629 432.9 -94.7278 432.784C-96.7101 432.765 -98.6914 432.63 -100.804 432.543C-100.871 431.962 -100.977 431.467 -100.977 430.972C-100.988 421.962 -101.024 412.952 -100.975 403.942C-100.913 392.41 -100.76 380.879 -100.684 369.348C-100.607 357.735 -100.595 346.121 -100.519 334.508C-100.441 322.753 -100.329 310.998 -100.208 299.244C-100.187 297.178 -100.049 295.113 -99.9597 292.897C-99.0943 292.858 -98.3486 292.795 -97.6028 292.794C-89.0702 292.787 -80.5375 292.771 -72.0049 292.795C-60.6315 292.826 -49.2582 292.882 -37.885 292.954C-36.5888 292.962 -35.2939 293.221 -33.9981 293.223C-21.8338 293.244 -10.4567 290.528 -0.182037 284.017C7.80408 278.957 14.1761 272.419 18.8507 264.365C24.7344 254.228 27.1612 243.294 26.1113 231.751C24.966 219.162 20.0189 208.065 11.0933 198.544Z" fill="#29B5BE"/>
<path d="M690.186 194.855C687.315 181.337 680.487 170.317 669.432 161.811C667.58 160.386 665.612 159.08 663.595 157.879C649.076 149.237 634.527 140.639 619.995 132.018C615.871 129.571 611.767 127.092 607.653 124.63C607.145 124.325 606.63 124.03 605.992 123.657C606.386 122.916 606.655 122.32 607.003 121.771C616.412 106.906 625.807 92.0327 635.251 77.1882C641.502 67.3628 647.842 57.5895 654.11 47.7743C660.423 37.8892 666.663 27.9609 673.003 18.092C675.92 13.5516 678.998 9.10744 682.167 4.37475C683.576 5.19842 685.017 5.99893 686.411 6.8691C687.631 7.62995 688.757 8.53312 689.993 9.26399C702.974 16.9348 715.978 24.5702 728.958 32.2418C743.834 41.0335 758.692 49.8534 773.559 58.658C782.01 63.6629 790.464 68.6638 798.92 73.6619C801.003 74.8935 803.098 76.1069 805.46 77.4876C805.776 76.9845 806.16 76.372 806.547 75.7611C817.605 58.2904 828.614 40.7907 839.752 23.3676C842.899 18.4447 846.469 13.7873 850.929 9.83412C858.465 3.15587 867.164 -1.47651 877.099 -3.71681C890.423 -6.72149 903.374 -5.59495 915.724 0.231986C932.673 8.22952 943.182 21.2651 947.326 38.9456C950.121 50.8714 948.715 62.5445 943.487 73.7511C940.692 79.7415 936.815 85.1286 933.252 90.6898C932.806 91.3857 932.326 92.0615 931.886 92.7606C926.595 101.158 921.34 109.577 916.01 117.951C912.543 123.398 908.964 128.78 905.446 134.197C905.048 134.81 904.717 135.465 904.31 136.181C904.849 136.553 905.257 136.872 905.701 137.135C918.722 144.87 931.736 152.618 944.776 160.324C958.936 168.693 973.134 177.004 987.293 185.377C997.774 191.574 1008.21 197.836 1018.68 204.059C1021.55 205.766 1024.45 207.435 1027.41 209.169C1027.17 209.791 1027.07 210.219 1026.85 210.57C1020.57 220.476 1014.3 230.383 1007.99 240.27C1001.23 250.848 994.446 261.404 987.677 271.971C983.906 277.859 980.14 283.749 976.374 289.64C968.521 301.924 960.668 314.208 952.816 326.493C952.383 327.171 951.959 327.854 951.469 328.632C952.238 329.142 952.776 329.536 953.35 329.875C964.497 336.459 975.66 343.016 986.792 349.62C994.709 354.317 1002.69 358.919 1010.46 363.843C1023.03 371.814 1031.26 382.909 1035.02 397.024C1038.08 408.507 1037.39 419.85 1033.03 430.924C1028.41 442.679 1020.45 451.887 1009.39 458.552C998.576 465.061 986.773 467.822 974.133 466.976C966.403 466.458 958.977 464.616 952.151 460.969C947.787 458.638 943.456 456.244 939.2 453.737C930.808 448.794 922.486 443.743 914.121 438.757C906.927 434.47 899.715 430.211 892.511 425.941C891.795 425.517 891.074 425.1 890.242 424.614C889.84 425.086 889.508 425.461 889.195 425.851C889.054 426.026 888.951 426.23 888.83 426.42C877.853 443.763 866.896 461.119 855.889 478.445C849.282 488.845 842.581 499.191 835.948 509.577C829.918 519.018 823.939 528.49 817.898 537.925C816.65 539.875 815.229 541.721 813.878 543.628C813.602 543.592 813.345 543.629 813.177 543.527C808.362 540.623 803.585 537.658 798.743 534.797C783.662 525.888 768.544 517.038 753.466 508.126C743.311 502.125 733.207 496.044 723.066 490.022C713.966 484.618 704.847 479.245 695.734 473.861C694.111 472.902 692.48 471.957 690.73 470.934C690.484 471.263 690.1 471.716 689.784 472.21C681.765 484.745 673.754 497.284 665.74 509.822C661.813 515.966 658.023 522.197 653.921 528.231C649.131 535.274 642.961 541.047 635.432 545.362C623.553 552.17 610.743 554.746 597.071 552.964C591.184 552.197 585.563 550.537 580.174 548.062C569.831 543.31 561.585 536.268 555.767 526.813C546.034 510.996 544.521 494.319 551.28 477.004C553.133 472.257 555.841 467.951 558.69 463.693C562.245 458.378 565.536 452.899 568.941 447.49C571.065 444.118 573.162 440.73 575.316 437.376C580.268 429.664 585.248 421.968 590.215 414.265C590.654 413.583 591.08 412.893 591.574 412.108C590.931 411.655 590.475 411.284 589.972 410.986C574.386 401.75 558.802 392.511 543.205 383.294C530.552 375.817 517.871 368.385 505.223 360.898C494.68 354.657 484.164 348.373 473.648 342.089C471.962 341.082 470.34 339.975 468.579 338.844C468.834 338.314 469.01 337.838 469.276 337.415C474.114 329.71 478.93 321.992 483.819 314.317C490.075 304.494 496.409 294.717 502.677 284.902C508.99 275.016 515.248 265.098 521.56 255.212C527.95 245.206 534.369 235.218 540.796 225.233C541.925 223.479 543.153 221.783 544.422 219.934C545.184 220.333 545.856 220.653 546.494 221.025C553.798 225.287 561.106 229.541 568.393 233.829C578.106 239.545 587.806 245.282 597.498 251.033C598.602 251.688 599.571 252.557 600.678 253.207C611.074 259.309 622.268 262.679 634.561 262.255C644.115 261.925 653.083 259.526 661.415 254.981C671.902 249.262 679.86 241.132 685.171 230.744C690.963 219.413 692.701 207.455 690.186 194.855Z" fill="#29B5BE"/>
<path d="M1188.88 365.544C1179.18 355.417 1167.44 349.406 1153.44 347.658C1151.1 347.366 1148.72 347.233 1146.36 347.214C1129.33 347.083 1112.31 347.004 1095.29 346.898C1090.46 346.868 1085.63 346.799 1080.8 346.75C1080.2 346.744 1079.6 346.75 1078.86 346.75C1078.8 345.918 1078.71 345.274 1078.71 344.631C1078.75 327.209 1078.78 309.788 1078.87 292.367C1078.92 280.836 1079.08 269.305 1079.16 257.774C1079.23 246.162 1079.23 234.548 1079.33 222.935C1079.38 217.593 1079.62 212.252 1079.78 206.619C1081.43 206.619 1083.09 206.583 1084.74 206.63C1086.19 206.671 1087.64 206.88 1089.08 206.887C1104.27 206.956 1119.46 206.984 1134.65 207.054C1152.06 207.135 1169.46 207.249 1186.87 207.345C1196.76 207.399 1206.66 207.449 1216.55 207.495C1218.99 207.507 1221.43 207.497 1224.18 207.497C1224.18 206.908 1224.18 206.192 1224.18 205.477C1224.23 185.002 1224.23 164.527 1224.37 144.053C1224.41 138.268 1224.96 132.498 1226.64 126.886C1229.48 117.405 1234.41 109.091 1241.68 102.207C1251.43 92.9727 1263.08 87.459 1276.74 86.267C1295.49 84.631 1311.45 90.526 1324.47 103.577C1333.26 112.381 1338.33 123.069 1339.89 135.27C1340.72 141.792 1340.3 148.339 1340.25 154.878C1340.24 155.696 1340.2 156.514 1340.2 157.332C1340.19 167.162 1340.23 176.991 1340.18 186.82C1340.15 193.214 1339.99 199.607 1339.89 206C1339.88 206.724 1339.95 207.449 1339.99 208.266C1340.65 208.314 1341.17 208.383 1341.69 208.386C1356.95 208.49 1372.2 208.609 1387.46 208.68C1404.03 208.756 1420.6 208.764 1437.17 208.845C1449.43 208.905 1461.7 209.04 1473.96 209.129C1477.33 209.153 1480.7 209.132 1484.16 209.132C1484.28 209.787 1484.43 210.199 1484.43 210.611C1484.39 222.224 1484.36 233.838 1484.29 245.451C1484.21 257.876 1484.09 270.301 1483.99 282.726C1483.93 289.648 1483.88 296.57 1483.83 303.492C1483.73 317.927 1483.63 332.363 1483.53 346.798C1483.52 347.595 1483.52 348.391 1483.52 349.302C1484.45 349.354 1485.13 349.422 1485.8 349.424C1498.84 349.481 1511.88 349.507 1524.92 349.589C1534.19 349.647 1543.47 349.591 1552.73 349.919C1567.73 350.451 1580.71 355.825 1591.49 366.019C1600.26 374.312 1605.77 384.356 1608 396.009C1610.36 408.379 1608.52 420.233 1602.66 431.469C1596.94 442.443 1588.36 450.708 1577.12 456.305C1570.25 459.729 1562.93 461.866 1555.15 462.161C1550.18 462.35 1545.2 462.468 1540.22 462.452C1530.41 462.421 1520.6 462.262 1510.79 462.181C1502.36 462.111 1493.92 462.076 1485.49 462.026C1484.65 462.021 1483.81 462.026 1482.84 462.026C1482.75 462.63 1482.67 463.117 1482.61 463.607C1482.58 463.827 1482.6 464.053 1482.6 464.277C1482.55 484.602 1482.53 504.928 1482.44 525.253C1482.39 537.454 1482.23 549.655 1482.15 561.856C1482.07 572.948 1482.06 584.04 1481.97 595.132C1481.96 597.424 1481.73 599.715 1481.61 602.021C1481.35 602.129 1481.15 602.288 1480.95 602.286C1475.29 602.209 1469.62 602.062 1463.96 602.037C1446.31 601.959 1428.67 601.949 1411.03 601.867C1399.15 601.812 1387.26 601.664 1375.38 601.584C1364.72 601.513 1354.06 601.478 1343.4 601.43C1341.5 601.421 1339.6 601.429 1337.56 601.429C1337.53 601.833 1337.44 602.413 1337.44 602.993C1337.33 617.726 1337.23 632.458 1337.13 647.191C1337.08 654.411 1337.19 661.637 1336.93 668.85C1336.62 677.27 1334.46 685.294 1330.36 692.75C1323.88 704.514 1314.34 713.125 1301.72 718.438C1296.29 720.726 1290.61 722.118 1284.68 722.695C1273.31 723.804 1262.5 721.904 1252.46 716.726C1235.67 708.064 1225.43 694.556 1221.89 676.364C1220.93 671.377 1220.92 666.338 1221.07 661.272C1221.25 654.947 1221.11 648.614 1221.11 642.285C1221.11 638.338 1221.08 634.391 1221.12 630.445C1221.2 621.371 1221.32 612.298 1221.42 603.225C1221.43 602.422 1221.42 601.619 1221.42 600.7C1220.63 600.634 1220.04 600.544 1219.45 600.541C1201.2 600.435 1182.95 600.327 1164.7 600.243C1149.9 600.175 1135.09 600.16 1120.29 600.081C1107.94 600.016 1095.6 599.9 1083.26 599.784C1081.28 599.765 1079.3 599.63 1077.2 599.543C1077.13 598.963 1077.02 598.467 1077.02 597.972C1077.01 588.962 1076.98 579.952 1077.02 570.942C1077.09 559.41 1077.24 547.879 1077.32 536.348C1077.39 524.735 1077.4 513.121 1077.48 501.508C1077.56 489.753 1077.67 477.998 1077.79 466.244C1077.81 464.178 1077.95 462.113 1078.04 459.897C1078.9 459.858 1079.65 459.795 1080.39 459.794C1088.91 459.787 1097.42 459.771 1105.94 459.795C1117.29 459.826 1128.64 459.882 1140 459.954C1141.29 459.962 1142.58 460.221 1143.88 460.223C1156.02 460.244 1167.37 457.528 1177.63 451.017C1185.6 445.957 1191.96 439.419 1196.63 431.365C1202.5 421.228 1204.92 410.294 1203.87 398.751C1202.73 386.162 1197.79 375.065 1188.88 365.544Z" fill="#29B5BE"/>
<path d="M795.883 869.105C786.177 858.994 774.438 852.992 760.444 851.248C758.1 850.955 755.72 850.823 753.355 850.804C736.333 850.673 719.311 850.595 702.289 850.488C697.459 850.458 692.628 850.39 687.798 850.341C687.201 850.335 686.603 850.34 685.859 850.34C685.797 849.51 685.707 848.867 685.709 848.225C685.752 830.831 685.78 813.437 685.865 796.043C685.921 784.53 686.081 773.018 686.157 761.505C686.234 749.91 686.226 738.315 686.334 726.72C686.384 721.386 686.623 716.054 686.785 710.429C688.429 710.429 690.087 710.393 691.744 710.44C693.192 710.481 694.637 710.69 696.084 710.697C711.273 710.766 726.461 710.794 741.649 710.864C759.055 710.945 776.461 711.059 793.867 711.154C803.761 711.209 813.655 711.258 823.549 711.305C825.987 711.316 828.425 711.306 831.18 711.306C831.18 710.719 831.179 710.004 831.181 709.289C831.232 688.846 831.226 668.403 831.371 647.961C831.412 642.185 831.956 636.425 833.638 630.822C836.478 621.356 841.411 613.055 848.68 606.181C858.43 596.962 870.08 591.457 883.74 590.267C902.488 588.633 918.448 594.519 931.473 607.55C940.259 616.339 945.327 627.011 946.885 639.192C947.718 645.704 947.304 652.241 947.25 658.77C947.244 659.587 947.197 660.403 947.197 661.22C947.193 671.034 947.231 680.848 947.181 690.662C947.149 697.045 946.986 703.428 946.894 709.811C946.883 710.534 946.953 711.258 946.99 712.074C947.65 712.122 948.169 712.19 948.689 712.194C963.946 712.298 979.203 712.417 994.461 712.487C1011.03 712.564 1027.6 712.571 1044.17 712.652C1056.43 712.712 1068.7 712.847 1080.96 712.935C1084.33 712.96 1087.7 712.939 1091.16 712.939C1091.28 713.593 1091.43 714.004 1091.43 714.415C1091.39 726.01 1091.36 737.606 1091.29 749.201C1091.21 761.606 1091.09 774.012 1090.99 786.417C1090.93 793.328 1090.88 800.239 1090.83 807.151C1090.73 821.563 1090.63 835.976 1090.53 850.389C1090.52 851.184 1090.52 851.979 1090.52 852.888C1091.45 852.94 1092.13 853.008 1092.8 853.011C1105.84 853.068 1118.88 853.094 1131.92 853.175C1141.19 853.233 1150.47 853.177 1159.73 853.505C1174.73 854.036 1187.71 859.401 1198.49 869.579C1207.26 877.859 1212.77 887.888 1215 899.523C1217.36 911.873 1215.52 923.708 1209.66 934.927C1203.94 945.884 1195.36 954.135 1184.12 959.724C1177.25 963.142 1169.93 965.276 1162.15 965.571C1157.18 965.759 1152.2 965.877 1147.22 965.861C1137.41 965.83 1127.6 965.671 1117.79 965.59C1109.36 965.521 1100.92 965.485 1092.49 965.436C1091.65 965.431 1090.81 965.435 1089.84 965.435C1089.75 966.039 1089.67 966.525 1089.61 967.014C1089.58 967.234 1089.6 967.46 1089.6 967.683C1089.55 987.976 1089.53 1008.27 1089.44 1028.56C1089.39 1040.75 1089.23 1052.93 1089.15 1065.11C1089.07 1076.18 1089.06 1087.26 1088.97 1098.33C1088.96 1100.62 1088.73 1102.91 1088.61 1105.21C1088.35 1105.32 1088.15 1105.48 1087.95 1105.48C1082.29 1105.4 1076.62 1105.25 1070.96 1105.23C1053.31 1105.15 1035.67 1105.14 1018.03 1105.06C1006.15 1105 994.265 1104.85 982.383 1104.77C971.722 1104.7 961.06 1104.67 950.399 1104.62C948.5 1104.61 946.601 1104.62 944.56 1104.62C944.527 1105.02 944.442 1105.6 944.438 1106.18C944.329 1120.89 944.228 1135.6 944.125 1150.31C944.075 1157.52 944.188 1164.73 943.928 1171.93C943.625 1180.34 941.462 1188.35 937.358 1195.8C930.882 1207.54 921.341 1216.14 908.724 1221.45C903.292 1223.73 897.607 1225.12 891.683 1225.7C880.311 1226.8 869.499 1224.91 859.461 1219.74C842.67 1211.09 832.426 1197.6 828.894 1179.44C827.926 1174.46 827.924 1169.43 828.068 1164.37C828.247 1158.05 828.111 1151.73 828.112 1145.41C828.112 1141.47 828.082 1137.53 828.118 1133.59C828.201 1124.53 828.317 1115.47 828.417 1106.41C828.426 1105.61 828.418 1104.81 828.418 1103.89C827.627 1103.83 827.038 1103.74 826.449 1103.73C808.2 1103.63 789.95 1103.52 771.7 1103.44C756.895 1103.37 742.09 1103.35 727.286 1103.27C714.944 1103.21 702.602 1103.09 690.26 1102.98C688.282 1102.96 686.304 1102.82 684.195 1102.74C684.129 1102.16 684.023 1101.66 684.022 1101.17C684.012 1092.17 683.976 1083.18 684.025 1074.18C684.087 1062.67 684.239 1051.15 684.316 1039.64C684.392 1028.05 684.404 1016.45 684.481 1004.86C684.558 993.119 684.67 981.383 684.791 969.647C684.812 967.584 684.949 965.523 685.038 963.31C685.902 963.271 686.646 963.208 687.391 963.207C695.907 963.201 704.424 963.184 712.941 963.208C724.293 963.239 735.645 963.295 746.997 963.367C748.29 963.375 749.583 963.634 750.876 963.636C763.018 963.656 774.373 960.944 784.629 954.444C792.6 949.392 798.96 942.864 803.626 934.823C809.499 924.702 811.921 913.784 810.873 902.26C809.73 889.691 804.792 878.611 795.883 869.105Z" fill="#29B5BE"/>
<path d="M972.677 -342.272C960.384 -349.344 947.336 -351.916 933.364 -349.785C931.023 -349.428 928.695 -348.908 926.415 -348.282C910.002 -343.778 893.604 -339.223 877.198 -334.695C872.543 -333.41 867.876 -332.161 863.215 -330.894C862.639 -330.737 862.065 -330.57 861.349 -330.367C861.048 -331.148 860.772 -331.741 860.586 -332.359C855.541 -349.079 850.481 -365.795 845.475 -382.526C842.162 -393.6 838.949 -404.702 835.655 -415.781C832.338 -426.94 828.939 -438.076 825.653 -449.242C824.141 -454.38 822.811 -459.567 821.322 -465.013C822.903 -465.461 824.488 -465.946 826.095 -466.352C827.5 -466.707 828.952 -466.899 830.346 -467.286C844.977 -471.351 859.596 -475.456 874.227 -479.52C890.995 -484.178 907.772 -488.804 924.544 -493.446C934.077 -496.086 943.61 -498.729 953.141 -501.376C955.49 -502.029 957.832 -502.701 960.483 -503.451C960.311 -504.015 960.1 -504.701 959.893 -505.389C953.964 -525.039 947.979 -544.674 942.14 -564.35C940.49 -569.909 939.329 -575.59 939.308 -581.43C939.272 -591.296 941.59 -600.611 946.572 -609.191C953.255 -620.699 962.852 -629.156 975.644 -634.015C993.202 -640.684 1010.28 -639.372 1026.62 -630.398C1037.64 -624.346 1045.64 -615.473 1050.7 -604.196C1053.4 -598.168 1054.92 -591.776 1056.77 -585.49C1057.01 -584.703 1057.2 -583.906 1057.44 -583.121C1060.31 -573.693 1063.21 -564.277 1066.03 -554.836C1067.87 -548.696 1069.58 -542.52 1071.36 -536.364C1071.56 -535.667 1071.84 -534.99 1072.11 -534.217C1072.76 -534.35 1073.28 -534.426 1073.78 -534.563C1088.49 -538.614 1103.2 -542.651 1117.9 -546.733C1133.86 -551.167 1149.8 -555.667 1165.77 -560.096C1177.58 -563.375 1189.42 -566.583 1201.24 -569.834C1204.49 -570.726 1207.72 -571.661 1211.05 -572.603C1211.36 -572.009 1211.63 -571.655 1211.75 -571.26C1215.1 -560.112 1218.46 -548.964 1221.78 -537.806C1225.33 -525.868 1228.84 -513.919 1232.38 -501.976C1234.34 -495.322 1236.32 -488.67 1238.29 -482.018C1242.41 -468.145 1246.52 -454.273 1250.64 -440.401C1250.87 -439.636 1251.11 -438.873 1251.37 -438C1252.28 -438.203 1252.95 -438.32 1253.59 -438.5C1266.15 -441.993 1278.71 -445.515 1291.27 -448.984C1300.21 -451.451 1309.12 -454.029 1318.13 -456.234C1332.71 -459.804 1346.77 -458.181 1360.12 -451.338C1370.98 -445.77 1379.21 -437.635 1384.75 -427.065C1390.64 -415.845 1392.33 -403.976 1389.97 -391.606C1387.67 -379.524 1381.83 -369.262 1372.66 -360.838C1367.05 -355.686 1360.63 -351.644 1353.23 -349.245C1348.5 -347.712 1343.75 -346.244 1338.96 -344.906C1329.51 -342.267 1320.03 -339.751 1310.57 -337.16C1302.43 -334.932 1294.3 -332.671 1286.17 -330.424C1285.37 -330.2 1284.56 -329.968 1283.63 -329.704C1283.72 -329.1 1283.78 -328.611 1283.87 -328.125C1283.91 -327.907 1283.99 -327.696 1284.06 -327.481C1289.94 -307.974 1295.85 -288.473 1301.71 -268.957C1305.22 -257.241 1308.63 -245.496 1312.11 -233.773C1315.28 -223.115 1318.51 -212.473 1321.66 -201.811C1322.32 -199.608 1322.77 -197.351 1323.32 -195.104C1323.11 -194.932 1322.96 -194.725 1322.77 -194.673C1317.3 -193.205 1311.81 -191.806 1306.35 -190.289C1289.35 -185.564 1272.38 -180.774 1255.38 -176.053C1243.94 -172.874 1232.46 -169.784 1221.01 -166.628C1210.73 -163.796 1200.47 -160.93 1190.2 -158.075C1188.37 -157.567 1186.54 -157.043 1184.58 -156.488C1184.67 -156.091 1184.75 -155.512 1184.92 -154.955C1189.12 -140.795 1193.32 -126.638 1197.52 -112.481C1199.58 -105.543 1201.8 -98.6437 1203.66 -91.6554C1205.83 -83.4975 1206.09 -75.2134 1204.32 -66.9461C1201.52 -53.9018 1194.86 -43.0485 1184.27 -34.5202C1179.72 -30.8482 1174.65 -27.9675 1169.12 -25.8019C1158.51 -21.6454 1147.55 -20.5259 1136.38 -22.7617C1117.7 -26.5017 1103.9 -36.6698 1095.19 -53.1567C1092.81 -57.6762 1091.33 -62.5078 1089.99 -67.4055C1088.32 -73.52 1086.34 -79.5571 1084.49 -85.6276C1083.34 -89.4127 1082.16 -93.1898 1081.04 -96.9844C1078.47 -105.709 1075.93 -114.442 1073.38 -123.172C1073.15 -123.944 1072.91 -124.712 1072.64 -125.593C1071.86 -125.442 1071.27 -125.367 1070.7 -125.21C1053.11 -120.347 1035.53 -115.487 1017.95 -110.603C1003.69 -106.64 989.439 -102.627 975.174 -98.6758C963.282 -95.3816 951.376 -92.1353 939.47 -88.8892C937.561 -88.3688 935.619 -87.9608 933.565 -87.4704C933.331 -88.0089 933.085 -88.455 932.94 -88.9298C930.299 -97.5684 927.634 -106.2 925.049 -114.854C921.742 -125.931 918.521 -137.031 915.228 -148.111C911.91 -159.27 908.531 -170.411 905.213 -181.57C901.855 -192.865 898.531 -204.168 895.214 -215.474C894.631 -217.462 894.16 -219.479 893.599 -221.629C894.419 -221.901 895.116 -222.164 895.832 -222.367C904.023 -224.691 912.211 -227.023 920.411 -229.317C931.34 -232.375 942.277 -235.409 953.218 -238.428C954.465 -238.773 955.784 -238.876 957.029 -239.225C968.715 -242.509 978.845 -248.203 986.81 -257.236C993 -264.258 997.209 -272.258 999.346 -281.252C1002.04 -292.571 1001.17 -303.717 996.794 -314.502C992.018 -326.265 984.028 -335.565 972.677 -342.272Z" fill="#29B5BE"/>
<path d="M184.82 816.014C178.754 803.516 169.445 794.337 156.635 788.552C154.489 787.583 152.259 786.756 150.007 786.042C133.796 780.904 117.567 775.817 101.348 770.703C96.745 769.252 92.1544 767.765 87.5577 766.296C86.9893 766.114 86.417 765.943 85.7065 765.724C85.9106 764.915 86.0277 764.275 86.2327 763.663C91.7811 747.091 97.3149 730.515 102.903 713.956C106.601 702.996 110.398 692.067 114.116 681.113C117.86 670.08 121.523 659.023 125.298 648C127.034 642.929 128.95 637.915 130.886 632.6C132.455 633.084 134.05 633.539 135.617 634.071C136.987 634.537 138.3 635.161 139.68 635.594C154.16 640.133 168.654 644.632 183.134 649.171C199.728 654.374 216.312 659.607 232.901 664.824C242.331 667.79 251.763 670.751 261.195 673.709C263.519 674.437 265.85 675.146 268.481 675.957C268.667 675.397 268.892 674.715 269.12 674.034C275.641 654.558 282.107 635.065 288.718 615.618C290.585 610.123 292.928 604.791 296.308 599.944C302.018 591.755 309.355 585.293 318.472 580.88C330.701 574.961 343.567 573.143 356.987 576.031C375.405 579.994 388.781 590.306 397.093 606.566C402.699 617.533 404.159 629.2 401.79 641.273C400.524 647.727 398.059 653.837 395.941 660.046C395.676 660.823 395.373 661.588 395.114 662.367C392.003 671.723 388.933 681.091 385.778 690.433C383.726 696.51 381.55 702.548 379.441 708.607C379.202 709.293 379.04 710.004 378.816 710.792C379.431 711.032 379.905 711.25 380.4 711.407C394.936 715.998 409.466 720.605 424.012 725.165C439.809 730.117 455.628 735.004 471.423 739.96C483.115 743.629 494.784 747.369 506.467 751.065C509.672 752.08 512.892 753.051 516.196 754.07C516.11 754.73 516.123 755.167 515.992 755.558C512.285 766.603 508.583 777.648 504.841 788.682C500.838 800.486 496.794 812.278 492.771 824.076C490.53 830.649 488.295 837.224 486.06 843.799C481.399 857.51 476.738 871.222 472.079 884.934C471.822 885.69 471.575 886.45 471.287 887.317C472.158 887.64 472.777 887.902 473.417 888.103C485.85 891.997 498.293 895.862 510.718 899.779C519.554 902.565 528.432 905.244 537.174 908.285C551.328 913.208 562.02 922.145 569.093 935.024C574.848 945.502 576.931 956.685 575.374 968.434C573.722 980.905 568.219 991.648 559.072 1000.62C550.138 1009.38 539.329 1014.72 526.834 1016.74C519.191 1017.98 511.525 1017.86 504.004 1015.84C499.196 1014.56 494.405 1013.21 489.659 1011.73C480.302 1008.81 470.986 1005.77 461.644 1002.8C453.611 1000.25 445.567 997.733 437.527 995.201C436.728 994.95 435.926 994.707 434.999 994.421C434.723 994.97 434.491 995.41 434.281 995.859C434.187 996.061 434.136 996.283 434.065 996.495C427.591 1015.83 421.141 1035.17 414.634 1054.49C410.728 1066.09 406.719 1077.66 402.785 1089.25C399.208 1099.79 395.689 1110.34 392.1 1120.88C391.358 1123.05 390.423 1125.17 389.572 1127.33C389.295 1127.35 389.054 1127.45 388.865 1127.39C383.48 1125.65 378.117 1123.84 372.716 1122.14C355.894 1116.87 339.05 1111.67 322.23 1106.4C310.902 1102.84 299.604 1099.2 288.285 1095.63C278.127 1092.42 267.958 1089.25 257.794 1086.06C255.983 1085.5 254.168 1084.94 252.219 1084.34C252.059 1084.72 251.795 1085.25 251.608 1085.8C246.847 1099.79 242.094 1113.79 237.339 1127.78C235.008 1134.64 232.832 1141.55 230.304 1148.34C227.353 1156.26 222.752 1163.27 216.476 1169.16C206.574 1178.45 194.742 1183.83 181.015 1185.18C175.105 1185.76 169.238 1185.41 163.398 1184.21C152.19 1181.92 142.466 1176.93 134.519 1169.04C121.224 1155.85 115.713 1139.98 118.091 1121.62C118.743 1116.58 120.334 1111.79 122.072 1107.01C124.243 1101.04 126.115 1094.97 128.116 1088.95C129.364 1085.19 130.583 1081.42 131.865 1077.68C134.812 1069.06 137.791 1060.46 140.755 1051.85C141.017 1051.09 141.263 1050.32 141.554 1049.45C140.819 1049.15 140.285 1048.9 139.724 1048.72C122.332 1043.24 104.941 1037.77 87.5419 1032.31C73.4274 1027.89 59.2959 1023.51 45.1849 1019.08C33.4212 1015.38 21.6735 1011.64 9.92601 1007.89C8.04262 1007.29 6.19725 1006.58 4.21096 1005.88C4.3309 1005.31 4.38641 1004.8 4.54243 1004.33C7.38092 995.752 10.1945 987.164 13.0888 978.601C16.7931 967.642 20.5836 956.71 24.3015 945.756C28.0459 934.723 31.7281 923.671 35.472 912.639C39.2615 901.471 43.0842 890.315 46.9147 879.161C47.5879 877.2 48.3714 875.275 49.1574 873.192C49.9946 873.409 50.7252 873.568 51.4362 873.787C59.5703 876.288 67.7075 878.781 75.8319 881.311C86.6612 884.684 97.4827 888.08 108.299 891.491C109.532 891.88 110.684 892.507 111.918 892.89C123.505 896.485 135.206 897.243 147.056 894.066C156.267 891.596 164.406 887.245 171.407 880.952C180.219 873.032 185.988 863.336 188.636 852.04C191.524 839.719 190.317 827.701 184.82 816.014Z" fill="#29B5BE"/>
</g>
</svg>
