<svg width="176" height="178" viewBox="0 0 176 178" fill="none" xmlns="http://www.w3.org/2000/svg">
<g clip-path="url(#clip0_4187_2)">
<path d="M26.0228 26.0215C13.5971 38.4479 5.13525 54.2796 1.70713 71.5153C-1.72099 88.7505 0.0386004 106.616 6.76343 122.851C13.4882 139.086 24.8763 152.963 39.4875 162.727C54.099 172.49 71.2767 177.702 88.8502 177.702H177.704V7.59056e-05H88.8502C77.18 -0.0152014 65.622 2.27578 54.8397 6.7414C44.0578 11.207 34.2646 17.7592 26.0228 26.0215ZM108.216 32.3167L108.127 46.515L138.403 46.7029L138.215 76.9524L152.403 77.0463C154 77.0568 155.579 77.3815 157.051 78.0021C158.523 78.6228 159.858 79.5274 160.98 80.6643C162.102 81.8007 162.99 83.1474 163.591 84.6267C164.193 86.1066 164.497 87.6898 164.487 89.2871C164.477 90.8844 164.152 92.464 163.531 93.9355C162.91 95.4075 162.006 96.7422 160.869 97.8645C159.733 98.9863 158.386 99.8737 156.907 100.476C155.427 101.077 153.843 101.382 152.246 101.371L138.038 101.267L137.839 131.543L107.59 131.344L107.532 145.532C107.449 148.717 106.121 151.741 103.833 153.957C101.545 156.173 98.4784 157.403 95.2926 157.383C92.1074 157.363 89.0569 156.096 86.7961 153.851C84.5354 151.607 83.245 148.566 83.2022 145.381L83.2962 131.188L53.0205 130.994L53.2189 100.719L67.4015 100.818C70.5867 100.776 73.6283 99.4863 75.8729 97.2261C78.118 94.9659 79.387 91.9153 79.4073 88.7296C79.4282 85.5444 78.1984 82.4777 75.983 80.1887C73.7672 77.8998 70.7422 76.5713 67.5581 76.4878L53.3702 76.3991L53.5686 46.1235L83.8443 46.327L83.9382 32.134C84.0207 28.9524 85.3476 25.9301 87.6345 23.7161C89.9208 21.5022 92.9844 20.2732 96.167 20.293C99.3496 20.3128 102.398 21.5799 104.656 23.8221C106.915 26.0644 108.204 29.103 108.247 32.2854L108.216 32.3167Z" fill="#FB8A09"/>
</g>
<defs>
<clipPath id="clip0_4187_2">
<rect width="178" height="178" fill="white"/>
</clipPath>
</defs>
</svg>
