<svg width="402" height="227" fill="none" xmlns="http://www.w3.org/2000/svg"><mask id="a" style="mask-type:alpha" maskUnits="userSpaceOnUse" x="0" y="0" width="402" height="227"><path d="M0 0h402v226.948H0V0z" fill="#C6C2C2"/></mask><g mask="url(#a)" fill="#FF9012"><path d="M-36.953 157.466c-1.686-1.719-3.726-2.74-6.157-3.037-.407-.05-.82-.072-1.232-.076-2.957-.022-5.915-.035-8.872-.053-.84-.005-1.678-.017-2.518-.025h-.337c-.01-.142-.026-.251-.026-.36.008-2.959.013-5.918.027-8.876.01-1.959.038-3.917.051-5.875.014-1.972.012-3.945.03-5.917.01-.907.051-1.814.08-2.771.285 0 .573-.006.86.002.252.007.503.043.755.044 2.639.012 5.278.016 7.917.028 3.024.014 6.048.033 9.072.05l5.157.025c.424.002.847 0 1.326 0v-.343c.009-3.477.008-6.954.033-10.431.007-.983.102-1.963.394-2.916.494-1.61 1.35-3.022 2.614-4.191 1.694-1.568 3.718-2.505 6.09-2.707 3.258-.278 6.031.723 8.294 2.94 1.527 1.495 2.407 3.31 2.678 5.382.145 1.108.073 2.22.063 3.33 0 .139-.009.278-.009.417 0 1.669.006 3.339-.003 5.008-.005 1.086-.034 2.171-.05 3.257-.001.123.01.246.017.385.115.008.205.02.295.02 2.651.018 5.302.038 7.953.05 2.879.013 5.758.015 8.636.028 2.131.011 4.262.033 6.393.049.585.004 1.17 0 1.771 0 .022.111.048.181.048.251-.007 1.973-.012 3.945-.025 5.917-.014 2.11-.035 4.22-.053 6.33-.01 1.176-.018 2.352-.026 3.527l-.053 7.355v.425c.16.009.277.02.394.021 2.266.009 4.531.014 6.797.028 1.611.01 3.223 0 4.833.056 2.606.09 4.86 1.003 6.734 2.734 1.524 1.408 2.48 3.114 2.868 5.093.41 2.101.091 4.114-.927 6.022-.994 1.864-2.486 3.268-4.438 4.218-1.193.582-2.465.945-3.817.995a64.08 64.08 0 0 1-2.593.049c-1.705-.005-3.41-.032-5.114-.046-1.465-.012-2.931-.018-4.397-.026h-.46c-.015.102-.03.185-.04.268-.004.038 0 .076 0 .114-.01 3.452-.014 6.904-.029 10.356-.009 2.072-.037 4.144-.05 6.216-.014 1.884-.016 3.767-.031 5.651-.003.389-.042.778-.064 1.17-.044.018-.079.045-.113.045-.984-.013-1.969-.038-2.953-.042-3.066-.014-6.131-.015-9.196-.029-2.065-.009-4.13-.035-6.193-.048-1.853-.012-3.705-.018-5.558-.026-.33-.002-.66-.001-1.014-.001-.006.069-.02.168-.021.266-.02 2.502-.037 5.004-.055 7.506-.008 1.226.011 2.454-.034 3.679a8.841 8.841 0 0 1-1.141 4.058c-1.125 1.998-2.783 3.461-4.975 4.363-.944.389-1.932.625-2.961.723-1.976.188-3.855-.134-5.599-1.014-2.917-1.471-4.697-3.765-5.31-6.854-.168-.847-.169-1.703-.144-2.563.031-1.075.008-2.15.008-3.225 0-.67-.005-1.341 0-2.011.015-1.541.036-3.082.053-4.623v-.428c-.137-.012-.24-.027-.342-.027-3.17-.018-6.341-.037-9.512-.051-2.572-.011-5.145-.014-7.717-.027a1724.08 1724.08 0 0 1-6.433-.051c-.344-.003-.687-.026-1.054-.041-.011-.098-.03-.182-.03-.267-.002-1.53-.008-3.06 0-4.59.011-1.959.038-3.917.051-5.875.014-1.972.016-3.945.029-5.917.013-1.996.033-3.993.054-5.989.003-.351.027-.701.043-1.078.15-.006.28-.017.408-.017 1.48-.001 2.96-.004 4.44 0 1.972.005 3.944.015 5.917.027.224.001.449.045.674.046 2.11.003 4.082-.458 5.864-1.564 1.385-.859 2.49-1.97 3.3-3.337 1.02-1.722 1.442-3.579 1.26-5.539-.199-2.138-1.057-4.023-2.605-5.64zM28.38 30.473c-.499-2.296-1.682-4.168-3.598-5.613a10.31 10.31 0 0 0-1.012-.667c-2.516-1.468-5.037-2.929-7.556-4.393-.714-.416-1.425-.837-2.138-1.255-.089-.052-.178-.102-.289-.165.069-.126.115-.227.176-.32 1.63-2.525 3.259-5.051 4.896-7.573 1.083-1.669 2.181-3.329 3.268-4.996C23.22 3.812 24.302 2.126 25.4.45c.506-.771 1.04-1.526 1.588-2.33.244.14.494.276.736.424.211.129.406.282.62.406 2.25 1.303 4.504 2.6 6.754 3.903 2.578 1.493 5.153 2.991 7.73 4.487 1.464.85 2.929 1.7 4.395 2.548.36.21.724.416 1.133.65l.188-.293c1.917-2.968 3.825-5.94 5.755-8.9.546-.835 1.164-1.626 1.937-2.298 1.306-1.134 2.814-1.921 4.535-2.301 2.31-.51 4.554-.32 6.694.67 2.938 1.359 4.76 3.573 5.477 6.576.485 2.025.241 4.008-.665 5.911-.484 1.018-1.156 1.933-1.774 2.877-.077.119-.16.234-.236.352-.917 1.427-1.828 2.857-2.752 4.279-.6.925-1.221 1.839-1.83 2.76-.07.103-.127.215-.198.336.094.063.165.117.242.162 2.256 1.314 4.511 2.63 6.771 3.939 2.455 1.421 4.915 2.833 7.369 4.255 1.816 1.053 3.626 2.116 5.44 3.173.497.29.999.574 1.513.868-.042.106-.058.178-.097.238-1.088 1.683-2.176 3.365-3.27 5.045-1.17 1.796-2.346 3.59-3.52 5.384l-1.958 3.001-4.083 6.26-.234.363c.134.087.227.154.326.211 1.932 1.118 3.867 2.232 5.796 3.354 1.372.798 2.756 1.58 4.102 2.416 2.178 1.353 3.605 3.238 4.256 5.635.53 1.95.412 3.877-.344 5.758-.802 1.997-2.18 3.56-4.098 4.693-1.873 1.106-3.92 1.574-6.11 1.43-1.34-.087-2.626-.4-3.81-1.02a62.005 62.005 0 0 1-2.244-1.228c-1.454-.84-2.897-1.698-4.346-2.544-1.247-.729-2.497-1.452-3.745-2.177l-.394-.225c-.07.08-.127.143-.181.21-.025.03-.042.064-.063.096-1.903 2.946-3.802 5.894-5.71 8.837-1.144 1.766-2.306 3.523-3.455 5.287-1.045 1.604-2.081 3.213-3.128 4.815-.217.332-.463.645-.697.97-.048-.007-.093 0-.122-.018-.834-.493-1.662-.997-2.501-1.483-2.614-1.513-5.234-3.016-7.847-4.53-1.76-1.02-3.511-2.052-5.269-3.075-1.577-.918-3.157-1.83-4.736-2.745-.282-.163-.565-.323-.868-.497-.042.056-.109.133-.164.217-1.39 2.129-2.778 4.259-4.167 6.388-.68 1.044-1.337 2.102-2.048 3.127a9.554 9.554 0 0 1-3.204 2.91c-2.059 1.156-4.279 1.593-6.649 1.29a10.261 10.261 0 0 1-2.928-.832c-1.792-.807-3.222-2.003-4.23-3.609-1.687-2.686-1.949-5.519-.777-8.46.32-.806.79-1.538 1.284-2.26.616-.904 1.186-1.834 1.776-2.753.368-.573.732-1.148 1.105-1.718.858-1.31 1.722-2.617 2.582-3.925.076-.116.15-.233.236-.367-.111-.077-.19-.14-.278-.19-2.7-1.569-5.402-3.138-8.105-4.704-2.193-1.27-4.39-2.532-6.582-3.804-1.828-1.06-3.65-2.127-5.473-3.194-.292-.172-.573-.36-.878-.552.044-.09.074-.17.12-.242.84-1.309 1.674-2.62 2.52-3.923 1.085-1.669 2.183-3.33 3.27-4.997 1.093-1.679 2.178-3.363 3.272-5.042 1.107-1.7 2.22-3.397 3.334-5.092.195-.298.408-.586.628-.9.132.068.248.122.36.185 1.265.724 2.532 1.446 3.794 2.175 1.684.97 3.365 1.945 5.044 2.922.192.111.36.259.552.369 1.801 1.036 3.741 1.609 5.872 1.537a10.496 10.496 0 0 0 4.654-1.236c1.817-.971 3.197-2.352 4.117-4.116 1.004-1.925 1.305-3.956.87-6.096zM231.529 173.993c-1.686-1.72-3.726-2.741-6.157-3.037-.408-.05-.821-.073-1.232-.076-2.957-.022-5.915-.035-8.872-.053-.84-.006-1.679-.017-2.518-.026h-.337c-.011-.141-.026-.25-.026-.359.007-2.959.012-5.918.027-8.876.01-1.959.037-3.917.051-5.875.013-1.972.012-3.945.03-5.917.009-.907.051-1.814.079-2.771.285 0 .574-.006.861.002.252.007.503.042.754.044 2.639.011 5.278.016 7.917.028 3.024.014 6.048.033 9.073.049 1.719.01 3.438.018 5.157.026.423.002.847 0 1.326 0v-.343c.009-3.477.007-6.954.033-10.432.007-.982.101-1.962.393-2.915.494-1.61 1.351-3.022 2.614-4.191 1.694-1.568 3.718-2.505 6.091-2.707 3.258-.278 6.031.723 8.294 2.94 1.526 1.495 2.407 3.31 2.678 5.382.144 1.108.072 2.219.063 3.33-.001.139-.009.278-.009.417-.001 1.669.006 3.338-.003 5.008-.006 1.086-.034 2.171-.05 3.257-.002.123.01.246.017.385.114.008.205.02.295.02 2.651.018 5.302.038 7.953.05 2.878.013 5.757.014 8.636.028 2.131.01 4.262.033 6.393.048.585.004 1.169.001 1.771.001.022.111.048.181.047.251-.006 1.972-.012 3.945-.025 5.917-.013 2.11-.035 4.22-.052 6.33l-.027 3.527-.053 7.355v.425c.162.009.278.02.395.021 2.265.009 4.531.014 6.797.028 1.611.009 3.223 0 4.833.056 2.606.09 4.86 1.003 6.734 2.734 1.524 1.408 2.481 3.114 2.868 5.093.41 2.101.091 4.114-.927 6.022-.995 1.864-2.486 3.267-4.438 4.218-1.194.582-2.466.945-3.817.995a64.09 64.09 0 0 1-2.594.049c-1.704-.005-3.409-.032-5.113-.046-1.466-.012-2.932-.018-4.397-.026h-.46c-.016.102-.03.185-.04.268-.005.038-.001.076-.001.114-.009 3.452-.013 6.904-.028 10.355-.009 2.073-.037 4.145-.051 6.217-.013 1.883-.015 3.767-.03 5.651-.004.389-.042.778-.064 1.17-.044.018-.079.045-.114.045-.984-.013-1.968-.038-2.953-.042-3.065-.014-6.13-.015-9.196-.029-2.064-.01-4.129-.035-6.193-.048-1.852-.012-3.705-.018-5.557-.027h-1.015c-.005.069-.02.167-.021.266l-.054 7.506c-.009 1.226.011 2.453-.034 3.678a8.846 8.846 0 0 1-1.142 4.059c-1.125 1.998-2.783 3.461-4.975 4.363-.944.388-1.931.625-2.96.723-1.976.188-3.855-.134-5.599-1.014-2.917-1.471-4.697-3.765-5.311-6.855-.168-.847-.168-1.702-.143-2.563.031-1.074.007-2.149.007-3.224 0-.67-.005-1.341.001-2.011.015-1.541.035-3.082.052-4.623.002-.136.001-.272.001-.428-.138-.012-.24-.027-.342-.027-3.171-.018-6.342-.037-9.513-.051-2.572-.012-5.144-.014-7.716-.028-2.145-.011-4.289-.03-6.433-.05-.344-.003-.688-.026-1.054-.041-.012-.099-.03-.183-.03-.267-.002-1.53-.008-3.06 0-4.59.011-1.959.037-3.917.051-5.875.013-1.973.015-3.945.028-5.917.014-1.997.033-3.993.054-5.989.004-.351.028-.702.043-1.078.15-.007.28-.017.409-.017 1.48-.002 2.959-.004 4.439 0 1.973.005 3.945.015 5.917.027.225.001.45.045.674.046 2.11.003 4.083-.458 5.865-1.564 1.384-.859 2.489-1.97 3.3-3.337 1.02-1.722 1.441-3.579 1.259-5.539-.198-2.138-1.056-4.023-2.604-5.64zM385.384 126.657c1.85-1.561 2.968-3.469 3.325-5.759.06-.384.092-.774.102-1.162.078-2.793.145-5.585.218-8.378.02-.793.048-1.585.071-2.377l.007-.318c.149-.008.265-.021.381-.019 3.131.061 6.261.119 9.392.186 2.072.045 4.144.106 6.216.154 2.086.048 4.173.083 6.26.136.96.025 1.919.08 2.931.124-.005.27-.004.542-.018.814-.012.237-.054.474-.06.711-.06 2.492-.112 4.984-.173 7.476-.069 2.855-.144 5.711-.216 8.566l-.12 4.87c-.01.4-.015.8-.024 1.252l.363.007c3.679.071 7.359.132 11.038.219 1.039.025 2.075.131 3.078.425 1.695.495 3.173 1.33 4.388 2.543 1.629 1.628 2.583 3.557 2.754 5.802.236 3.081-.874 5.681-3.26 7.779-1.61 1.414-3.547 2.213-5.744 2.431-1.175.117-2.35.029-3.525 0-.147-.004-.294-.014-.441-.016-1.766-.031-3.533-.055-5.299-.093-1.149-.025-2.297-.071-3.446-.106-.13-.004-.261.005-.408.009-.01.108-.024.193-.026.278-.067 2.503-.136 5.006-.197 7.509-.066 2.719-.119 5.437-.185 8.156-.05 2.012-.112 4.024-.167 6.036-.015.552-.022 1.104-.032 1.672-.118.019-.193.042-.267.041-2.087-.042-4.174-.083-6.261-.131-2.232-.051-4.465-.109-6.697-.163a858804.147 858804.147 0 0 1-11.513-.272l-.45-.008c-.013.152-.027.262-.03.373-.051 2.139-.096 4.278-.152 6.418-.039 1.521-.058 3.044-.146 4.563-.143 2.459-1.149 4.572-3.015 6.31-1.518 1.414-3.34 2.286-5.442 2.616-2.23.35-4.354.012-6.355-.984-1.955-.973-3.413-2.406-4.384-4.267-.593-1.137-.954-2.345-.983-3.623a54.08 54.08 0 0 1-.005-2.45c.036-1.609.095-3.218.141-4.827.039-1.384.071-2.769.107-4.153l.008-.434c-.108-.017-.195-.031-.283-.042-.04-.005-.08-.003-.121-.003-3.652-.071-7.305-.138-10.957-.214-2.193-.046-4.385-.11-6.577-.16-1.993-.046-3.987-.083-5.98-.131-.412-.01-.822-.053-1.237-.081-.018-.042-.046-.076-.045-.108.031-.929.076-1.858.098-2.788.069-2.895.126-5.789.197-8.684.047-1.949.111-3.898.162-5.848.046-1.749.086-3.498.128-5.247.008-.312.012-.623.019-.958-.073-.007-.177-.022-.281-.025l-7.942-.187c-1.297-.03-2.596-.034-3.892-.098a10.205 10.205 0 0 1-4.274-1.152c-2.094-1.098-3.611-2.69-4.527-4.777a8.855 8.855 0 0 1-.711-2.809c-.164-1.869.212-3.637 1.174-5.268 1.609-2.729 4.069-4.368 7.349-4.892.899-.143 1.805-.128 2.715-.089 1.136.049 2.274.046 3.412.065.709.012 1.418.019 2.128.037 1.63.042 3.26.089 4.89.133.145.004.289.005.454.008.014-.13.032-.226.035-.323.076-2.994.153-5.988.225-8.982.059-2.429.108-4.858.168-7.287.051-2.025.111-4.049.17-6.074.01-.324.04-.648.062-.994.105-.009.194-.025.283-.024 1.619.026 3.239.048 4.858.083 2.072.046 4.144.106 6.216.154 2.087.048 4.174.086 6.26.134 2.113.049 4.225.103 6.337.159.371.01.742.039 1.14.06.004.142.013.264.011.386-.026 1.398-.05 2.795-.081 4.193-.041 1.862-.087 3.725-.135 5.587-.006.212-.056.423-.061.636-.041 1.992.411 3.863 1.549 5.566a9.808 9.808 0 0 0 3.472 3.177c1.803.995 3.761 1.426 5.838 1.289 2.266-.149 4.276-.925 6.015-2.358zM173.182 20.54c-2.131-1.202-4.392-1.639-6.814-1.277-.406.06-.809.149-1.204.255-2.845.765-5.686 1.54-8.53 2.308-.807.218-1.615.43-2.423.646-.1.026-.199.055-.323.09-.053-.133-.1-.234-.133-.339-.874-2.84-1.751-5.68-2.619-8.52-.574-1.882-1.131-3.767-1.701-5.65-.575-1.895-1.164-3.786-1.734-5.683-.262-.872-.492-1.753-.751-2.678.274-.076.549-.159.828-.228.243-.06.495-.093.736-.158 2.536-.69 5.07-1.388 7.605-2.078 2.906-.791 5.814-1.577 8.721-2.366l4.956-1.347c.407-.11.813-.225 1.272-.352l-.102-.33c-1.028-3.337-2.065-6.672-3.077-10.014-.286-.944-.487-1.909-.491-2.9-.006-1.677.396-3.259 1.259-4.716 1.158-1.955 2.822-3.391 5.039-4.216 3.043-1.133 6.002-.91 8.834.614a9.374 9.374 0 0 1 4.173 4.45c.469 1.024.731 2.11 1.053 3.178.04.133.074.269.115.402.497 1.601 1.001 3.2 1.49 4.804.318 1.043.615 2.092.923 3.138.035.118.083.233.131.364.112-.022.202-.035.289-.058 2.549-.689 5.098-1.374 7.646-2.067 2.766-.754 5.529-1.518 8.295-2.27 2.048-.557 4.1-1.102 6.149-1.654.562-.152 1.122-.31 1.699-.47.055.1.1.16.121.228.582 1.893 1.164 3.786 1.739 5.682.616 2.027 1.224 4.057 1.836 6.086l1.025 3.39 2.141 7.068c.039.13.08.26.127.408.157-.035.272-.055.385-.085 2.176-.593 4.352-1.192 6.53-1.78 1.549-.42 3.093-.858 4.654-1.232 2.528-.607 4.963-.331 7.277.831 1.882.946 3.308 2.328 4.269 4.123 1.02 1.906 1.314 3.922.905 6.023-.399 2.052-1.411 3.795-3.001 5.226-.972.875-2.085 1.561-3.367 1.969-.819.26-1.643.51-2.474.737-1.637.448-3.28.875-4.92 1.316-1.41.378-2.818.762-4.227 1.144l-.442.122c.016.102.027.186.042.268.007.037.022.073.033.11 1.021 3.313 2.045 6.625 3.059 9.94.609 1.99 1.2 3.985 1.804 5.976.549 1.81 1.108 3.618 1.655 5.428.113.375.192.758.287 1.14-.037.029-.062.064-.095.073-.949.25-1.901.487-2.847.745-2.945.802-5.887 1.616-8.833 2.418-1.983.54-3.972 1.064-5.956 1.6-1.781.481-3.561.968-5.341 1.453-.317.086-.633.175-.973.27.015.067.03.165.059.26.727 2.405 1.456 4.81 2.184 7.214.357 1.179.742 2.35 1.063 3.537a8.74 8.74 0 0 1 .115 4.197c-.485 2.216-1.64 4.06-3.474 5.508a9.96 9.96 0 0 1-2.626 1.48c-1.84.707-3.738.897-5.674.517-3.238-.635-5.629-2.362-7.139-5.163-.413-.767-.669-1.588-.901-2.42-.29-1.038-.633-2.064-.954-3.095-.199-.643-.404-1.284-.598-1.929-.445-1.482-.885-2.965-1.327-4.448-.039-.13-.081-.261-.128-.41-.135.025-.238.037-.336.064-3.048.826-6.096 1.652-9.143 2.481-2.472.673-4.941 1.355-7.413 2.026-2.061.56-4.124 1.11-6.188 1.662-.33.089-.667.158-1.023.241-.04-.091-.083-.167-.108-.248-.458-1.467-.92-2.933-1.368-4.403-.573-1.881-1.131-3.767-1.702-5.649-.575-1.895-1.161-3.787-1.736-5.683-.582-1.918-1.158-3.838-1.732-5.758-.101-.338-.183-.68-.28-1.045.142-.047.263-.091.387-.126 1.419-.395 2.838-.79 4.259-1.18 1.894-.52 3.79-1.035 5.686-1.548.216-.058.445-.076.661-.135 2.025-.558 3.78-1.525 5.161-3.06 1.073-1.192 1.802-2.551 2.172-4.078a8.938 8.938 0 0 0-.442-5.648c-.828-1.998-2.212-3.578-4.179-4.717zM60.329 213.203c-.87-2.195-2.346-3.87-4.477-5.017-.356-.192-.73-.361-1.109-.511-2.727-1.081-5.458-2.154-8.187-3.231-.774-.305-1.546-.617-2.319-.926l-.311-.121c.046-.134.076-.241.12-.342 1.196-2.733 2.389-5.468 3.591-8.198.796-1.808 1.608-3.609 2.407-5.415.805-1.819 1.596-3.644 2.406-5.461.373-.836.775-1.66 1.186-2.534.264.102.533.2.796.31.23.097.448.22.68.311 2.437.957 4.877 1.908 7.313 2.865 2.792 1.097 5.582 2.199 8.374 3.298 1.586.625 3.173 1.25 4.76 1.873.392.154.784.304 1.227.476l.138-.317c1.405-3.213 2.801-6.429 4.222-9.636.401-.906.882-1.778 1.535-2.555a9.957 9.957 0 0 1 4.102-2.939c2.197-.842 4.446-.983 6.723-.319 3.126.911 5.289 2.831 6.492 5.692.811 1.93.897 3.925.315 5.938-.311 1.076-.825 2.079-1.28 3.102-.056.128-.12.254-.175.383-.672 1.543-1.336 3.089-2.015 4.63-.442 1.002-.904 1.996-1.355 2.994-.051.113-.09.232-.14.362.104.049.183.092.266.125 2.445.967 4.889 1.936 7.337 2.897 2.658 1.045 5.321 2.078 7.979 3.123 1.967.774 3.93 1.559 5.895 2.337.539.213 1.082.42 1.638.635-.024.111-.028.185-.057.25-.798 1.821-1.596 3.643-2.4 5.462-.861 1.947-1.728 3.891-2.592 5.836l-1.441 3.252-3.004 6.782c-.056.125-.109.25-.171.393.145.066.249.119.356.161 2.093.821 4.187 1.638 6.277 2.463 1.487.587 2.982 1.156 4.449 1.785 2.375 1.018 4.094 2.67 5.132 4.943.844 1.849 1.044 3.769.607 5.738-.464 2.09-1.569 3.838-3.277 5.237-1.669 1.367-3.613 2.131-5.8 2.31-1.338.11-2.661-.011-3.932-.449a64.06 64.06 0 0 1-2.419-.884c-1.575-.616-3.141-1.252-4.712-1.876-1.351-.537-2.705-1.068-4.058-1.601a48.155 48.155 0 0 0-.425-.165c-.056.089-.102.16-.145.234-.019.033-.031.07-.046.105-1.395 3.189-2.787 6.379-4.187 9.566-.84 1.913-1.7 3.819-2.545 5.731-.768 1.737-1.527 3.478-2.298 5.215-.16.359-.351.705-.53 1.059-.047.001-.09.014-.122.001-.906-.365-1.806-.741-2.715-1.098-2.83-1.111-5.666-2.212-8.497-3.324-1.906-.749-3.805-1.512-5.71-2.265-1.709-.675-3.42-1.345-5.13-2.017l-.939-.364c-.033.062-.086.148-.126.239-1.023 2.307-2.044 4.614-3.066 6.922-.501 1.131-.976 2.272-1.51 3.389a9.298 9.298 0 0 1-2.687 3.344c-1.843 1.445-3.964 2.203-6.355 2.251a10.346 10.346 0 0 1-3.03-.393c-1.903-.534-3.512-1.506-4.772-2.945-2.108-2.406-2.833-5.166-2.159-8.243.185-.844.528-1.635.897-2.422.46-.982.87-1.985 1.303-2.979.269-.62.533-1.242.808-1.859.633-1.42 1.27-2.838 1.906-4.257.056-.125.11-.252.172-.396-.122-.06-.211-.111-.305-.148-2.927-1.153-5.853-2.307-8.78-3.457-2.376-.933-4.754-1.858-7.129-2.792-1.98-.78-3.955-1.567-5.93-2.354-.318-.126-.626-.27-.96-.415.03-.096.046-.18.08-.258.613-1.416 1.222-2.833 1.845-4.245.797-1.807 1.608-3.609 2.407-5.415.805-1.819 1.599-3.643 2.404-5.462.814-1.841 1.634-3.68 2.456-5.519.144-.323.307-.639.472-.981.142.047.266.084.386.13 1.369.53 2.74 1.058 4.106 1.592 1.823.712 3.644 1.428 5.464 2.147.207.081.397.203.605.284 1.95.759 3.96 1.04 6.053.656a10.329 10.329 0 0 0 4.395-1.903c1.636-1.226 2.771-2.792 3.39-4.671.675-2.048.639-4.098-.143-6.149zM104.246 130.357c-2.173-1.132-4.449-1.496-6.856-1.056-.403.073-.803.174-1.194.293-2.815.857-5.628 1.721-8.442 2.581-.798.245-1.599.483-2.398.724-.1.029-.197.061-.32.099-.057-.13-.109-.229-.145-.333-.976-2.81-1.955-5.62-2.924-8.432-.642-1.861-1.267-3.728-1.905-5.59-.643-1.876-1.3-3.747-1.938-5.625-.293-.863-.555-1.736-.846-2.653.27-.084.542-.176.818-.253.241-.068.492-.109.73-.183 2.51-.771 5.017-1.55 7.526-2.321 2.876-.884 5.754-1.763 8.63-2.645l4.905-1.506c.403-.123.804-.251 1.259-.393l-.114-.325c-1.148-3.303-2.305-6.603-3.436-9.91-.32-.934-.556-1.892-.596-2.884-.066-1.674.278-3.268 1.088-4.753 1.087-1.99 2.698-3.48 4.884-4.376 3-1.23 5.965-1.102 8.851.33a9.428 9.428 0 0 1 4.331 4.314c.506 1.008.807 2.084 1.167 3.14.045.133.084.267.13.4.554 1.584 1.116 3.166 1.662 4.753.356 1.032.69 2.07 1.036 3.106.039.117.091.23.143.36.112-.026.201-.042.287-.068 2.523-.77 5.046-1.537 7.567-2.312 2.738-.842 5.471-1.695 8.209-2.535 2.027-.623 4.057-1.234 6.086-1.851.556-.17 1.11-.347 1.681-.525.058.099.106.158.129.224.649 1.874 1.299 3.747 1.943 5.623.688 2.006 1.37 4.015 2.055 6.023.381 1.119.764 2.237 1.146 3.355l2.395 6.995.141.404c.156-.04.271-.063.382-.097 2.154-.663 4.306-1.331 6.462-1.99 1.533-.469 3.06-.956 4.607-1.381 2.504-.687 4.948-.49 7.302.597 1.916.885 3.391 2.22 4.416 3.983 1.089 1.872 1.454 3.877 1.122 5.99-.324 2.064-1.274 3.839-2.811 5.32-.94.906-2.027 1.628-3.294 2.076-.809.287-1.624.562-2.445.816-1.62.501-3.247.981-4.87 1.474-1.396.423-2.789.852-4.184 1.279l-.437.137c.02.101.034.184.052.266.008.037.024.072.037.108 1.139 3.279 2.282 6.556 3.415 9.837.681 1.969 1.343 3.943 2.019 5.914.614 1.792 1.237 3.58 1.849 5.372.127.371.22.751.329 1.13-.036.03-.06.066-.093.076-.939.279-1.882.548-2.818.836-2.914.896-5.825 1.804-8.74 2.701-1.963.603-3.931 1.192-5.896 1.791-1.763.538-3.523 1.082-5.285 1.624-.313.096-.626.195-.963.301.018.067.036.164.068.258l2.444 7.14c.399 1.166.826 2.325 1.19 3.501a8.728 8.728 0 0 1 .266 4.19c-.404 2.23-1.492 4.11-3.273 5.617a9.92 9.92 0 0 1-2.571 1.564c-1.813.765-3.704 1.016-5.652.699-3.259-.531-5.711-2.18-7.321-4.93-.441-.754-.726-1.566-.988-2.39-.328-1.028-.708-2.042-1.065-3.062-.223-.636-.45-1.271-.667-1.909-.499-1.467-.992-2.935-1.488-4.403-.043-.129-.09-.258-.142-.407-.134.031-.236.047-.334.076-3.016.924-6.032 1.847-9.048 2.774-2.445.752-4.888 1.513-7.335 2.263-2.04.626-4.082 1.243-6.124 1.861-.328.099-.662.179-1.014.274-.044-.09-.09-.165-.118-.245-.51-1.451-1.025-2.902-1.525-4.356-.64-1.862-1.267-3.728-1.905-5.591-.643-1.876-1.297-3.748-1.94-5.624-.65-1.898-1.296-3.799-1.94-5.699-.113-.334-.207-.674-.317-1.036.14-.051.26-.099.382-.138 1.405-.44 2.809-.881 4.215-1.317 1.874-.58 3.75-1.156 5.627-1.729.213-.066.441-.09.655-.157 2.004-.622 3.724-1.645 5.048-3.223 1.029-1.227 1.709-2.608 2.024-4.147a8.948 8.948 0 0 0-.646-5.63c-.899-1.97-2.34-3.504-4.347-4.579zM313.612 43.872c-.869-2.195-2.346-3.87-4.476-5.017-.357-.192-.73-.36-1.109-.511-2.727-1.081-5.458-2.154-8.187-3.231-.774-.306-1.546-.617-2.319-.926-.096-.038-.192-.074-.312-.12.047-.135.076-.242.12-.343 1.196-2.733 2.389-5.468 3.592-8.199.795-1.807 1.608-3.608 2.407-5.414.805-1.82 1.596-3.644 2.406-5.461.372-.836.775-1.66 1.185-2.535.264.103.534.2.797.311.23.097.448.22.68.31 2.436.958 4.876 1.909 7.313 2.866 2.792 1.097 5.582 2.199 8.373 3.298 1.587.625 3.174 1.25 4.761 1.873.391.154.784.304 1.227.476l.137-.318c1.406-3.212 2.802-6.428 4.222-9.635.401-.906.883-1.778 1.536-2.555a9.942 9.942 0 0 1 4.102-2.939c2.197-.843 4.446-.983 6.723-.319 3.125.911 5.288 2.831 6.491 5.692.812 1.93.897 3.925.315 5.938-.311 1.076-.824 2.079-1.279 3.102-.057.128-.12.254-.176.382-.671 1.544-1.336 3.09-2.015 4.63-.441 1.003-.903 1.997-1.354 2.995-.052.113-.09.231-.14.362.103.049.182.092.265.125 2.446.966 4.89 1.936 7.338 2.897 2.658 1.044 5.321 2.078 7.978 3.123 1.968.773 3.93 1.559 5.896 2.337.539.213 1.081.42 1.637.635-.024.11-.028.185-.056.25-.799 1.821-1.596 3.643-2.401 5.462-.86 1.947-1.728 3.89-2.591 5.836a20060.189 20060.189 0 0 0-4.446 10.034l-.171.393c.146.066.249.119.357.161 2.092.821 4.186 1.638 6.277 2.463 1.486.587 2.982 1.156 4.449 1.785 2.374 1.018 4.094 2.67 5.131 4.943.844 1.849 1.044 3.77.607 5.738-.464 2.09-1.568 3.837-3.277 5.237-1.669 1.367-3.612 2.13-5.8 2.31-1.338.11-2.661-.011-3.931-.45a63.591 63.591 0 0 1-2.42-.884c-1.574-.616-3.14-1.252-4.712-1.876-1.351-.536-2.705-1.067-4.057-1.6-.135-.054-.27-.105-.426-.166-.055.09-.102.161-.144.235-.02.033-.032.07-.047.104-1.395 3.19-2.786 6.38-4.187 9.567-.84 1.913-1.699 3.82-2.544 5.73-.769 1.738-1.528 3.48-2.299 5.216-.159.359-.351.705-.529 1.059-.048.001-.091.014-.123 0-.905-.364-1.806-.74-2.715-1.097-2.83-1.111-5.666-2.212-8.496-3.324-1.906-.749-3.806-1.512-5.71-2.265-1.709-.675-3.421-1.345-5.131-2.017-.305-.12-.61-.237-.939-.364-.032.062-.086.148-.126.238l-3.066 6.923c-.501 1.13-.975 2.272-1.509 3.389a9.32 9.32 0 0 1-2.687 3.344c-1.844 1.445-3.965 2.202-6.356 2.251a10.374 10.374 0 0 1-3.029-.393c-1.904-.534-3.512-1.506-4.772-2.945-2.108-2.406-2.833-5.166-2.16-8.243.185-.844.529-1.635.897-2.422.461-.982.871-1.985 1.303-2.98.269-.62.534-1.24.809-1.858.632-1.42 1.27-2.838 1.905-4.257.056-.125.11-.252.173-.396-.123-.06-.212-.11-.306-.148-2.926-1.153-5.852-2.307-8.78-3.457-2.375-.933-4.754-1.858-7.128-2.793-1.98-.779-3.956-1.566-5.931-2.353-.317-.126-.626-.27-.959-.416.029-.095.046-.18.079-.257.614-1.416 1.223-2.833 1.845-4.245.797-1.807 1.608-3.609 2.407-5.415.805-1.82 1.599-3.643 2.404-5.462.815-1.841 1.635-3.68 2.456-5.519.144-.323.307-.639.473-.981.141.047.265.084.385.13 1.369.53 2.74 1.058 4.107 1.592 1.822.712 3.643 1.428 5.463 2.146.208.082.398.203.605.284 1.951.76 3.961 1.04 6.054.657a10.32 10.32 0 0 0 4.394-1.903c1.636-1.226 2.772-2.793 3.391-4.67.675-2.05.638-4.1-.144-6.15z"/></g></svg>